<svg version="1.2" baseProfile="tiny-ps" xmlns="http://www.w3.org/2000/svg" viewBox="0 0 512 512" width="3710" height="3710">
	<title>healthcare-svg</title>
	<defs>
		<linearGradient id="grd1" gradientUnits="userSpaceOnUse"  x1="113.95" y1="74.581" x2="384.469" y2="74.581">
			<stop offset="0" stop-color="#444b8c"  />
			<stop offset="0.996" stop-color="#26264f"  />
		</linearGradient>
		<linearGradient id="grd2" gradientUnits="userSpaceOnUse"  x1="123.817" y1="69.313" x2="394.337" y2="69.313">
			<stop offset="0" stop-color="#aa80f9"  />
			<stop offset="0.996" stop-color="#6165d7"  />
		</linearGradient>
		<linearGradient id="grd3" gradientUnits="userSpaceOnUse"  x1="141.231" y1="85.127" x2="380.049" y2="85.127">
			<stop offset="0" stop-color="#aa80f9"  />
			<stop offset="0.996" stop-color="#6165d7"  />
		</linearGradient>
		<linearGradient id="grd4" gradientUnits="userSpaceOnUse"  x1="353.287" y1="273.244" x2="218.43" y2="502.573">
			<stop offset="0" stop-color="#ffc444"  />
			<stop offset="0.996" stop-color="#f36f56"  />
		</linearGradient>
		<linearGradient id="grd5" gradientUnits="userSpaceOnUse"  x1="338.545" y1="183.582" x2="270.035" y2="288.871">
			<stop offset="0" stop-color="#ffc444"  />
			<stop offset="0.996" stop-color="#f36f56"  />
		</linearGradient>
		<linearGradient id="grd6" gradientUnits="userSpaceOnUse"  x1="254.861" y1="201.584" x2="341.148" y2="201.584">
			<stop offset="0" stop-color="#ff9085"  />
			<stop offset="1" stop-color="#fb6fbb"  />
		</linearGradient>
		<linearGradient id="grd7" gradientUnits="userSpaceOnUse"  x1="259.731" y1="142.953" x2="336.279" y2="142.953">
			<stop offset="0.008" stop-color="#97a6b7"  />
			<stop offset="0.278" stop-color="#ebeff2"  />
			<stop offset="1" stop-color="#97a6b7"  />
		</linearGradient>
		<linearGradient id="grd8" gradientUnits="userSpaceOnUse"  x1="259.731" y1="135.023" x2="336.279" y2="135.023">
			<stop offset="0.008" stop-color="#97a6b7"  />
			<stop offset="0.278" stop-color="#ebeff2"  />
			<stop offset="1" stop-color="#97a6b7"  />
		</linearGradient>
		<linearGradient id="grd9" gradientUnits="userSpaceOnUse"  x1="259.731" y1="125.54" x2="336.279" y2="125.54">
			<stop offset="0.008" stop-color="#97a6b7"  />
			<stop offset="0.278" stop-color="#ebeff2"  />
			<stop offset="1" stop-color="#97a6b7"  />
		</linearGradient>
		<linearGradient id="grd10" gradientUnits="userSpaceOnUse"  x1="271.869" y1="303.273" x2="137.013" y2="532.601">
			<stop offset="0" stop-color="#ffc444"  />
			<stop offset="0.996" stop-color="#f36f56"  />
		</linearGradient>
		<linearGradient id="grd11" gradientUnits="userSpaceOnUse"  x1="257.127" y1="213.611" x2="188.618" y2="318.899">
			<stop offset="0" stop-color="#ffc444"  />
			<stop offset="0.996" stop-color="#f36f56"  />
		</linearGradient>
		<linearGradient id="grd12" gradientUnits="userSpaceOnUse"  x1="173.444" y1="231.613" x2="259.731" y2="231.613">
			<stop offset="0" stop-color="#ff9085"  />
			<stop offset="1" stop-color="#fb6fbb"  />
		</linearGradient>
		<linearGradient id="grd13" gradientUnits="userSpaceOnUse"  x1="178.313" y1="172.982" x2="254.861" y2="172.982">
			<stop offset="0.008" stop-color="#97a6b7"  />
			<stop offset="0.278" stop-color="#ebeff2"  />
			<stop offset="1" stop-color="#97a6b7"  />
		</linearGradient>
		<linearGradient id="grd14" gradientUnits="userSpaceOnUse"  x1="178.313" y1="165.051" x2="254.861" y2="165.051">
			<stop offset="0.008" stop-color="#97a6b7"  />
			<stop offset="0.278" stop-color="#ebeff2"  />
			<stop offset="1" stop-color="#97a6b7"  />
		</linearGradient>
		<linearGradient id="grd15" gradientUnits="userSpaceOnUse"  x1="178.313" y1="155.569" x2="254.861" y2="155.569">
			<stop offset="0.008" stop-color="#97a6b7"  />
			<stop offset="0.278" stop-color="#ebeff2"  />
			<stop offset="1" stop-color="#97a6b7"  />
		</linearGradient>
		<linearGradient id="grd16" gradientUnits="userSpaceOnUse"  x1="285.042" y1="308.072" x2="307.343" y2="305.853">
			<stop offset="0" stop-color="#444b8c"  />
			<stop offset="0.996" stop-color="#26264f"  />
		</linearGradient>
		<linearGradient id="grd17" gradientUnits="userSpaceOnUse"  x1="334.838" y1="305.965" x2="290.46" y2="446.753">
			<stop offset="0.004" stop-color="#e38ddd"  />
			<stop offset="1" stop-color="#9571f6"  />
		</linearGradient>
		<linearGradient id="grd18" gradientUnits="userSpaceOnUse"  x1="185.748" y1="305.83" x2="308.643" y2="305.83">
			<stop offset="0" stop-color="#ff9085"  />
			<stop offset="1" stop-color="#fb6fbb"  />
		</linearGradient>
		<linearGradient id="grd19" gradientUnits="userSpaceOnUse"  x1="203.858" y1="257.222" x2="178.352" y2="325.538">
			<stop offset="0" stop-color="#ffc444"  />
			<stop offset="0.996" stop-color="#f36f56"  />
		</linearGradient>
		<linearGradient id="grd20" gradientUnits="userSpaceOnUse"  x1="206.089" y1="242.179" x2="143.548" y2="242.179">
			<stop offset="0" stop-color="#aa80f9"  />
			<stop offset="0.996" stop-color="#6165d7"  />
		</linearGradient>
		<linearGradient id="grd21" gradientUnits="userSpaceOnUse"  x1="124.749" y1="438.368" x2="111.789" y2="438.743">
			<stop offset="0" stop-color="#444b8c"  />
			<stop offset="0.996" stop-color="#26264f"  />
		</linearGradient>
		<linearGradient id="grd22" gradientUnits="userSpaceOnUse"  x1="120.023" y1="439.916" x2="113.224" y2="429.375">
			<stop offset="0" stop-color="#ffc444"  />
			<stop offset="0.996" stop-color="#f36f56"  />
		</linearGradient>
		<linearGradient id="grd23" gradientUnits="userSpaceOnUse"  x1="171.363" y1="432.538" x2="158.056" y2="436.197">
			<stop offset="0" stop-color="#444b8c"  />
			<stop offset="0.996" stop-color="#26264f"  />
		</linearGradient>
		<linearGradient id="grd24" gradientUnits="userSpaceOnUse"  x1="166.138" y1="436.391" x2="158.386" y2="426.178">
			<stop offset="0" stop-color="#ffc444"  />
			<stop offset="0.996" stop-color="#f36f56"  />
		</linearGradient>
		<linearGradient id="grd25" gradientUnits="userSpaceOnUse"  x1="145.034" y1="423.5" x2="107.421" y2="338.71">
			<stop offset="0" stop-color="#444b8c"  />
			<stop offset="0.996" stop-color="#26264f"  />
		</linearGradient>
		<linearGradient id="grd26" gradientUnits="userSpaceOnUse"  x1="112.78" y1="436.211" x2="68.938" y2="363.127">
			<stop offset="0" stop-color="#444b8c"  />
			<stop offset="0.996" stop-color="#26264f"  />
		</linearGradient>
		<linearGradient id="grd27" gradientUnits="userSpaceOnUse"  x1="96.052" y1="222.464" x2="149.051" y2="222.464">
			<stop offset="0" stop-color="#aa80f9"  />
			<stop offset="0.996" stop-color="#6165d7"  />
		</linearGradient>
		<linearGradient id="grd28" gradientUnits="userSpaceOnUse"  x1="129.156" y1="174.858" x2="187.134" y2="306.017">
			<stop offset="0" stop-color="#aa80f9"  />
			<stop offset="0.996" stop-color="#6165d7"  />
		</linearGradient>
		<linearGradient id="grd29" gradientUnits="userSpaceOnUse"  x1="85.148" y1="224.933" x2="121.756" y2="224.933">
			<stop offset="0" stop-color="#aa80f9"  />
			<stop offset="0.996" stop-color="#6165d7"  />
		</linearGradient>
		<linearGradient id="grd30" gradientUnits="userSpaceOnUse"  x1="102.307" y1="232.967" x2="118.63" y2="198.979">
			<stop offset="0" stop-color="#ffc444"  />
			<stop offset="0.996" stop-color="#f36f56"  />
		</linearGradient>
		<linearGradient id="grd31" gradientUnits="userSpaceOnUse"  x1="121.595" y1="231.368" x2="131.345" y2="206.333">
			<stop offset="0" stop-color="#311944"  />
			<stop offset="1" stop-color="#6b3976"  />
		</linearGradient>
		<linearGradient id="grd32" gradientUnits="userSpaceOnUse"  x1="129.779" y1="210.059" x2="131.656" y2="245.766">
			<stop offset="0" stop-color="#ffc444"  />
			<stop offset="0.996" stop-color="#f36f56"  />
		</linearGradient>
		<linearGradient id="grd33" gradientUnits="userSpaceOnUse"  x1="124.489" y1="231.695" x2="133.907" y2="207.514">
			<stop offset="0" stop-color="#311944"  />
			<stop offset="1" stop-color="#6b3976"  />
		</linearGradient>
		<linearGradient id="grd34" gradientUnits="userSpaceOnUse"  x1="125.469" y1="214.624" x2="125.048" y2="218.506">
			<stop offset="0" stop-color="#ffc444"  />
			<stop offset="1" stop-color="#f36f56"  />
		</linearGradient>
		<linearGradient id="grd35" gradientUnits="userSpaceOnUse"  x1="57.858" y1="226.114" x2="103.697" y2="226.114">
			<stop offset="0" stop-color="#aa80f9"  />
			<stop offset="0.996" stop-color="#6165d7"  />
		</linearGradient>
		<linearGradient id="grd36" gradientUnits="userSpaceOnUse"  x1="155.875" y1="330.693" x2="151.935" y2="296.109">
			<stop offset="0" stop-color="#ff9085"  />
			<stop offset="1" stop-color="#fb6fbb"  />
		</linearGradient>
		<linearGradient id="grd37" gradientUnits="userSpaceOnUse"  x1="102.898" y1="257.446" x2="90.094" y2="335.747">
			<stop offset="0" stop-color="#ffc444"  />
			<stop offset="0.996" stop-color="#f36f56"  />
		</linearGradient>
		<linearGradient id="grd38" gradientUnits="userSpaceOnUse"  x1="155.898" y1="330.869" x2="151.95" y2="296.219">
			<stop offset="0" stop-color="#ff9085"  />
			<stop offset="1" stop-color="#fb6fbb"  />
		</linearGradient>
		<linearGradient id="grd39" gradientUnits="userSpaceOnUse"  x1="377.973" y1="250.022" x2="330.446" y2="361.035">
			<stop offset="0" stop-color="#ff9085"  />
			<stop offset="1" stop-color="#fb6fbb"  />
		</linearGradient>
		<linearGradient id="grd40" gradientUnits="userSpaceOnUse"  x1="377.519" y1="417.739" x2="380.324" y2="468.229">
			<stop offset="0" stop-color="#444b8c"  />
			<stop offset="0.996" stop-color="#26264f"  />
		</linearGradient>
		<linearGradient id="grd41" gradientUnits="userSpaceOnUse"  x1="373.913" y1="442.476" x2="372.464" y2="376.16">
			<stop offset="0" stop-color="#ffc444"  />
			<stop offset="0.996" stop-color="#f36f56"  />
		</linearGradient>
		<linearGradient id="grd42" gradientUnits="userSpaceOnUse"  x1="429.007" y1="416.258" x2="431.608" y2="463.066">
			<stop offset="0" stop-color="#444b8c"  />
			<stop offset="0.996" stop-color="#26264f"  />
		</linearGradient>
		<linearGradient id="grd43" gradientUnits="userSpaceOnUse"  x1="418.785" y1="442.021" x2="417.256" y2="372.062">
			<stop offset="0" stop-color="#ffc444"  />
			<stop offset="0.996" stop-color="#f36f56"  />
		</linearGradient>
		<linearGradient id="grd44" gradientUnits="userSpaceOnUse"  x1="323.234" y1="369.931" x2="350.251" y2="333.671">
			<stop offset="0" stop-color="#ab316d"  />
			<stop offset="1" stop-color="#792d3d"  />
		</linearGradient>
		<linearGradient id="grd45" gradientUnits="userSpaceOnUse"  x1="340.193" y1="363.62" x2="409.654" y2="298.842">
			<stop offset="0" stop-color="#ab316d"  />
			<stop offset="1" stop-color="#792d3d"  />
		</linearGradient>
		<linearGradient id="grd46" gradientUnits="userSpaceOnUse"  x1="373.096" y1="311.814" x2="357.504" y2="280.016">
			<stop offset="0" stop-color="#444b8c"  />
			<stop offset="0.996" stop-color="#26264f"  />
		</linearGradient>
		<linearGradient id="grd47" gradientUnits="userSpaceOnUse"  x1="337.796" y1="372.711" x2="361.031" y2="341.527">
			<stop offset="0" stop-color="#ab316d"  />
			<stop offset="1" stop-color="#792d3d"  />
		</linearGradient>
		<linearGradient id="grd48" gradientUnits="userSpaceOnUse"  x1="353.711" y1="223.586" x2="456.425" y2="223.586">
			<stop offset="0" stop-color="#ff9085"  />
			<stop offset="1" stop-color="#fb6fbb"  />
		</linearGradient>
		<linearGradient id="grd49" gradientUnits="userSpaceOnUse"  x1="436.67" y1="218.881" x2="453.39" y2="321.131">
			<stop offset="0" stop-color="#ff9085"  />
			<stop offset="1" stop-color="#fb6fbb"  />
		</linearGradient>
		<linearGradient id="grd50" gradientUnits="userSpaceOnUse"  x1="385.065" y1="227.917" x2="425.586" y2="227.917">
			<stop offset="0" stop-color="#ff9085"  />
			<stop offset="1" stop-color="#fb6fbb"  />
		</linearGradient>
		<linearGradient id="grd51" gradientUnits="userSpaceOnUse"  x1="362.263" y1="227.887" x2="366.974" y2="200.967">
			<stop offset="0" stop-color="#ffc444"  />
			<stop offset="0.996" stop-color="#f36f56"  />
		</linearGradient>
		<linearGradient id="grd52" gradientUnits="userSpaceOnUse"  x1="367.645" y1="209.734" x2="398.356" y2="191.797">
			<stop offset="0" stop-color="#ffc444"  />
			<stop offset="0.996" stop-color="#f36f56"  />
		</linearGradient>
		<linearGradient id="grd53" gradientUnits="userSpaceOnUse"  x1="385.701" y1="254.08" x2="397.685" y2="327.368">
			<stop offset="0" stop-color="#ffc444"  />
			<stop offset="0.996" stop-color="#f36f56"  />
		</linearGradient>
		<linearGradient id="grd54" gradientUnits="userSpaceOnUse"  x1="342.102" y1="448.481" x2="341.554" y2="413.789">
			<stop offset="0" stop-color="#311944"  />
			<stop offset="1" stop-color="#893976"  />
		</linearGradient>
		<linearGradient id="grd55" gradientUnits="userSpaceOnUse"  x1="342.197" y1="383.939" x2="347.171" y2="446.273">
			<stop offset="0" stop-color="#ffc444"  />
			<stop offset="0.996" stop-color="#f36f56"  />
		</linearGradient>
		<linearGradient id="grd56" gradientUnits="userSpaceOnUse"  x1="342.197" y1="383.939" x2="347.171" y2="446.276">
			<stop offset="0" stop-color="#ffc444"  />
			<stop offset="0.996" stop-color="#f36f56"  />
		</linearGradient>
		<linearGradient id="grd57" gradientUnits="userSpaceOnUse"  x1="330.872" y1="450.802" x2="330.323" y2="416.111">
			<stop offset="0" stop-color="#311944"  />
			<stop offset="1" stop-color="#893976"  />
		</linearGradient>
		<linearGradient id="grd58" gradientUnits="userSpaceOnUse"  x1="330.967" y1="386.26" x2="335.941" y2="448.595">
			<stop offset="0" stop-color="#ffc444"  />
			<stop offset="0.996" stop-color="#f36f56"  />
		</linearGradient>
		<linearGradient id="grd59" gradientUnits="userSpaceOnUse"  x1="330.967" y1="386.26" x2="335.941" y2="448.597">
			<stop offset="0" stop-color="#ffc444"  />
			<stop offset="0.996" stop-color="#f36f56"  />
		</linearGradient>
		<linearGradient id="grd60" gradientUnits="userSpaceOnUse"  x1="345.127" y1="326.929" x2="341.009" y2="333.592">
			<stop offset="0" stop-color="#ffc444"  />
			<stop offset="0.996" stop-color="#f36f56"  />
		</linearGradient>
		<linearGradient id="grd61" gradientUnits="userSpaceOnUse"  x1="333.757" y1="318.639" x2="377.213" y2="378.892">
			<stop offset="0" stop-color="#ff9085"  />
			<stop offset="1" stop-color="#fb6fbb"  />
		</linearGradient>
		<linearGradient id="grd62" gradientUnits="userSpaceOnUse"  x1="330.462" y1="320.477" x2="338.66" y2="332.751">
			<stop offset="0" stop-color="#ffc444"  />
			<stop offset="0.996" stop-color="#f36f56"  />
		</linearGradient>
		<linearGradient id="grd63" gradientUnits="userSpaceOnUse"  x1="325.898" y1="329.521" x2="354.109" y2="269.243">
			<stop offset="0" stop-color="#444b8c"  />
			<stop offset="0.996" stop-color="#26264f"  />
		</linearGradient>
		<linearGradient id="grd64" gradientUnits="userSpaceOnUse"  x1="310.787" y1="367.646" x2="318.496" y2="371.848">
			<stop offset="0" stop-color="#ffc444"  />
			<stop offset="0.996" stop-color="#f36f56"  />
		</linearGradient>
	</defs>
	<style>
		tspan { white-space:pre }
		.shp0 { fill: #f4f7fa } 
		.shp1 { fill: url(#grd1) } 
		.shp2 { fill: url(#grd2) } 
		.shp3 { opacity: 0.502;mix-blend-mode: multiply;fill: url(#grd3) } 
		.shp4 { opacity: 0.302;mix-blend-mode: soft-light;fill: #ffffff } 
		.shp5 { mix-blend-mode: soft-light;fill: #ffffff } 
		.shp6 { fill: #ffffff } 
		.shp7 { fill: url(#grd4) } 
		.shp8 { fill: url(#grd5) } 
		.shp9 { fill: url(#grd6) } 
		.shp10 { opacity: 0.502;mix-blend-mode: soft-light;fill: #ffffff } 
		.shp11 { fill: url(#grd7) } 
		.shp12 { fill: url(#grd8) } 
		.shp13 { fill: url(#grd9) } 
		.shp14 { fill: #d8dee8 } 
		.shp15 { fill: #97a6b7 } 
		.shp16 { fill: #c2c9d3 } 
		.shp17 { fill: url(#grd10) } 
		.shp18 { fill: url(#grd11) } 
		.shp19 { fill: url(#grd12) } 
		.shp20 { fill: url(#grd13) } 
		.shp21 { fill: url(#grd14) } 
		.shp22 { fill: url(#grd15) } 
		.shp23 { fill: url(#grd16) } 
		.shp24 { opacity: 0.69;fill: url(#grd17) } 
		.shp25 { fill: url(#grd18) } 
		.shp26 { opacity: 0.502;mix-blend-mode: multiply;fill: #d8dee8 } 
		.shp27 { fill: url(#grd19) } 
		.shp28 { opacity: 0.149;mix-blend-mode: multiply;fill: url(#grd20) } 
		.shp29 { fill: url(#grd21) } 
		.shp30 { fill: url(#grd22) } 
		.shp31 { fill: url(#grd23) } 
		.shp32 { fill: url(#grd24) } 
		.shp33 { fill: url(#grd25) } 
		.shp34 { fill: url(#grd26) } 
		.shp35 { fill: url(#grd27) } 
		.shp36 { opacity: 0.149;mix-blend-mode: multiply;fill: url(#grd28) } 
		.shp37 { opacity: 0.302;mix-blend-mode: multiply;fill: url(#grd29) } 
		.shp38 { fill: url(#grd30) } 
		.shp39 { fill: url(#grd31) } 
		.shp40 { fill: url(#grd32) } 
		.shp41 { fill: url(#grd33) } 
		.shp42 { fill: url(#grd34) } 
		.shp43 { opacity: 0.302;mix-blend-mode: multiply;fill: url(#grd35) } 
		.shp44 { fill: url(#grd36) } 
		.shp45 { fill: url(#grd37) } 
		.shp46 { opacity: 0.302;mix-blend-mode: multiply;fill: url(#grd38) } 
		.shp47 { fill: url(#grd39) } 
		.shp48 { fill: url(#grd40) } 
		.shp49 { fill: url(#grd41) } 
		.shp50 { fill: url(#grd42) } 
		.shp51 { fill: url(#grd43) } 
		.shp52 { fill: url(#grd44) } 
		.shp53 { fill: url(#grd45) } 
		.shp54 { fill: url(#grd46) } 
		.shp55 { opacity: 0.302;mix-blend-mode: multiply;fill: url(#grd47) } 
		.shp56 { fill: url(#grd48) } 
		.shp57 { mix-blend-mode: multiply;fill: url(#grd49) } 
		.shp58 { fill: url(#grd50) } 
		.shp59 { fill: url(#grd51) } 
		.shp60 { fill: url(#grd52) } 
		.shp61 { fill: url(#grd53) } 
		.shp62 { fill: url(#grd54) } 
		.shp63 { fill: url(#grd55) } 
		.shp64 { opacity: 0.302;mix-blend-mode: multiply;fill: url(#grd56) } 
		.shp65 { fill: url(#grd57) } 
		.shp66 { fill: url(#grd58) } 
		.shp67 { opacity: 0.302;mix-blend-mode: multiply;fill: url(#grd59) } 
		.shp68 { fill: url(#grd60) } 
		.shp69 { opacity: 0.302;mix-blend-mode: multiply;fill: url(#grd61) } 
		.shp70 { fill: url(#grd62) } 
		.shp71 { fill: url(#grd63) } 
		.shp72 { fill: url(#grd64) } 
	</style>
	<g id="Illustration">
		<g id="&lt;Group&gt;">
			<path id="&lt;Path&gt;" class="shp0" d="M439.76 333.76C420.27 385.62 379.86 412.83 364.39 422.01C284.7 469.33 165.07 454.86 103.92 378.95C64.76 330.34 64.25 274.7 64.64 258.86C66.81 172.83 130.18 78.05 223.63 64.47C327.07 49.43 398.1 140.44 404.99 149.58C413.34 160.65 473.68 243.49 439.76 333.76Z" />
			<g id="&lt;Group&gt;">
				<g id="&lt;Group&gt;">
					<path id="&lt;Path&gt;" class="shp1" d="M262.35 77.1L256.31 74.86L250.23 76.52C211.17 87.24 175.61 87.18 131.57 85.4C125.59 85.16 113.95 91.73 113.95 99.38L113.95 358.82C113.95 369.37 121.77 378.15 133.07 380.35L133.07 380.35C179.14 389.34 220.76 404.58 256.26 427.46L265.51 428.3C291 399.69 325.41 378.44 368.76 364.53L368.76 364.53C378.1 361.22 384.47 352.43 384.47 342.93L384.47 109.37C384.47 104.56 380.51 100.51 375.61 100.31L375.61 100.31C338.21 98.8 299.92 91.05 262.35 77.1Z" />
					<path id="&lt;Path&gt;" class="shp2" d="M272.22 71.87L266.18 69.59L260.1 71.28C221.03 82.15 178.7 86.93 134.66 85.12L134.66 85.12C128.68 84.88 123.82 89.07 123.82 94.48L123.82 357.77C123.82 368.49 131.64 377.39 142.94 379.63L142.94 379.63C189.01 388.76 230.68 405.51 266.18 428.73L266.18 428.73L266.18 428.73C300.71 399.88 338.97 377.84 378.63 363.57L378.63 363.57C387.96 360.21 394.34 351.29 394.34 341.65L394.34 104.61C394.34 99.74 390.38 95.63 385.48 95.42L385.48 95.42C348.08 93.89 309.78 86.02 272.22 71.87Z" />
					<path id="&lt;Path&gt;" class="shp3" d="M373.32 109.04C338.11 106.58 302.43 98.84 267.11 85.75L266.18 85.4L265.24 85.67C228.87 96.02 189.97 101.28 149.29 101.12C144.8 101.11 141.23 104.33 141.23 108.42L141.23 356.74C141.23 360.42 143.9 363.5 147.78 364.29C191.8 373.28 231.45 388.7 266.18 409.98C299.99 383.64 336.48 363.59 374.57 350.11C377.8 348.96 380.05 345.84 380.05 342.5L380.05 116.19C380.05 112.46 377.08 109.3 373.32 109.04Z" />
					<path id="&lt;Path&gt;" class="shp4" d="M266.18 402.6C231.85 382.08 192.81 367.07 149.72 358.17C148.79 357.98 148.13 357.22 148.13 356.33L148.13 108.65C148.13 107.94 148.74 107.38 149.53 107.38C190.43 107.44 229.62 102.1 266.18 91.73C301.72 104.7 337.71 112.37 373.12 114.76C373.77 114.81 374.29 115.35 374.29 116L374.29 342.85C374.29 343.65 373.72 344.44 372.94 344.71C335.57 357.84 299.6 377.24 266.18 402.6Z" />
					<g id="&lt;Group&gt;" style="opacity: 0.302">
						<path id="&lt;Path&gt;" class="shp5" d="M277.45 229.41C256.05 181.34 216.01 180.26 199 140.84C193.22 127.45 189.81 108.84 196.33 83.27C176.28 85.35 155.67 85.99 134.66 85.12L134.66 85.12C128.68 84.88 123.82 89.07 123.82 94.48L123.82 357.77C123.82 368.49 131.64 377.39 142.94 379.63L142.94 379.63C189.01 388.76 230.68 405.51 266.18 428.73L266.18 428.73L266.18 428.73C284.51 413.41 303.92 400 324.04 388.66C302.23 364.69 292.45 341.58 288.01 322.36C278.9 282.9 293.49 265.45 277.45 229.41Z" />
					</g>
				</g>
				<g id="&lt;Group&gt;">
					<path id="&lt;Path&gt;" class="shp6" d="M328.97 157.23L328.97 150.15L267.04 150.15L267.04 157.23C267.04 161.54 265.7 165.74 263.21 169.24C257.78 176.89 254.86 186.04 254.86 195.41L254.86 295.73C254.86 303.78 274.18 310.3 298 310.3C321.83 310.3 341.15 303.78 341.15 295.73L341.15 195.41C341.15 186.04 338.23 176.89 332.8 169.24C330.31 165.74 328.97 161.54 328.97 157.23Z" />
					<path id="&lt;Path&gt;" class="shp7" d="M259.55 182.18C258.17 186.41 257.45 190.87 257.45 195.41L257.45 295.73C257.45 297.75 260.31 300.87 268.33 303.58C276.22 306.25 286.76 307.71 298 307.71C309.25 307.71 319.79 306.25 327.68 303.58C335.7 300.87 338.56 297.75 338.56 295.73L338.56 195.41C338.56 190.87 337.84 186.41 336.46 182.18L259.55 182.18Z" />
					<path id="&lt;Path&gt;" class="shp8" d="M336.28 182.18C336.28 186.56 319.14 190.11 298 190.11C276.87 190.11 259.73 186.56 259.73 182.18C259.73 177.8 276.87 174.25 298 174.25C319.14 174.25 336.28 177.8 336.28 182.18Z" />
					<g id="&lt;Group&gt;">
						<path id="&lt;Path&gt;" class="shp9" d="M298 211.16C277.68 211.16 260.5 207.25 254.86 201.86L254.86 238.79C260.5 244.17 277.68 248.09 298 248.09C318.33 248.09 335.51 244.17 341.15 238.79L341.15 201.86C335.51 207.25 318.33 211.16 298 211.16Z" />
					</g>
					<path id="&lt;Path&gt;" class="shp10" d="M326.04 296.42C321.39 288.06 325.92 283.55 322.55 270.38C317.31 249.95 303.58 249.78 300.4 232.29C297.58 216.81 307.62 212.94 303.89 198.48C299.98 183.31 287.39 181.65 282.91 169.34C281.17 164.57 280.71 158.36 283.38 150.15L267.04 150.15L267.04 157.23C267.04 161.54 265.7 165.74 263.21 169.24C257.78 176.89 254.86 186.04 254.86 195.41L254.86 295.73C254.86 303.78 274.18 310.3 298 310.3C312.46 310.3 325.24 307.9 333.07 304.22C330.23 302.13 327.8 299.57 326.04 296.42Z" />
					<g id="&lt;Group&gt;">
						<path id="&lt;Path&gt;" class="shp11" d="M336.28 151.16C336.28 155.54 319.14 159.09 298 159.09C276.87 159.09 259.73 155.54 259.73 151.16C259.73 146.78 276.87 143.23 298 143.23C319.14 143.23 336.28 146.78 336.28 151.16Z" />
						<path id="&lt;Path&gt;" class="shp12" d="M336.28 151.16L259.73 151.16L259.73 135.3L336.28 135.3L336.28 151.16Z" />
						<path id="&lt;Path&gt;" class="shp13" d="M336.28 135.33C336.28 140.58 319.14 144.84 298 144.84C276.87 144.84 259.73 140.58 259.73 135.33C259.73 130.07 276.87 125.82 298 125.82C319.14 125.82 336.28 130.07 336.28 135.33Z" />
						<path id="&lt;Path&gt;" class="shp14" d="M333.93 133.26C333.93 137.37 317.85 140.7 298 140.7C278.16 140.7 262.08 137.37 262.08 133.26C262.08 129.15 278.16 125.82 298 125.82C317.85 125.82 333.93 129.15 333.93 133.26Z" />
						<g id="&lt;Group&gt;">
							<path id="&lt;Path&gt;" class="shp15" d="M316.86 131.72C316.86 133.88 308.42 135.63 298 135.63C287.59 135.63 279.15 133.88 279.15 131.72C279.15 129.57 287.59 127.82 298 127.82C308.42 127.82 316.86 129.57 316.86 131.72Z" />
							<path id="&lt;Path&gt;" class="shp16" d="M298 128.99C307.46 128.99 315.28 130.43 316.65 132.31C316.79 132.12 316.86 131.92 316.86 131.72C316.86 129.57 308.42 127.82 298 127.82C287.59 127.82 279.15 129.57 279.15 131.72C279.15 131.92 279.22 132.12 279.36 132.31C280.73 130.43 288.55 128.99 298 128.99Z" />
						</g>
					</g>
				</g>
				<g id="&lt;Group&gt;">
					<path id="&lt;Path&gt;" class="shp6" d="M247.55 187.26L247.55 180.18L185.63 180.18L185.63 187.26C185.63 191.57 184.29 195.76 181.79 199.27C176.36 206.92 173.44 216.06 173.44 225.44L173.44 325.76C173.44 333.81 192.76 340.33 216.59 340.33C240.42 340.33 259.73 333.81 259.73 325.76L259.73 225.44C259.73 216.06 256.81 206.92 251.38 199.27C248.89 195.76 247.55 191.57 247.55 187.26Z" />
					<path id="&lt;Path&gt;" class="shp17" d="M178.13 212.21C176.75 216.44 176.04 220.9 176.04 225.44L176.04 325.76C176.04 327.78 178.89 330.9 186.91 333.61C194.8 336.27 205.34 337.74 216.59 337.74C227.84 337.74 238.38 336.27 246.27 333.61C254.28 330.9 257.14 327.78 257.14 325.76L257.14 225.44C257.14 220.9 256.43 216.44 255.04 212.21L178.13 212.21Z" />
					<path id="&lt;Path&gt;" class="shp18" d="M254.86 212.21C254.86 216.59 237.73 220.14 216.59 220.14C195.45 220.14 178.31 216.59 178.31 212.21C178.31 207.83 195.45 204.28 216.59 204.28C237.73 204.28 254.86 207.83 254.86 212.21Z" />
					<g id="&lt;Group&gt;">
						<path id="&lt;Path&gt;" class="shp19" d="M216.59 241.19C196.27 241.19 179.09 237.27 173.44 231.89L173.44 268.81C179.09 274.2 196.27 278.12 216.59 278.12C236.91 278.12 254.09 274.2 259.73 268.81L259.73 231.89C254.09 237.27 236.91 241.19 216.59 241.19Z" />
					</g>
					<path id="&lt;Path&gt;" class="shp10" d="M244.63 326.45C239.97 318.09 244.51 313.58 241.13 300.41C235.89 279.98 222.16 279.81 218.98 262.32C216.16 246.84 226.2 242.97 222.48 228.51C218.56 213.33 205.97 211.68 201.49 199.37C199.76 194.6 199.29 188.39 201.96 180.18L185.63 180.18L185.63 187.26C185.63 191.57 184.29 195.76 181.79 199.27C176.36 206.92 173.44 216.06 173.44 225.44L173.44 325.76C173.44 333.81 192.76 340.33 216.59 340.33C231.04 340.33 243.83 337.93 251.66 334.25C248.81 332.16 246.38 329.6 244.63 326.45Z" />
					<g id="&lt;Group&gt;">
						<path id="&lt;Path&gt;" class="shp20" d="M254.86 181.19C254.86 185.57 237.73 189.12 216.59 189.12C195.45 189.12 178.31 185.57 178.31 181.19C178.31 176.81 195.45 173.26 216.59 173.26C237.73 173.26 254.86 176.81 254.86 181.19Z" />
						<path id="&lt;Path&gt;" class="shp21" d="M254.86 181.19L178.31 181.19L178.31 165.33L254.86 165.33L254.86 181.19Z" />
						<path id="&lt;Path&gt;" class="shp22" d="M254.86 165.36C254.86 170.61 237.73 174.87 216.59 174.87C195.45 174.87 178.31 170.61 178.31 165.36C178.31 160.1 195.45 155.85 216.59 155.85C237.73 155.85 254.86 160.1 254.86 165.36Z" />
						<path id="&lt;Path&gt;" class="shp14" d="M252.51 163.29C252.51 167.4 236.43 170.73 216.59 170.73C196.75 170.73 180.66 167.4 180.66 163.29C180.66 159.18 196.75 155.85 216.59 155.85C236.43 155.85 252.51 159.18 252.51 163.29Z" />
						<g id="&lt;Group&gt;">
							<path id="&lt;Path&gt;" class="shp15" d="M235.45 161.75C235.45 163.91 227 165.66 216.59 165.66C206.17 165.66 197.73 163.91 197.73 161.75C197.73 159.59 206.17 157.85 216.59 157.85C227 157.85 235.45 159.59 235.45 161.75Z" />
							<path id="&lt;Path&gt;" class="shp16" d="M216.59 159.02C226.04 159.02 233.86 160.46 235.23 162.34C235.37 162.15 235.45 161.95 235.45 161.75C235.45 159.59 227 157.85 216.59 157.85C206.17 157.85 197.73 159.59 197.73 161.75C197.73 161.95 197.8 162.15 197.94 162.34C199.31 160.46 207.14 159.02 216.59 159.02Z" />
						</g>
					</g>
				</g>
				<g id="&lt;Group&gt;">
					<path id="&lt;Path&gt;" class="shp6" d="M379.91 316.37C381 327.38 375.94 336.89 368.6 337.62C361.27 338.35 354.43 330.02 353.34 319.02C352.24 308.01 357.3 298.5 364.64 297.77C371.97 297.04 378.81 305.37 379.91 316.37Z" />
					<path id="&lt;Path&gt;" class="shp16" d="M378.02 316.56C379.11 327.57 374.05 337.08 366.72 337.81C359.38 338.54 352.54 330.21 351.45 319.21C350.35 308.2 355.41 298.69 362.75 297.96C370.09 297.22 376.92 305.55 378.02 316.56Z" />
					<path id="&lt;Path&gt;" class="shp6" d="M366.43 319.17L297.51 326.03C296.92 326.09 296.39 325.66 296.33 325.07L296.26 324.32C296.2 323.73 296.63 323.2 297.22 323.15L366.14 316.28C366.73 316.23 367.26 316.66 367.31 317.25L367.39 318C367.45 318.59 367.02 319.11 366.43 319.17Z" />
					<path id="&lt;Path&gt;" class="shp10" d="M325.56 321.78C326.6 332.27 321.78 341.34 314.79 342.03C307.8 342.73 301.29 334.79 300.24 324.3C299.2 313.81 304.02 304.75 311.01 304.05C318 303.36 324.52 311.29 325.56 321.78Z" />
					<path id="&lt;Path&gt;" class="shp23" d="M309.82 323.35C310.8 333.24 306.26 341.79 299.66 342.44C293.07 343.1 286.93 335.62 285.94 325.73C284.96 315.84 289.51 307.29 296.1 306.63C302.69 305.97 308.84 313.46 309.82 323.35Z" />
					<path id="&lt;Path&gt;" class="shp24" d="M310.92 303.12L195.39 314.61C188.05 315.34 183 324.86 184.09 335.86C185.19 346.87 192.02 355.2 199.36 354.47L314.88 342.97C322.22 342.24 327.28 332.73 326.19 321.72C325.09 310.71 318.25 302.38 310.92 303.12Z" />
					<path id="&lt;Path&gt;" class="shp25" d="M199.21 353.03C196.17 353.33 193.07 351.77 190.51 348.65C187.8 345.35 186.04 340.76 185.53 335.72C185.03 330.68 185.86 325.83 187.86 322.07C189.76 318.5 192.49 316.36 195.54 316.06L295.18 306.14C298.23 305.84 301.32 307.39 303.89 310.52C306.59 313.81 308.36 318.4 308.86 323.44C309.36 328.49 308.53 333.34 306.53 337.1C304.63 340.67 301.91 342.8 298.85 343.11L199.21 353.03Z" />
					<path id="&lt;Path&gt;" class="shp10" d="M210.66 333.22C211.76 344.23 206.7 353.74 199.36 354.47C192.02 355.2 185.19 346.87 184.09 335.86C183 324.86 188.05 315.34 195.39 314.61C202.73 313.88 209.57 322.21 210.66 333.22Z" />
					<path id="&lt;Path&gt;" class="shp10" d="M310.92 303.12L201.3 314.03C206.63 316.87 210.89 323.97 211.87 332.66C218.33 331.34 223.48 327.22 234.56 327.15C249.4 327.05 250.13 334.38 263.87 334.44C280.58 334.5 284.86 323.68 300.61 322.61C306.56 322.21 315.1 323.14 325.92 329.55C326.35 327.11 326.46 324.46 326.19 321.72C325.09 310.71 318.25 302.38 310.92 303.12Z" />
					<path id="&lt;Path&gt;" class="shp6" d="M195.72 333.98L122.07 341.31C121.67 341.35 121.38 341.7 121.42 342.1C121.46 342.5 121.81 342.79 122.21 342.75L195.86 335.42C196.26 335.38 196.55 335.03 196.51 334.63C196.47 334.23 196.11 333.94 195.72 333.98Z" />
					<path id="&lt;Path&gt;" class="shp14" d="M200.39 334.24C200.71 337.45 199.23 340.23 197.09 340.44C194.95 340.66 192.95 338.22 192.63 335.01C192.31 331.8 193.79 329.03 195.93 328.81C198.07 328.6 200.07 331.03 200.39 334.24Z" />
					<path id="&lt;Path&gt;" class="shp26" d="M199.54 334.33C199.82 337.08 198.55 339.46 196.72 339.64C194.88 339.82 193.17 337.74 192.9 334.99C192.63 332.24 193.89 329.86 195.72 329.67C197.56 329.49 199.27 331.57 199.54 334.33Z" />
					<path id="&lt;Path&gt;" class="shp14" d="M195.01 337.45L178.61 339.08C177.64 339.18 176.77 338.47 176.67 337.49L176.53 336.04C176.43 335.07 177.14 334.2 178.12 334.1L194.51 332.47C195.49 332.37 196.36 333.09 196.45 334.06L196.6 335.51C196.69 336.49 195.98 337.36 195.01 337.45Z" />
					<path id="&lt;Path&gt;" class="shp5" d="M192.81 333.54L179.85 334.83C178.66 334.95 177.74 335.53 177.8 336.13L177.8 336.13C177.86 336.72 178.87 337.11 180.07 336.99L193.03 335.7C194.22 335.58 195.14 335 195.08 334.41C195.02 333.81 194.01 333.42 192.81 333.54Z" />
				</g>
			</g>
			<g id="&lt;Group&gt;">
				<path id="&lt;Path&gt;" class="shp27" d="M202.34 264.03C203.11 260.98 204.15 259.05 205.45 258.25C207.39 257.04 210.13 255.75 210.76 255.22C211.39 254.69 212.13 256.27 210.31 257.49C209.11 258.3 208.5 258.7 208.5 258.7C208.46 259.04 208.52 259.3 208.58 259.48C208.86 260.34 209.84 260.93 211.05 261.04C215.71 262.01 217.52 262.06 218.23 261.85C218.34 261.82 218.74 261.69 218.91 261.87C219.19 262.16 218.69 263.07 218.48 263.39C217.22 265.32 212.86 266.15 209.59 264.65C208.39 264.1 207.94 263.51 207.06 263.66C205.68 263.89 204.83 265.72 204.33 267.23L202.34 264.03Z" />
				<path id="&lt;Path&gt;" class="shp6" d="M206.09 265.49C204.76 264.31 203.44 263.13 202.12 261.95C201.63 262.44 194.56 269.34 184.68 267.25C177.87 265.81 173.95 260.22 171.43 256.66C163.88 245.94 168.4 238.08 160.27 230.8C158.01 228.78 153.58 226.33 150.69 227.08C143.79 228.86 139.81 249.61 146.49 265.93C147.84 269.22 155.26 287.36 172.1 289.32C185.69 290.91 200.1 281.33 206.09 265.49Z" />
				<path id="&lt;Path&gt;" class="shp28" d="M152.23 246.95C164.67 256.77 163.29 275.62 170.94 276.58C173.27 276.87 173.15 275.08 178.72 273.27C186.87 270.62 190.7 273.29 196.43 271.28C198.81 270.45 201.89 268.66 204.94 264.46C205.32 264.8 205.71 265.15 206.09 265.49C200.1 281.33 185.69 290.91 172.1 289.32C155.26 287.36 147.84 269.22 146.49 265.93C143.36 258.27 142.57 249.64 143.33 242.45C146.2 243.29 149.32 244.65 152.23 246.95Z" />
				<path id="&lt;Path&gt;" class="shp29" d="M112.87 439.15C112.15 439.73 112.01 441.21 111.93 442.17C111.89 442.6 111.87 442.82 111.92 442.97C112.27 444.08 114.42 444.19 117.79 444.54C123.12 445.08 124.7 445.5 125.12 444.71C125.51 443.97 124.56 442.75 124.46 442.62C123.88 441.89 123.18 441.63 121.82 441.19C119.31 440.36 117.61 439.91 117.1 439.77C113.89 438.91 113.35 438.76 112.87 439.15Z" />
				<path id="&lt;Path&gt;" class="shp30" d="M116.04 434.28L116.58 440.35C116.42 440.64 114.62 441.52 113.19 440.77L111.82 434.8L116.04 434.28Z" />
				<path id="&lt;Path&gt;" class="shp31" d="M159.44 436.46C158.58 437.42 158.38 439.19 159.13 440.06C159.88 440.92 160.99 440.28 164.17 440.37C167.56 440.47 168.45 441.27 170.76 440.64C171.69 440.38 173.34 439.75 173.31 439.09C173.28 438.62 172.45 438.38 169.64 437.44C165.67 436.11 165.69 436.04 164.84 435.9C162.72 435.55 160.59 435.19 159.44 436.46Z" />
				<path id="&lt;Path&gt;" class="shp32" d="M161.62 430.92L163.33 436.59C163.2 436.89 161.46 437.91 159.98 437.26L157.45 431.76L161.62 430.92Z" />
				<path id="&lt;Path&gt;" class="shp33" d="M146.48 306.8C146.73 325.85 148.03 347.26 151.15 370.53C154.23 393.52 158.55 414.3 163.26 432.57C161.09 433.15 158.91 433.74 156.74 434.33C151.22 429.18 144.27 421.09 140.91 409.65C138.83 402.55 139.52 398.9 138.2 390.17C136.09 376.26 131.83 368.98 127.43 357.77C123.47 347.69 118.79 332.9 116.28 313.14C126.35 311.03 136.42 308.91 146.48 306.8Z" />
				<path id="&lt;Path&gt;" class="shp34" d="M122.54 306.89C121.21 331.11 120.12 355.79 119.29 380.9C118.66 399.74 118.21 418.34 117.9 436.7C115.68 436.98 113.46 437.25 111.24 437.53C109.1 433.53 106.25 427.42 104.29 419.6C101.92 410.09 102.47 404.44 101.43 394.59C100.27 383.54 98.57 381.13 95.57 367.19C89.48 338.9 86.43 324.75 93.23 315.96C95.43 313.1 102.35 305.93 122.54 306.89Z" />
				<path id="&lt;Path&gt;" class="shp35" d="M96.05 226.95C101.25 225.49 108.87 223.78 118.21 223.25C131.52 222.5 138.17 222.12 142.89 225.29C153.78 232.61 145.35 249.51 149.81 291.4C151.7 309.2 152.56 308.05 148.29 314.39C139.61 327.26 115.23 328.32 104.07 317.16C98.17 311.26 97.41 310.92 97.26 304.19C96.7 277.62 96.28 252.53 96.05 226.95Z" />
				<path id="&lt;Path&gt;" class="shp6" d="M153.46 227.35C146.54 223.79 140.11 223.14 136.48 223.05C133.18 231.19 129.05 243.45 127.09 258.8C125.32 272.64 126.15 281.81 127.09 300.84C127.69 312.86 128.3 330.27 128.12 351.73C131.78 352.9 134.78 353.18 136.79 353.22C143.91 353.38 146.29 350.81 153.57 351.52C156.74 351.83 157.53 352.45 158.6 351.73C161.58 349.75 159.35 342.39 157.86 334.39C155.55 322.03 158.06 324.58 155.81 304.56C153.94 287.97 151.35 278.67 153.75 277.72C155.04 277.21 156.26 228.79 153.46 227.35Z" />
				<path id="&lt;Path&gt;" class="shp36" d="M146.48 306.8C146.58 294.32 153.23 292.55 152.56 281.81C151.88 270.99 144.99 270.4 145.23 261.09C145.52 249.77 155.83 246.2 155.43 235.91C155.29 232.44 153.98 229.38 152.26 226.79C145.81 223.75 139.9 223.14 136.48 223.05C133.18 231.19 129.05 243.45 127.09 258.8C125.32 272.64 126.15 281.81 127.09 300.84C127.69 312.86 128.3 330.27 128.12 351.73C131.78 352.9 134.78 353.18 136.79 353.22C143.91 353.38 146.29 350.81 153.57 351.52C156.74 351.83 157.53 352.45 158.6 351.73C161.2 350 159.83 344.16 158.45 337.38C156.26 334.56 154 331.84 151.6 326.76C149.79 322.91 146.42 315.77 146.48 306.8Z" />
				<path id="&lt;Path&gt;" class="shp6" d="M120.57 261.12C122.2 267.31 122.05 272.24 121.87 276.78C120.92 301.83 120.43 314.42 120.01 317.99C117.97 335.3 116.53 334.22 117.03 341.26C117.29 345.02 117.91 348.24 115.85 350.61C113.39 353.43 109.86 351.91 101.17 353.03C93.17 354.06 92.96 355.76 84.33 356.8C80.82 357.22 71.23 358.37 70.23 355.65C69.7 354.19 71.68 351.8 73.59 350.61C76.7 348.69 79.35 350.14 80.4 348.6C81.6 346.84 78.35 344.59 78.25 340.36C78.14 336.15 81.28 334.77 83.23 329.6C85.04 324.77 84.31 320.67 84.03 317.76C82.78 304.79 88.49 294.53 89.62 277.34C91.37 250.58 79.93 238.83 87.7 230.25C91.91 225.61 98.83 225.12 103.15 225.22C107.65 234.59 111.52 241.96 114.27 247.02C117.23 252.49 119.17 255.81 120.57 261.12Z" />
				<g id="&lt;Group&gt;">
					<path id="&lt;Path&gt;" class="shp6" d="M138 254.23C137.36 252.03 135.35 249.92 136.14 247.33C136.6 245.8 137.83 244.81 138.77 244.22C144.98 242.82 149.15 237.02 148.53 230.92C148.29 228.47 147.28 226.22 145.76 224.39C141.97 223.38 138.7 223.11 136.48 223.05C133.18 231.19 129.05 243.45 127.09 258.8C126.26 265.33 126 270.83 126.07 276.8C127.14 273.37 128.65 270.8 130.25 268.86C132.96 265.56 139.56 259.58 138 254.23Z" />
				</g>
				<g id="&lt;Group&gt;" style="opacity: 0.639">
					<path id="&lt;Path&gt;" class="shp37" d="M120.57 261.12C119.17 255.81 117.23 252.49 114.27 247.02C111.52 241.96 107.65 234.59 103.15 225.22C102.11 225.19 100.9 225.21 99.62 225.3C92.78 234.76 92.34 240.04 93.93 243.18C95.48 246.23 98.72 246.83 99.15 250.13C99.81 255.29 92.3 257.05 90.46 264.03C88.85 270.12 92.61 276.21 96.15 281.93C102.18 291.67 107.69 292.88 107.49 298.09C107.28 303.52 101.25 303.61 98.8 310.25C94.95 320.66 106.9 328.15 103.32 337.36C100.54 344.5 92.14 343.13 86.98 352.31C86.17 353.76 85.58 355.24 85.15 356.69C92.96 355.65 93.44 354.02 101.17 353.03C109.86 351.91 113.39 353.43 115.85 350.61C117.91 348.24 117.29 345.02 117.03 341.26C116.53 334.22 117.97 335.3 120.01 317.99C120.43 314.42 120.92 301.83 121.87 276.78C122.05 272.24 122.2 267.31 120.57 261.12Z" />
				</g>
				<path id="&lt;Path&gt;" class="shp6" d="M102.3 246.67C105.83 249.81 108.38 250.87 108.82 253.87C109.31 257.16 106.56 258.27 107.03 261.48C107.61 265.49 112.16 265.5 114.51 270.63C116.04 273.99 114.71 275.33 115.63 279.67C116.19 282.33 117.58 286.02 121.36 290.12C121.52 286.13 121.68 281.7 121.87 276.78C122.05 272.24 122.2 267.31 120.57 261.12C119.17 255.81 117.23 252.49 114.27 247.02C111.52 241.96 107.65 234.59 103.15 225.22C100.62 225.16 97.19 225.31 93.94 226.37C92.82 228.42 92.63 230.05 92.6 230.92C92.35 237.83 99.94 244.58 102.3 246.67Z" />
				<g id="&lt;Group&gt;">
					<path id="&lt;Path&gt;" class="shp38" d="M119.2 208.71C119.23 212.65 118.79 215.78 118.38 217.93C117.9 220.38 117.55 221.02 117.12 221.53C116.46 222.31 115.46 222.96 109.8 224.36C106.72 225.12 106.33 225.1 106.26 225.41C105.93 226.89 114.32 231.97 122.99 230.75C128.29 230 133.12 226.97 132.82 225.38C132.53 223.78 127.23 224.64 125.65 221.75C124.55 219.73 125.78 216.88 127.24 214.51C125.83 211.87 120.61 211.35 119.2 208.71Z" />
					<g id="&lt;Group&gt;">
						<path id="&lt;Path&gt;" class="shp39" d="M129.05 210.27C130.3 208.6 130.38 205.7 128.93 203.86C127.69 202.28 125.74 202.06 124.57 201.92C121.18 201.53 116.9 202.95 115.41 206.07C114.53 207.92 116.44 211.76 116.74 212.45C117.08 213.23 117.69 213.5 118.26 214.09C119.04 214.91 120.27 216.21 122.28 218.39C122.44 217.74 122.67 216.95 123.05 216.09C123.2 215.75 123.78 214.46 124.66 213.38C126.43 211.23 127.86 211.84 129.05 210.27Z" />
						<path id="&lt;Path&gt;" class="shp40" d="M119.42 216.55C120.9 218.99 123.12 220.11 126.08 219.92C130.05 219.66 130.64 210.75 128.1 208.86C127.25 208.23 125.56 207.97 124.18 208.36C123.36 208.59 123.09 208.92 121.75 209.27C120.52 209.59 120.17 209.45 119.8 209.77C119.33 210.16 118.99 211.12 119.77 213.73C119.01 212.96 118.1 212.66 117.46 212.97C117.35 213.02 117.08 213.2 116.93 213.48C116.37 214.5 117.3 215.8 119.42 216.55Z" />
						<path id="&lt;Path&gt;" class="shp41" d="M119.62 209.24C119.81 209.38 119.22 210.09 119.18 211.1C119.09 213.07 121.08 215.43 123.11 215.63C124.31 215.74 124.64 215.02 126.62 214.81C127.85 214.68 128.87 214.84 129.51 214.98C130.13 217.13 129.55 219.28 128.11 220.27C126.56 221.35 124.58 220.7 123.75 220.42C123.2 220.24 121.42 219.66 120.5 218.04C119.53 216.34 120.48 215.32 119.37 214.17C118.81 213.59 118.07 213.34 117.36 212.22C117.17 211.92 117.04 211.65 116.96 211.47C117.98 210.38 119.34 209.03 119.62 209.24Z" />
						<path id="&lt;Path&gt;" class="shp42" d="M128.07 215.78C127.5 216.08 126.72 216.2 125.73 216.14C125.66 216.14 125.58 216.16 125.57 216.2C125.53 216.34 126.48 216.97 127.36 216.72C127.98 216.55 128.47 215.96 128.38 215.81C128.35 215.74 128.21 215.75 128.07 215.78Z" />
					</g>
				</g>
				<path id="&lt;Path&gt;" class="shp6" d="M105.17 266.29C107.43 271.1 97.03 282.3 85.46 287.62C83.1 288.7 66.18 296.48 58.63 289C52.4 282.82 56.42 270.03 57.86 265.47C64.91 243.05 84.87 230.49 93.94 226.37C100.72 243.31 98.43 252.02 96.86 254.38C95.22 256.84 90.64 262.01 85.78 266.56C82.36 269.77 80.23 271.33 80.52 271.83C80.87 272.45 84.88 271.27 100.45 263.7C102.26 263.99 104.4 264.64 105.17 266.29Z" />
				<path id="&lt;Path&gt;" class="shp43" d="M105.17 266.29C107.43 271.1 97.03 282.3 85.46 287.62C83.1 288.7 66.18 296.48 58.63 289C52.4 282.82 56.42 270.03 57.86 265.47C64.91 243.05 84.87 230.49 93.94 226.37C87.13 230.31 78.96 236.59 77.86 245.47C77.22 250.6 79.5 252.05 78.84 257.24C77.16 270.41 60.62 275.59 62.17 280.11C63.3 283.39 73.15 283.8 80.8 281.41C93.08 277.58 98.93 266.75 100.45 263.7C102.26 263.99 104.4 264.64 105.17 266.29Z" />
				<path id="&lt;Path&gt;" class="shp44" d="M143.68 238.18L116.12 240.76C115.54 240.81 115.05 241.21 114.89 241.77L104.61 277.68C104.34 278.64 105.1 279.56 106.09 279.48L133.87 277.03C134.46 276.97 134.95 276.56 135.11 276L145.17 239.96C145.43 239 144.66 238.08 143.68 238.18Z" />
				<path id="&lt;Path&gt;" class="shp45" d="M101.24 265.16C107.56 258.69 112.02 254.97 114.59 254.02C118.45 252.58 115.03 262.82 112.77 264.27C110.51 265.71 109.62 266.27 107.86 266.49C106.68 266.63 106.09 266.71 106.09 266.71L103.77 267.94C101.79 267.71 100.94 266.78 101.24 265.16Z" />
				<path id="&lt;Path&gt;" class="shp46" d="M125.33 269.24C126.37 263.56 123.17 259.16 126.24 253.84C129.4 248.36 134.94 249.29 138.92 244.78C140.19 243.34 141.33 241.31 141.89 238.34L143.68 238.18C144.66 238.08 145.43 239 145.17 239.96L135.11 276C134.95 276.56 134.46 276.97 133.87 277.03L119.76 278.27C123.35 275.05 124.84 271.95 125.33 269.24Z" />
			</g>
			<g id="&lt;Group&gt;">
				<path id="&lt;Path&gt;" class="shp47" d="M345.33 315.03C342.44 283.51 343.76 257.18 349.28 236.02L365.98 241.71C354.19 284.27 348.31 308.72 348.33 315.03L345.33 315.03Z" />
				<path id="&lt;Path&gt;" class="shp48" d="M378.26 436.05C378.5 438 378.54 439.3 378.38 439.96C378.13 440.94 369.63 441.64 366.75 441.3C363.86 440.96 368.46 438.01 370.3 437.46C371.53 437.09 374.18 436.62 378.26 436.05Z" />
				<path id="&lt;Path&gt;" class="shp49" d="M373.98 431.17L374.88 437.04C376.4 437.73 377.53 437.73 378.26 437.05L378.38 430.91L373.98 431.17Z" />
				<path id="&lt;Path&gt;" class="shp50" d="M421.9 430.91C420.7 431.81 420.26 432.78 420.58 433.85C421.06 435.46 425.27 441.88 428.27 443.7C431.27 445.53 430.33 441.73 429.45 439.36C428.58 437 426.35 431.79 425.48 430.91C424.9 430.33 423.71 430.33 421.9 430.91Z" />
				<path id="&lt;Path&gt;" class="shp51" d="M418.66 424.47C419.53 426.9 420.37 428.9 421.02 430.37C422.47 433.63 423.27 434.85 424.17 435.91C424.95 436.84 426.8 438.81 427.3 438.48C427.81 438.15 426.45 435.75 423.84 428.73C423.58 428.05 423.06 426.63 422.26 424.47L418.66 424.47Z" />
				<path id="&lt;Path&gt;" class="shp52" d="M356.18 322.91C355.55 329.02 354.96 338.5 355.85 350.01C357.01 365 360.01 374.49 363.77 390.48C366.07 400.25 369.16 414.62 371.97 432.61C372.62 432.98 374.53 433.96 376.99 433.59C378.37 433.39 379.4 432.84 380.01 432.45C387.36 409.98 385.19 396.06 381.64 387.39C380.13 383.7 378.3 380.78 377.32 375.1C376.02 367.58 377.62 363.38 379.91 345.96C381.54 333.55 381.26 331.63 380.17 329.77C375.84 322.33 362.58 322.47 356.18 322.91Z" />
				<path id="&lt;Path&gt;" class="shp53" d="M381.48 325.52C385.98 348.78 390.4 360.99 393.75 367.9C394.57 369.61 397.32 375.1 399.92 382.98C402.23 389.96 403.19 395.09 403.68 397.35C405.23 404.48 409.07 414.89 419.39 428.54C419.52 428.61 421.28 429.61 422.97 428.72C423.82 428.27 424.24 427.56 424.41 427.22C423.06 414.17 421.51 403.2 420.17 394.74C419.88 392.96 418.64 385.2 416.69 374.93C415.93 370.92 414.81 365.03 413.47 358.99C411.81 351.46 409.25 341.22 405.31 328.95C397.37 327.81 389.42 326.67 381.48 325.52Z" />
				<path id="&lt;Path&gt;" class="shp54" d="M372.66 233.09C370.52 230.36 366.12 226.9 364.7 220.26C364.27 218.27 362.76 211.19 367.38 206.71C370.13 204.04 374.65 202.66 378.24 203.98C381.3 205.11 381.44 207.39 386.1 212.68C387.91 214.74 390.83 218.05 394.32 220.19C400.31 223.85 404.56 221.99 410.94 223.3C418.79 224.91 427.27 230.79 430.66 237.92C436.69 250.56 423.47 260.28 429.93 275C432.05 279.82 433.6 279.06 438.92 288.59C444.24 298.12 446.91 302.89 445.48 307.99C443.5 315.06 434.64 320.69 427.26 319.99C420.06 319.31 416.42 312.97 412.39 314.84C409.53 316.17 410.46 319.81 407.06 323.45C402.68 328.15 395.55 328.09 394.4 328.08C383.72 327.98 371.62 313.5 367.97 298.06C361.38 270.2 384.35 247.96 372.66 233.09Z" />
				<path id="&lt;Path&gt;" class="shp55" d="M381.64 387.39C380.13 383.7 378.3 380.78 377.32 375.1C376.02 367.58 377.62 363.38 379.91 345.96C381.54 333.55 381.26 331.63 380.17 329.77C377.82 325.72 372.83 323.93 367.73 323.2C367.8 323.46 367.87 323.72 367.92 323.97C370.6 336.18 360.4 343.63 365 357.04C367.27 363.66 370.89 365.17 371.73 372.85C372.52 380.04 369.65 381.53 370.26 388.07C371.18 397.83 378.12 400.2 379.92 407.68C381.1 412.54 380.11 419.64 371.54 429.93C371.68 430.81 371.83 431.7 371.97 432.61C372.62 432.98 374.53 433.96 376.99 433.59C378.37 433.39 379.4 432.84 380.01 432.45C387.36 409.98 385.19 396.06 381.64 387.39Z" />
				<path id="&lt;Path&gt;" class="shp56" d="M352.45 230.26C354.27 228.3 356.35 226.78 358.68 225.69C363.51 223.44 368.19 223.81 373.88 224.01C376.54 224.11 379.43 224.43 382.51 225.08C397.4 228.24 406.68 237.18 410.17 240.93C407.31 242.79 399.42 248.47 395.52 259.25C394.3 262.6 390.71 274.06 395.85 284.8C398.81 290.98 404.04 295.63 408.02 299.15C413.98 304.44 417.07 305.26 419.07 310C421.24 315.16 419.05 317.67 421.75 321.21C424.66 325 428.06 323.24 432.98 327.07C438.02 331 436.23 334.24 440.82 338.58C447.48 344.89 456.32 342.84 456.73 345.68C457.09 348.13 450.81 351.44 445.47 352.78C434.9 355.45 425.68 350.98 422.94 349.6C415.35 345.79 416.66 343.32 410.88 340.42C401.19 335.55 394.57 340.96 372.5 341.52C360.55 341.82 354.51 341.89 351.2 337.85C348.17 334.16 349.76 330.1 351.58 312.65C351.58 312.65 351.58 312.65 351.58 312.64C352.16 306.81 353.38 294.61 353.39 287.65C353.41 265.54 342.65 240.75 352.45 230.26Z" />
				<g id="&lt;Group&gt;" style="opacity: 0.302">
					<path id="&lt;Path&gt;" class="shp57" d="M440.82 338.58C436.23 334.24 438.02 331 432.98 327.07C428.06 323.24 424.66 325 421.75 321.21C419.05 317.67 421.24 315.16 419.07 310C417.07 305.26 413.98 304.44 408.02 299.15C404.04 295.63 398.81 290.98 395.85 284.8C390.71 274.06 394.3 262.6 395.52 259.25C399.42 248.47 407.31 242.79 410.17 240.93C409.9 240.64 409.57 240.3 409.22 239.94C390.39 242.53 379.41 253.41 378.05 256.64C374.91 264.08 379.88 266.82 380.01 288.31C380.07 298.57 378.96 302.63 382.29 306.91C386.1 311.82 390.5 310.3 396.01 316.71C400.24 321.63 399.56 324.76 403.52 326.83C407.77 329.06 410.47 326.46 415.27 327.48C423.28 329.19 424.99 338.43 430.29 343.48C434.29 347.3 441.7 349.97 456.3 347.11C456.63 346.61 456.8 346.13 456.73 345.68C456.32 342.84 447.48 344.89 440.82 338.58Z" />
				</g>
				<path id="&lt;Path&gt;" class="shp58" d="M383.76 262.43C381.76 266.68 390.96 276.58 401.19 281.29C403.27 282.25 418.23 289.13 424.9 282.51C430.41 277.04 426.85 265.74 425.59 261.71C419.35 241.89 400.21 231.81 392.18 228.18C386.2 243.15 389.72 249.82 391.11 251.9C392.56 254.08 396.61 258.65 400.9 262.68C403.93 265.51 405.81 266.89 405.56 267.33C405.24 267.88 401.7 266.84 387.93 260.14C386.34 260.4 384.45 260.98 383.76 262.43Z" />
				<path id="&lt;Path&gt;" class="shp59" d="M376.19 223.18C378.99 224.92 385.5 226.48 386 227.1C386.5 227.71 372.28 230.15 363.42 225.68C362.51 225.18 363.83 224.57 367.39 223.85C368.53 223.63 369.84 219.62 369.69 217.34L374.64 215.25C373.8 219.38 374.32 222.02 376.19 223.18Z" />
				<path id="&lt;Path&gt;" class="shp60" d="M374.77 217.53C373.22 219.6 371.25 220.19 368.87 219.28C365.68 218.07 367.7 209.8 370.26 208.88C371.12 208.58 372.68 208.74 373.71 209.41C374.44 209.87 376.37 212.33 375.21 215.05C376.02 214.82 376.73 215.04 376.91 215.45C377.13 215.96 376.43 216.65 376.27 216.8C375.73 217.34 375.07 217.48 374.77 217.53Z" />
				<path id="&lt;Path&gt;" class="shp61" d="M387.24 261.44C381.65 255.71 377.71 252.43 375.44 251.58C372.02 250.32 374.07 252.17 375.44 253.24C376.8 254.31 377.71 254.67 377.01 256.3C376.31 257.93 375.04 259.37 377.04 260.65C379.04 261.92 379.83 262.41 381.39 262.61C382.43 262.74 382.95 262.8 382.95 262.8L385 263.9C386.75 263.69 387.5 262.87 387.24 261.44Z" />
			</g>
			<g id="&lt;Group&gt;">
				<path id="&lt;Path&gt;" class="shp62" d="M342.65 441.76C345.3 442.53 347.64 443.33 349.67 444.17C352.71 445.44 352.59 443.49 352.13 441.17C351.82 439.62 350.27 439.3 347.48 440.2C342.98 439.81 341.37 440.33 342.65 441.76Z" />
				<path id="&lt;Path&gt;" class="shp63" d="M358.57 376.56C358.4 382.77 357.63 388.08 356.71 392.42C355.73 397.08 355.15 397.89 354.84 401.11C354.17 408.13 356.43 409.13 356.85 417.07C357.31 425.82 354.98 432.78 354.06 435.44C353.26 437.76 352.43 439.64 351.8 440.94C351.26 441.41 350.53 441.44 349.72 441.33C348.99 441.24 348.44 440.63 348.4 439.9C347.93 432.4 347.37 425.28 346.92 417.74C345.38 405.79 343.85 393.84 342.31 381.89C347.73 380.11 353.15 378.34 358.57 376.56Z" />
				<path id="&lt;Path&gt;" class="shp64" d="M348.39 439.83C347.93 432.36 347.37 425.26 346.92 417.74C345.38 405.79 343.85 393.84 342.31 381.89C347.73 380.11 353.15 378.34 358.57 376.56C358.56 376.98 358.54 377.37 358.52 377.77C350.92 384.38 349.43 389.61 349.5 393.18C349.59 397.51 351.96 399.66 351.5 405.93C351.17 410.42 349.82 411.21 349.82 415.26C349.82 420.48 352.06 423.41 353.15 426.42C354.2 429.33 354.58 433.46 352.54 439.33C352.27 439.93 352.02 440.47 351.8 440.94C351.27 441.4 350.57 441.44 349.78 441.34C349.02 441.25 348.44 440.6 348.39 439.83Z" />
				<path id="&lt;Path&gt;" class="shp65" d="M331.42 444.09C334.07 444.85 336.41 445.65 338.44 446.49C341.48 447.76 341.36 445.81 340.9 443.49C340.59 441.94 339.04 441.62 336.25 442.52C331.75 442.13 330.14 442.65 331.42 444.09Z" />
				<path id="&lt;Path&gt;" class="shp66" d="M347.34 378.89C347.17 385.09 346.4 390.4 345.48 394.74C344.49 399.4 343.92 400.21 343.61 403.43C342.94 410.45 345.21 411.45 345.62 419.39C346.08 428.15 343.75 435.11 342.83 437.76C342.03 440.08 341.2 441.96 340.57 443.26C340.03 443.73 339.3 443.76 338.48 443.66C337.76 443.56 337.21 442.95 337.17 442.23C336.7 434.73 336.15 427.61 335.69 420.06C334.15 408.11 332.62 396.16 331.08 384.21C336.5 382.44 341.92 380.66 347.34 378.89Z" />
				<path id="&lt;Path&gt;" class="shp67" d="M337.16 442.16C336.7 434.68 336.14 427.58 335.69 420.06C334.15 408.11 332.62 396.16 331.08 384.21C336.5 382.44 341.92 380.66 347.34 378.89C347.33 379.3 347.31 379.69 347.29 380.1C339.69 386.7 338.2 391.93 338.27 395.5C338.36 399.83 340.73 401.98 340.27 408.25C339.94 412.74 338.59 413.53 338.59 417.58C338.59 422.8 340.83 425.73 341.92 428.74C342.97 431.65 343.35 435.78 341.31 441.65C341.04 442.25 340.79 442.79 340.57 443.26C340.04 443.72 339.34 443.76 338.55 443.66C337.79 443.57 337.21 442.92 337.16 442.16Z" />
				<path id="&lt;Path&gt;" class="shp6" d="M338.05 327.99C335.73 328.65 333.69 329.79 331.92 331.42C328.08 334.96 328.44 339.57 327.36 349.18C326.07 360.67 323.12 371.24 324.61 380.1C324.97 382.25 325.5 384.17 326.05 385.8C327.03 388.68 328.87 391.13 331.24 392.79C333.02 394.04 335.19 395.3 337.71 396.31C344.25 398.94 347.42 397.56 356.17 398.29C370.46 399.49 372.69 404.07 379.09 401.42C385.56 398.74 390.13 391.22 388.68 387.94C387.82 385.97 385.23 387.13 381.43 384.66C376.81 381.64 377.15 378.19 373.29 373.59C367.66 366.9 362.94 370.03 358.11 364.12C354.73 359.97 354.29 355.05 353.53 346.47C352.72 337.33 354.06 330.62 350.42 328.62C349.54 328.14 348.49 327.88 347.23 327.92C344.52 328.01 341.47 327.02 338.05 327.99Z" />
				<path id="&lt;Path&gt;" class="shp68" d="M338.43 323.68L335.67 329.97C338.39 331.34 341 331.34 343.49 329.97L343.49 323.68L338.43 323.68Z" />
				<path id="&lt;Path&gt;" class="shp69" d="M378.24 396.46C376.24 394.98 377.23 390.91 374.26 388.68C371.5 386.61 369.43 389.2 365.4 387.77C360.23 385.93 360.4 380.52 355.44 378.69C351.87 377.37 350.85 379.82 345.75 379.82C340.65 379.82 340.01 353.99 335.67 347.98C333.82 345.43 326.67 366.11 326.08 363.62C324.81 368.42 323.42 373.05 324.61 380.1C325.09 382.96 325.86 385.41 326.61 387.34C327.31 389.14 328.46 390.69 329.93 391.82C331.92 393.36 334.53 395.04 337.71 396.31C344.25 398.94 347.42 397.56 356.17 398.29C370.46 399.49 372.69 404.07 379.09 401.42C383.22 399.7 386.57 396.02 388.08 392.72C382.52 397.1 379.7 397.54 378.24 396.46Z" />
				<g id="&lt;Group&gt;">
					<path id="&lt;Path&gt;" class="shp70" d="M337.87 311.21C335.67 315.33 334.51 318.84 334.37 321.73C334.23 324.63 335.79 325.97 339.06 325.76L345.14 325.55C346.6 316.53 344.18 311.75 337.87 311.21Z" />
					<path id="&lt;Path&gt;" class="shp71" d="M339.49 322.09C338.47 325.57 340.13 328.94 341.55 331.83C344.31 337.45 351.52 344.43 358.73 343.63C366.78 342.74 367.71 332.94 375.15 332.6C381.38 332.32 382.67 339.12 390.79 340.81C401.08 342.95 410.45 334.41 411.57 333.37C418.67 326.72 423.27 315.22 419.52 305.16C419.13 304.13 415.36 294.39 408.23 293.36C402.22 292.49 399.98 298.73 390.53 299.52C384.36 300.03 383.28 297.54 378.99 299C372.18 301.33 372.94 308.31 367.45 309.78C361.76 311.3 359.25 304.25 348.73 303.36C347.27 303.24 338.8 302.52 336.42 306.95C335.46 308.74 335.34 311.63 336.53 313.73C337.77 315.9 339.77 316.1 340.26 318.24C340.61 319.72 339.9 320.71 339.49 322.09Z" />
				</g>
				<path id="&lt;Path&gt;" class="shp72" d="M313.53 369.95C312.48 369.07 311.35 368.67 310.15 368.76C308.35 368.89 307.73 372.83 308.47 373.79C308.96 374.43 311.01 373.89 314.64 372.17L313.53 369.95Z" />
				<path id="&lt;Path&gt;" class="shp6" d="M313.53 369.95C320.91 359.33 325.31 350.58 326.7 343.7C328.79 333.36 330.54 331.13 334.36 331.87C338.19 332.62 347.48 360.56 314.64 372.17L313.53 369.95Z" />
			</g>
		</g>
	</g>
</svg>