<svg version="1.2" baseProfile="tiny-ps" xmlns="http://www.w3.org/2000/svg" viewBox="0 0 3710 3710" width="3710" height="3710">
	<title>Wavy_Med-04_Single-04-ai</title>
	<defs>
		<linearGradient id="grd1" gradientUnits="userSpaceOnUse"  x1="825.69" y1="540.419" x2="2785.902" y2="540.419">
			<stop offset="0" stop-color="#444b8c"  />
			<stop offset="0.996" stop-color="#26264f"  />
		</linearGradient>
		<linearGradient id="grd2" gradientUnits="userSpaceOnUse"  x1="897.19" y1="502.248" x2="2857.402" y2="502.248">
			<stop offset="0" stop-color="#aa80f9"  />
			<stop offset="0.996" stop-color="#6165d7"  />
		</linearGradient>
		<linearGradient id="grd3" gradientUnits="userSpaceOnUse"  x1="1023.37" y1="616.835" x2="2753.871" y2="616.835">
			<stop offset="0" stop-color="#aa80f9"  />
			<stop offset="0.996" stop-color="#6165d7"  />
		</linearGradient>
		<linearGradient id="grd4" gradientUnits="userSpaceOnUse"  x1="2559.948" y1="1979.955" x2="1582.764" y2="3641.688">
			<stop offset="0" stop-color="#ffc444"  />
			<stop offset="0.996" stop-color="#f36f56"  />
		</linearGradient>
		<linearGradient id="grd5" gradientUnits="userSpaceOnUse"  x1="2453.127" y1="1330.251" x2="1956.699" y2="2093.184">
			<stop offset="0" stop-color="#ffc444"  />
			<stop offset="0.996" stop-color="#f36f56"  />
		</linearGradient>
		<linearGradient id="grd6" gradientUnits="userSpaceOnUse"  x1="1846.749" y1="1460.697" x2="2471.99" y2="1460.697">
			<stop offset="0" stop-color="#ff9085"  />
			<stop offset="1" stop-color="#fb6fbb"  />
		</linearGradient>
		<linearGradient id="grd7" gradientUnits="userSpaceOnUse"  x1="2028.141" y1="1467.26" x2="1918.403" y2="2062.976">
			<stop offset="0" stop-color="#444b8c"  />
			<stop offset="0.996" stop-color="#26264f"  />
		</linearGradient>
		<linearGradient id="grd8" gradientUnits="userSpaceOnUse"  x1="2113.067" y1="1482.905" x2="2003.33" y2="2078.619">
			<stop offset="0" stop-color="#444b8c"  />
			<stop offset="0.996" stop-color="#26264f"  />
		</linearGradient>
		<linearGradient id="grd9" gradientUnits="userSpaceOnUse"  x1="2178.85" y1="1497.534" x2="2070.498" y2="2085.728">
			<stop offset="0" stop-color="#444b8c"  />
			<stop offset="0.996" stop-color="#26264f"  />
		</linearGradient>
		<linearGradient id="grd10" gradientUnits="userSpaceOnUse"  x1="2245.768" y1="1508.884" x2="2137.168" y2="2098.429">
			<stop offset="0" stop-color="#444b8c"  />
			<stop offset="0.996" stop-color="#26264f"  />
		</linearGradient>
		<linearGradient id="grd11" gradientUnits="userSpaceOnUse"  x1="2276.388" y1="1512.991" x2="2166.651" y2="2108.702">
			<stop offset="0" stop-color="#444b8c"  />
			<stop offset="0.996" stop-color="#26264f"  />
		</linearGradient>
		<linearGradient id="grd12" gradientUnits="userSpaceOnUse"  x1="2356.193" y1="1527.691" x2="2246.456" y2="2123.405">
			<stop offset="0" stop-color="#444b8c"  />
			<stop offset="0.996" stop-color="#26264f"  />
		</linearGradient>
		<linearGradient id="grd13" gradientUnits="userSpaceOnUse"  x1="2419.912" y1="1539.428" x2="2310.174" y2="2135.145">
			<stop offset="0" stop-color="#444b8c"  />
			<stop offset="0.996" stop-color="#26264f"  />
		</linearGradient>
		<linearGradient id="grd14" gradientUnits="userSpaceOnUse"  x1="1882.032" y1="1035.852" x2="2436.707" y2="1035.852">
			<stop offset="0.008" stop-color="#97a6b7"  />
			<stop offset="0.278" stop-color="#ebeff2"  />
			<stop offset="1" stop-color="#97a6b7"  />
		</linearGradient>
		<linearGradient id="grd15" gradientUnits="userSpaceOnUse"  x1="1882.032" y1="978.386" x2="2436.707" y2="978.386">
			<stop offset="0.008" stop-color="#97a6b7"  />
			<stop offset="0.278" stop-color="#ebeff2"  />
			<stop offset="1" stop-color="#97a6b7"  />
		</linearGradient>
		<linearGradient id="grd16" gradientUnits="userSpaceOnUse"  x1="1882.032" y1="909.677" x2="2436.707" y2="909.677">
			<stop offset="0.008" stop-color="#97a6b7"  />
			<stop offset="0.278" stop-color="#ebeff2"  />
			<stop offset="1" stop-color="#97a6b7"  />
		</linearGradient>
		<linearGradient id="grd17" gradientUnits="userSpaceOnUse"  x1="1969.991" y1="2197.546" x2="992.807" y2="3859.279">
			<stop offset="0" stop-color="#ffc444"  />
			<stop offset="0.996" stop-color="#f36f56"  />
		</linearGradient>
		<linearGradient id="grd18" gradientUnits="userSpaceOnUse"  x1="1863.169" y1="1547.842" x2="1366.742" y2="2310.774">
			<stop offset="0" stop-color="#ffc444"  />
			<stop offset="0.996" stop-color="#f36f56"  />
		</linearGradient>
		<linearGradient id="grd19" gradientUnits="userSpaceOnUse"  x1="1256.792" y1="1678.288" x2="1882.032" y2="1678.288">
			<stop offset="0" stop-color="#ff9085"  />
			<stop offset="1" stop-color="#fb6fbb"  />
		</linearGradient>
		<linearGradient id="grd20" gradientUnits="userSpaceOnUse"  x1="1438.183" y1="1684.852" x2="1328.446" y2="2280.566">
			<stop offset="0" stop-color="#444b8c"  />
			<stop offset="0.996" stop-color="#26264f"  />
		</linearGradient>
		<linearGradient id="grd21" gradientUnits="userSpaceOnUse"  x1="1523.11" y1="1700.496" x2="1413.372" y2="2296.212">
			<stop offset="0" stop-color="#444b8c"  />
			<stop offset="0.996" stop-color="#26264f"  />
		</linearGradient>
		<linearGradient id="grd22" gradientUnits="userSpaceOnUse"  x1="1588.893" y1="1715.125" x2="1480.541" y2="2303.319">
			<stop offset="0" stop-color="#444b8c"  />
			<stop offset="0.996" stop-color="#26264f"  />
		</linearGradient>
		<linearGradient id="grd23" gradientUnits="userSpaceOnUse"  x1="1655.811" y1="1726.475" x2="1547.21" y2="2316.022">
			<stop offset="0" stop-color="#444b8c"  />
			<stop offset="0.996" stop-color="#26264f"  />
		</linearGradient>
		<linearGradient id="grd24" gradientUnits="userSpaceOnUse"  x1="1686.431" y1="1730.581" x2="1576.693" y2="2326.297">
			<stop offset="0" stop-color="#444b8c"  />
			<stop offset="0.996" stop-color="#26264f"  />
		</linearGradient>
		<linearGradient id="grd25" gradientUnits="userSpaceOnUse"  x1="1766.235" y1="1745.282" x2="1656.498" y2="2340.998">
			<stop offset="0" stop-color="#444b8c"  />
			<stop offset="0.996" stop-color="#26264f"  />
		</linearGradient>
		<linearGradient id="grd26" gradientUnits="userSpaceOnUse"  x1="1829.955" y1="1757.019" x2="1720.217" y2="2352.735">
			<stop offset="0" stop-color="#444b8c"  />
			<stop offset="0.996" stop-color="#26264f"  />
		</linearGradient>
		<linearGradient id="grd27" gradientUnits="userSpaceOnUse"  x1="1292.075" y1="1253.444" x2="1846.749" y2="1253.444">
			<stop offset="0.008" stop-color="#97a6b7"  />
			<stop offset="0.278" stop-color="#ebeff2"  />
			<stop offset="1" stop-color="#97a6b7"  />
		</linearGradient>
		<linearGradient id="grd28" gradientUnits="userSpaceOnUse"  x1="1292.075" y1="1195.977" x2="1846.749" y2="1195.977">
			<stop offset="0.008" stop-color="#97a6b7"  />
			<stop offset="0.278" stop-color="#ebeff2"  />
			<stop offset="1" stop-color="#97a6b7"  />
		</linearGradient>
		<linearGradient id="grd29" gradientUnits="userSpaceOnUse"  x1="1292.075" y1="1127.269" x2="1846.749" y2="1127.269">
			<stop offset="0.008" stop-color="#97a6b7"  />
			<stop offset="0.278" stop-color="#ebeff2"  />
			<stop offset="1" stop-color="#97a6b7"  />
		</linearGradient>
		<linearGradient id="grd30" gradientUnits="userSpaceOnUse"  x1="2065.442" y1="2232.315" x2="2227.034" y2="2216.239">
			<stop offset="0" stop-color="#444b8c"  />
			<stop offset="0.996" stop-color="#26264f"  />
		</linearGradient>
		<linearGradient id="grd31" gradientUnits="userSpaceOnUse"  x1="2426.268" y1="2217.05" x2="2104.701" y2="3237.212">
			<stop offset="0.004" stop-color="#e38ddd"  />
			<stop offset="1" stop-color="#9571f6"  />
		</linearGradient>
		<linearGradient id="grd32" gradientUnits="userSpaceOnUse"  x1="1345.948" y1="2216.071" x2="2236.456" y2="2216.071">
			<stop offset="0" stop-color="#ff9085"  />
			<stop offset="1" stop-color="#fb6fbb"  />
		</linearGradient>
		<linearGradient id="grd33" gradientUnits="userSpaceOnUse"  x1="1477.172" y1="1863.854" x2="1292.354" y2="2358.877">
			<stop offset="0" stop-color="#ffc444"  />
			<stop offset="0.996" stop-color="#f36f56"  />
		</linearGradient>
		<linearGradient id="grd34" gradientUnits="userSpaceOnUse"  x1="1493.337" y1="1754.851" x2="1040.162" y2="1754.851">
			<stop offset="0" stop-color="#aa80f9"  />
			<stop offset="0.996" stop-color="#6165d7"  />
		</linearGradient>
		<linearGradient id="grd35" gradientUnits="userSpaceOnUse"  x1="903.943" y1="3176.458" x2="810.032" y2="3179.173">
			<stop offset="0" stop-color="#444b8c"  />
			<stop offset="0.996" stop-color="#26264f"  />
		</linearGradient>
		<linearGradient id="grd36" gradientUnits="userSpaceOnUse"  x1="869.701" y1="3187.675" x2="820.433" y2="3111.295">
			<stop offset="0" stop-color="#ffc444"  />
			<stop offset="0.996" stop-color="#f36f56"  />
		</linearGradient>
		<linearGradient id="grd37" gradientUnits="userSpaceOnUse"  x1="1241.714" y1="3134.211" x2="1145.288" y2="3160.723">
			<stop offset="0" stop-color="#444b8c"  />
			<stop offset="0.996" stop-color="#26264f"  />
		</linearGradient>
		<linearGradient id="grd38" gradientUnits="userSpaceOnUse"  x1="1203.855" y1="3162.13" x2="1147.68" y2="3088.126">
			<stop offset="0" stop-color="#ffc444"  />
			<stop offset="0.996" stop-color="#f36f56"  />
		</linearGradient>
		<linearGradient id="grd39" gradientUnits="userSpaceOnUse"  x1="1050.931" y1="3068.718" x2="778.381" y2="2454.327">
			<stop offset="0" stop-color="#444b8c"  />
			<stop offset="0.996" stop-color="#26264f"  />
		</linearGradient>
		<linearGradient id="grd40" gradientUnits="userSpaceOnUse"  x1="817.217" y1="3160.829" x2="499.533" y2="2631.25">
			<stop offset="0" stop-color="#444b8c"  />
			<stop offset="0.996" stop-color="#26264f"  />
		</linearGradient>
		<linearGradient id="grd41" gradientUnits="userSpaceOnUse"  x1="695.999" y1="1611.992" x2="1080.037" y2="1611.992">
			<stop offset="0" stop-color="#aa80f9"  />
			<stop offset="0.996" stop-color="#6165d7"  />
		</linearGradient>
		<linearGradient id="grd42" gradientUnits="userSpaceOnUse"  x1="935.875" y1="1267.037" x2="1355.994" y2="2217.426">
			<stop offset="0" stop-color="#aa80f9"  />
			<stop offset="0.996" stop-color="#6165d7"  />
		</linearGradient>
		<linearGradient id="grd43" gradientUnits="userSpaceOnUse"  x1="616.993" y1="1629.883" x2="882.258" y2="1629.883">
			<stop offset="0" stop-color="#aa80f9"  />
			<stop offset="0.996" stop-color="#6165d7"  />
		</linearGradient>
		<linearGradient id="grd44" gradientUnits="userSpaceOnUse"  x1="741.323" y1="1688.098" x2="859.604" y2="1441.823">
			<stop offset="0" stop-color="#ffc444"  />
			<stop offset="0.996" stop-color="#f36f56"  />
		</linearGradient>
		<linearGradient id="grd45" gradientUnits="userSpaceOnUse"  x1="881.088" y1="1676.514" x2="951.737" y2="1495.111">
			<stop offset="0" stop-color="#311944"  />
			<stop offset="1" stop-color="#6b3976"  />
		</linearGradient>
		<linearGradient id="grd46" gradientUnits="userSpaceOnUse"  x1="940.39" y1="1522.108" x2="953.995" y2="1780.84">
			<stop offset="0" stop-color="#ffc444"  />
			<stop offset="0.996" stop-color="#f36f56"  />
		</linearGradient>
		<linearGradient id="grd47" gradientUnits="userSpaceOnUse"  x1="902.061" y1="1678.883" x2="970.301" y2="1503.667">
			<stop offset="0" stop-color="#311944"  />
			<stop offset="1" stop-color="#6b3976"  />
		</linearGradient>
		<linearGradient id="grd48" gradientUnits="userSpaceOnUse"  x1="909.163" y1="1555.186" x2="906.113" y2="1583.312">
			<stop offset="0" stop-color="#ffc444"  />
			<stop offset="1" stop-color="#f36f56"  />
		</linearGradient>
		<linearGradient id="grd49" gradientUnits="userSpaceOnUse"  x1="419.241" y1="1638.445" x2="751.397" y2="1638.445">
			<stop offset="0" stop-color="#aa80f9"  />
			<stop offset="0.996" stop-color="#6165d7"  />
		</linearGradient>
		<linearGradient id="grd50" gradientUnits="userSpaceOnUse"  x1="1129.484" y1="2396.236" x2="1100.935" y2="2145.634">
			<stop offset="0" stop-color="#ff9085"  />
			<stop offset="1" stop-color="#fb6fbb"  />
		</linearGradient>
		<linearGradient id="grd51" gradientUnits="userSpaceOnUse"  x1="745.607" y1="1865.477" x2="652.828" y2="2432.855">
			<stop offset="0" stop-color="#ffc444"  />
			<stop offset="0.996" stop-color="#f36f56"  />
		</linearGradient>
		<linearGradient id="grd52" gradientUnits="userSpaceOnUse"  x1="1129.649" y1="2397.511" x2="1101.045" y2="2146.432">
			<stop offset="0" stop-color="#ff9085"  />
			<stop offset="1" stop-color="#fb6fbb"  />
		</linearGradient>
		<linearGradient id="grd53" gradientUnits="userSpaceOnUse"  x1="2738.83" y1="1811.686" x2="2394.444" y2="2616.09">
			<stop offset="0" stop-color="#ff9085"  />
			<stop offset="1" stop-color="#fb6fbb"  />
		</linearGradient>
		<linearGradient id="grd54" gradientUnits="userSpaceOnUse"  x1="2735.538" y1="3026.979" x2="2755.863" y2="3392.828">
			<stop offset="0" stop-color="#444b8c"  />
			<stop offset="0.996" stop-color="#26264f"  />
		</linearGradient>
		<linearGradient id="grd55" gradientUnits="userSpaceOnUse"  x1="2709.411" y1="3206.222" x2="2698.908" y2="2725.689">
			<stop offset="0" stop-color="#ffc444"  />
			<stop offset="0.996" stop-color="#f36f56"  />
		</linearGradient>
		<linearGradient id="grd56" gradientUnits="userSpaceOnUse"  x1="3108.627" y1="3016.242" x2="3127.47" y2="3355.418">
			<stop offset="0" stop-color="#444b8c"  />
			<stop offset="0.996" stop-color="#26264f"  />
		</linearGradient>
		<linearGradient id="grd57" gradientUnits="userSpaceOnUse"  x1="3034.557" y1="3202.922" x2="3023.476" y2="2695.998">
			<stop offset="0" stop-color="#ffc444"  />
			<stop offset="0.996" stop-color="#f36f56"  />
		</linearGradient>
		<linearGradient id="grd58" gradientUnits="userSpaceOnUse"  x1="2342.181" y1="2680.553" x2="2537.95" y2="2417.81">
			<stop offset="0" stop-color="#ab316d"  />
			<stop offset="1" stop-color="#792d3d"  />
		</linearGradient>
		<linearGradient id="grd59" gradientUnits="userSpaceOnUse"  x1="2465.071" y1="2634.826" x2="2968.393" y2="2165.436">
			<stop offset="0" stop-color="#ab316d"  />
			<stop offset="1" stop-color="#792d3d"  />
		</linearGradient>
		<linearGradient id="grd60" gradientUnits="userSpaceOnUse"  x1="2703.485" y1="2259.43" x2="2590.506" y2="2029.024">
			<stop offset="0" stop-color="#444b8c"  />
			<stop offset="0.996" stop-color="#26264f"  />
		</linearGradient>
		<linearGradient id="grd61" gradientUnits="userSpaceOnUse"  x1="2447.705" y1="2700.697" x2="2616.067" y2="2474.738">
			<stop offset="0" stop-color="#ab316d"  />
			<stop offset="1" stop-color="#792d3d"  />
		</linearGradient>
		<linearGradient id="grd62" gradientUnits="userSpaceOnUse"  x1="2563.021" y1="1620.123" x2="3307.295" y2="1620.123">
			<stop offset="0" stop-color="#ff9085"  />
			<stop offset="1" stop-color="#fb6fbb"  />
		</linearGradient>
		<linearGradient id="grd63" gradientUnits="userSpaceOnUse"  x1="3164.154" y1="1586.029" x2="3285.309" y2="2326.945">
			<stop offset="0" stop-color="#ff9085"  />
			<stop offset="1" stop-color="#fb6fbb"  />
		</linearGradient>
		<linearGradient id="grd64" gradientUnits="userSpaceOnUse"  x1="2790.219" y1="1651.506" x2="3083.837" y2="1651.506">
			<stop offset="0" stop-color="#ff9085"  />
			<stop offset="1" stop-color="#fb6fbb"  />
		</linearGradient>
		<linearGradient id="grd65" gradientUnits="userSpaceOnUse"  x1="2624.993" y1="1651.291" x2="2659.129" y2="1456.226">
			<stop offset="0" stop-color="#ffc444"  />
			<stop offset="0.996" stop-color="#f36f56"  />
		</linearGradient>
		<linearGradient id="grd66" gradientUnits="userSpaceOnUse"  x1="2663.993" y1="1519.751" x2="2886.525" y2="1389.778">
			<stop offset="0" stop-color="#ffc444"  />
			<stop offset="0.996" stop-color="#f36f56"  />
		</linearGradient>
		<linearGradient id="grd67" gradientUnits="userSpaceOnUse"  x1="2794.823" y1="1841.087" x2="2881.662" y2="2372.142">
			<stop offset="0" stop-color="#ffc444"  />
			<stop offset="0.996" stop-color="#f36f56"  />
		</linearGradient>
		<linearGradient id="grd68" gradientUnits="userSpaceOnUse"  x1="2478.905" y1="3249.733" x2="2474.933" y2="2998.356">
			<stop offset="0" stop-color="#311944"  />
			<stop offset="1" stop-color="#893976"  />
		</linearGradient>
		<linearGradient id="grd69" gradientUnits="userSpaceOnUse"  x1="2479.594" y1="2782.055" x2="2515.634" y2="3233.738">
			<stop offset="0" stop-color="#ffc444"  />
			<stop offset="0.996" stop-color="#f36f56"  />
		</linearGradient>
		<linearGradient id="grd70" gradientUnits="userSpaceOnUse"  x1="2479.594" y1="2782.057" x2="2515.635" y2="3233.755">
			<stop offset="0" stop-color="#ffc444"  />
			<stop offset="0.996" stop-color="#f36f56"  />
		</linearGradient>
		<linearGradient id="grd71" gradientUnits="userSpaceOnUse"  x1="2397.528" y1="3266.554" x2="2393.555" y2="3015.177">
			<stop offset="0" stop-color="#311944"  />
			<stop offset="1" stop-color="#893976"  />
		</linearGradient>
		<linearGradient id="grd72" gradientUnits="userSpaceOnUse"  x1="2398.217" y1="2798.876" x2="2434.257" y2="3250.558">
			<stop offset="0" stop-color="#ffc444"  />
			<stop offset="0.996" stop-color="#f36f56"  />
		</linearGradient>
		<linearGradient id="grd73" gradientUnits="userSpaceOnUse"  x1="2398.217" y1="2798.878" x2="2434.258" y2="3250.576">
			<stop offset="0" stop-color="#ffc444"  />
			<stop offset="0.996" stop-color="#f36f56"  />
		</linearGradient>
		<linearGradient id="grd74" gradientUnits="userSpaceOnUse"  x1="2500.826" y1="2368.96" x2="2470.981" y2="2417.238">
			<stop offset="0" stop-color="#ffc444"  />
			<stop offset="0.996" stop-color="#f36f56"  />
		</linearGradient>
		<linearGradient id="grd75" gradientUnits="userSpaceOnUse"  x1="2418.438" y1="2308.889" x2="2733.324" y2="2745.489">
			<stop offset="0" stop-color="#ff9085"  />
			<stop offset="1" stop-color="#fb6fbb"  />
		</linearGradient>
		<linearGradient id="grd76" gradientUnits="userSpaceOnUse"  x1="2394.557" y1="2322.207" x2="2453.962" y2="2411.144">
			<stop offset="0" stop-color="#ffc444"  />
			<stop offset="0.996" stop-color="#f36f56"  />
		</linearGradient>
		<linearGradient id="grd77" gradientUnits="userSpaceOnUse"  x1="2361.491" y1="2387.742" x2="2565.904" y2="1950.961">
			<stop offset="0" stop-color="#444b8c"  />
			<stop offset="0.996" stop-color="#26264f"  />
		</linearGradient>
		<linearGradient id="grd78" gradientUnits="userSpaceOnUse"  x1="2251.994" y1="2663.995" x2="2307.852" y2="2694.447">
			<stop offset="0" stop-color="#ffc444"  />
			<stop offset="0.996" stop-color="#f36f56"  />
		</linearGradient>
	</defs>
	<style>
		tspan { white-space:pre }
		.shp0 { fill: #f4f7fa } 
		.shp1 { fill: url(#grd1) } 
		.shp2 { fill: url(#grd2) } 
		.shp3 { opacity: 0.502;mix-blend-mode: multiply;fill: url(#grd3) } 
		.shp4 { opacity: 0.302;mix-blend-mode: soft-light;fill: #ffffff } 
		.shp5 { fill: #ffffff } 
		.shp6 { fill: url(#grd4) } 
		.shp7 { fill: url(#grd5) } 
		.shp8 { fill: url(#grd6) } 
		.shp9 { fill: url(#grd7) } 
		.shp10 { fill: url(#grd8) } 
		.shp11 { fill: url(#grd9) } 
		.shp12 { fill: url(#grd10) } 
		.shp13 { fill: url(#grd11) } 
		.shp14 { fill: url(#grd12) } 
		.shp15 { fill: url(#grd13) } 
		.shp16 { opacity: 0.502;mix-blend-mode: soft-light;fill: #ffffff } 
		.shp17 { fill: url(#grd14) } 
		.shp18 { fill: url(#grd15) } 
		.shp19 { fill: url(#grd16) } 
		.shp20 { fill: #d8dee8 } 
		.shp21 { fill: #97a6b7 } 
		.shp22 { fill: #c2c9d3 } 
		.shp23 { fill: url(#grd17) } 
		.shp24 { fill: url(#grd18) } 
		.shp25 { fill: url(#grd19) } 
		.shp26 { fill: url(#grd20) } 
		.shp27 { fill: url(#grd21) } 
		.shp28 { fill: url(#grd22) } 
		.shp29 { fill: url(#grd23) } 
		.shp30 { fill: url(#grd24) } 
		.shp31 { fill: url(#grd25) } 
		.shp32 { fill: url(#grd26) } 
		.shp33 { fill: url(#grd27) } 
		.shp34 { fill: url(#grd28) } 
		.shp35 { fill: url(#grd29) } 
		.shp36 { fill: url(#grd30) } 
		.shp37 { opacity: 0.69;fill: url(#grd31) } 
		.shp38 { fill: url(#grd32) } 
		.shp39 { opacity: 0.502;mix-blend-mode: multiply;fill: #d8dee8 } 
		.shp40 { mix-blend-mode: soft-light;fill: #ffffff } 
		.shp41 { fill: url(#grd33) } 
		.shp42 { opacity: 0.149;mix-blend-mode: multiply;fill: url(#grd34) } 
		.shp43 { fill: url(#grd35) } 
		.shp44 { fill: url(#grd36) } 
		.shp45 { fill: url(#grd37) } 
		.shp46 { fill: url(#grd38) } 
		.shp47 { fill: url(#grd39) } 
		.shp48 { fill: url(#grd40) } 
		.shp49 { fill: url(#grd41) } 
		.shp50 { opacity: 0.149;mix-blend-mode: multiply;fill: url(#grd42) } 
		.shp51 { opacity: 0.302;mix-blend-mode: multiply;fill: url(#grd43) } 
		.shp52 { fill: url(#grd44) } 
		.shp53 { fill: url(#grd45) } 
		.shp54 { fill: url(#grd46) } 
		.shp55 { fill: url(#grd47) } 
		.shp56 { fill: url(#grd48) } 
		.shp57 { opacity: 0.302;mix-blend-mode: multiply;fill: url(#grd49) } 
		.shp58 { fill: url(#grd50) } 
		.shp59 { fill: url(#grd51) } 
		.shp60 { opacity: 0.302;mix-blend-mode: multiply;fill: url(#grd52) } 
		.shp61 { fill: url(#grd53) } 
		.shp62 { fill: url(#grd54) } 
		.shp63 { fill: url(#grd55) } 
		.shp64 { fill: url(#grd56) } 
		.shp65 { fill: url(#grd57) } 
		.shp66 { fill: url(#grd58) } 
		.shp67 { fill: url(#grd59) } 
		.shp68 { fill: url(#grd60) } 
		.shp69 { opacity: 0.302;mix-blend-mode: multiply;fill: url(#grd61) } 
		.shp70 { fill: url(#grd62) } 
		.shp71 { fill: url(#grd63) } 
		.shp72 { fill: url(#grd64) } 
		.shp73 { fill: url(#grd65) } 
		.shp74 { fill: url(#grd66) } 
		.shp75 { fill: url(#grd67) } 
		.shp76 { fill: url(#grd68) } 
		.shp77 { fill: url(#grd69) } 
		.shp78 { opacity: 0.302;mix-blend-mode: multiply;fill: url(#grd70) } 
		.shp79 { fill: url(#grd71) } 
		.shp80 { fill: url(#grd72) } 
		.shp81 { opacity: 0.302;mix-blend-mode: multiply;fill: url(#grd73) } 
		.shp82 { fill: url(#grd74) } 
		.shp83 { opacity: 0.302;mix-blend-mode: multiply;fill: url(#grd75) } 
		.shp84 { fill: url(#grd76) } 
		.shp85 { fill: url(#grd77) } 
		.shp86 { fill: url(#grd78) } 
	</style>
	<g id="Illustration">
		<g id="&lt;Group&gt;">
			<path id="&lt;Path&gt;" class="shp0" d="M3186.53 2418.48C3045.32 2794.23 2752.51 2991.41 2640.43 3057.95C2062.95 3400.78 1196.09 3295.96 752.98 2745.89C469.23 2393.65 465.53 1990.53 468.42 1875.72C484.1 1252.34 943.31 565.54 1620.41 467.12C2369.95 358.18 2884.66 1017.62 2934.61 1083.9C2995.07 1164.11 3432.35 1764.34 3186.53 2418.48Z" />
			<g id="&lt;Group&gt;">
				<g id="&lt;Group&gt;">
					<path id="&lt;Path&gt;" class="shp1" d="M1901.03 558.68L1857.23 542.42L1813.22 554.49C1530.13 632.13 1272.49 631.75 953.38 618.84C910.06 617.08 825.69 664.66 825.69 720.14L825.69 2600.01C825.69 2676.49 882.34 2740.08 964.24 2756.06L964.24 2756.06C1298.08 2821.22 1599.67 2931.61 1856.85 3097.43L1923.94 3103.51C2108.6 2896.21 2357.98 2742.18 2672.08 2641.39L2672.08 2641.39C2739.73 2617.4 2785.9 2553.73 2785.9 2484.88L2785.9 792.48C2785.9 757.68 2757.23 728.31 2721.73 726.87L2721.73 726.87C2450.69 715.91 2173.23 659.73 1901.03 558.68Z" />
					<path id="&lt;Path&gt;" class="shp2" d="M1972.53 520.75L1928.73 504.25L1884.72 516.5C1601.63 595.29 1294.88 629.92 975.77 616.81L975.77 616.81C932.45 615.03 897.19 645.39 897.19 684.61L897.19 2592.47C897.19 2670.09 953.84 2734.62 1035.74 2750.84L1035.75 2750.84C1369.58 2816.97 1671.56 2938.34 1928.73 3106.63L1928.73 3106.63L1928.73 3106.63C2178.99 2897.56 2456.21 2737.89 2743.58 2634.46L2743.58 2634.46C2811.23 2610.12 2857.4 2545.5 2857.4 2475.63L2857.4 758.03C2857.4 722.71 2828.73 692.91 2793.23 691.45L2793.23 691.45C2522.19 680.32 2244.73 623.3 1972.53 520.75Z" />
					<path id="&lt;Path&gt;" class="shp3" d="M2705.1 790.12C2450 772.32 2191.44 716.2 1935.47 621.33L1928.73 618.84L1921.98 620.75C1658.39 695.74 1376.55 733.87 1081.75 732.76C1049.22 732.64 1023.37 756.02 1023.37 785.63L1023.37 2584.95C1023.37 2611.62 1042.7 2633.95 1070.85 2639.69C1389.79 2704.8 1677.08 2816.57 1928.73 2970.72C2173.73 2779.86 2438.13 2634.58 2714.16 2536.91C2737.56 2528.63 2753.87 2505.97 2753.87 2481.8L2753.87 841.91C2753.87 814.92 2732.34 792.02 2705.1 790.12Z" />
					<path id="&lt;Path&gt;" class="shp4" d="M1928.73 2917.25C1680.01 2768.59 1397.11 2659.84 1084.9 2595.35C1078.12 2593.95 1073.39 2588.45 1073.39 2581.97L1073.39 787.26C1073.39 782.11 1077.82 778.09 1083.48 778.09C1379.87 778.52 1663.84 739.81 1928.73 664.66C2186.29 758.64 2447.05 814.27 2703.65 831.57C2708.4 831.89 2712.12 835.84 2712.12 840.55L2712.12 2484.29C2712.12 2490.13 2708.01 2495.81 2702.36 2497.8C2431.58 2592.96 2170.95 2733.54 1928.73 2917.25Z" />
					<g id="&lt;Group&gt;" style="opacity: 0.302;mix-blend-mode: soft-light">
						<path id="&lt;Path&gt;" class="shp5" d="M2010.41 1662.32C1855.39 1313.98 1565.2 1306.19 1441.98 1020.54C1400.11 923.49 1375.37 788.67 1422.66 603.37C1277.37 618.44 1127.99 623.06 975.77 616.81L975.77 616.81C932.45 615.03 897.19 645.39 897.19 684.61L897.19 2592.47C897.19 2670.09 953.84 2734.62 1035.74 2750.84L1035.75 2750.84C1369.58 2816.97 1671.56 2938.34 1928.73 3106.63L1928.73 3106.63L1928.73 3106.63C2061.62 2995.61 2202.24 2898.47 2348.01 2816.24C2190.01 2642.61 2119.09 2475.13 2086.94 2335.86C2020.93 2049.9 2126.63 1923.48 2010.41 1662.32Z" />
					</g>
				</g>
				<g id="&lt;Group&gt;">
					<path id="&lt;Path&gt;" class="shp5" d="M2383.72 1139.32L2383.72 1088.01L1935.02 1088.01L1935.02 1139.32C1935.02 1170.52 1925.31 1200.94 1907.25 1226.36C1867.89 1281.76 1846.75 1348.03 1846.75 1415.99L1846.75 2142.88C1846.75 2201.2 1986.71 2248.48 2159.37 2248.48C2332.03 2248.48 2471.99 2201.2 2471.99 2142.88L2471.99 1415.99C2471.99 1348.03 2450.85 1281.76 2411.49 1226.36C2393.43 1200.94 2383.72 1170.52 2383.72 1139.32Z" />
					<path id="&lt;Path&gt;" class="shp6" d="M1880.73 1320.08C1870.7 1350.77 1865.52 1383.03 1865.52 1415.98L1865.52 2142.88C1865.52 2157.51 1886.22 2180.14 1944.32 2199.77C2001.48 2219.08 2077.86 2229.71 2159.37 2229.71C2240.88 2229.71 2317.26 2219.08 2374.42 2199.77C2432.52 2180.14 2453.22 2157.51 2453.22 2142.88L2453.22 1415.98C2453.22 1383.03 2448.04 1350.77 2438.01 1320.08L1880.73 1320.08Z" />
					<path id="&lt;Path&gt;" class="shp7" d="M2436.71 1320.08C2436.71 1351.82 2312.54 1377.55 2159.37 1377.55C2006.2 1377.55 1882.03 1351.82 1882.03 1320.08C1882.03 1288.34 2006.2 1262.61 2159.37 1262.61C2312.54 1262.61 2436.71 1288.34 2436.71 1320.08Z" />
					<g id="&lt;Group&gt;">
						<path id="&lt;Path&gt;" class="shp8" d="M2159.37 1530.11C2012.12 1530.11 1887.62 1501.72 1846.75 1462.7L1846.75 1730.26C1887.62 1769.28 2012.12 1797.67 2159.37 1797.67C2306.62 1797.67 2431.12 1769.28 2471.99 1730.26L2471.99 1462.7C2431.12 1501.72 2306.62 1530.11 2159.37 1530.11Z" />
					</g>
					<g id="&lt;Group&gt;" style="opacity: 0.302;mix-blend-mode: multiply">
						<path id="&lt;Compound Path&gt;" class="shp9" d="M1949.91 1688.3C1941.19 1659.31 1932.49 1630.22 1923.81 1601.03C1930.52 1602.42 1937.25 1603.75 1943.98 1605.02C1947.29 1617.23 1950.6 1629.42 1953.91 1641.59C1956.69 1651.85 1959.24 1661.68 1961.18 1672.26C1961.3 1672.28 1961.42 1672.3 1961.54 1672.32C1963.6 1662.8 1966.15 1653.48 1968.94 1644.56C1972.41 1633.43 1975.89 1622.28 1979.38 1611.12C1985.93 1612.15 1992.5 1613.12 1999.07 1614.03C1989.86 1640.15 1980.67 1666.15 1971.48 1692.04C1964.28 1690.86 1957.09 1689.61 1949.91 1688.3Z" />
						<path id="&lt;Compound Path&gt;" fill-rule="evenodd" class="shp10" d="M2020.39 1677.87C2018.44 1684.67 2016.49 1691.46 2014.54 1698.25C2008.12 1697.44 2001.71 1696.59 1995.3 1695.68C2003.65 1669.47 2012.02 1643.18 2020.39 1616.79C2028.51 1617.76 2036.65 1618.65 2044.79 1619.45C2053.3 1647.68 2061.81 1675.81 2070.33 1703.85C2063.65 1703.34 2056.96 1702.78 2050.29 1702.15C2048.17 1694.92 2046.05 1687.69 2043.94 1680.45C2036.08 1679.67 2028.23 1678.81 2020.39 1677.87ZM2041.25 1666.28C2039.54 1660.3 2037.83 1654.31 2036.12 1648.31C2034.66 1643.28 2033.19 1637.03 2031.97 1632.02C2031.89 1632.01 2031.81 1632 2031.73 1631.99C2030.51 1636.73 2029.29 1642.82 2027.95 1647.42C2026.32 1653.05 2024.7 1658.67 2023.07 1664.29C2029.13 1665 2035.19 1665.67 2041.25 1666.28Z" />
						<path id="&lt;Compound Path&gt;" class="shp11" d="M2138.91 1704.69C2135.48 1706.34 2127.76 1708.04 2117.71 1707.69C2089.17 1706.64 2074.5 1687.64 2074.5 1664.29C2074.5 1636.23 2094.55 1622.2 2119.55 1623.01C2129.23 1623.33 2136.58 1625.4 2139.89 1627.16C2138.62 1632.06 2137.36 1636.96 2136.09 1641.85C2132.29 1640.19 2127.02 1638.62 2120.41 1638.4C2105.59 1637.93 2094.08 1646.15 2094.08 1664.44C2094.07 1680.88 2103.87 1691.87 2120.53 1692.42C2126.17 1692.6 2132.41 1691.53 2136.09 1690.13C2137.03 1694.99 2137.97 1699.84 2138.91 1704.69Z" />
						<path id="&lt;Compound Path&gt;" class="shp12" d="M2208.15 1703.73C2204.72 1705.59 2197 1707.75 2186.95 1708C2158.4 1708.67 2143.69 1690.56 2143.69 1667.21C2143.69 1639.15 2163.79 1623.91 2188.79 1623.22C2198.47 1622.96 2205.82 1624.59 2209.13 1626.15C2207.86 1631.12 2206.59 1636.09 2205.33 1641.06C2201.53 1639.64 2196.26 1638.37 2189.65 1638.56C2174.82 1638.97 2163.3 1647.88 2163.3 1666.18C2163.3 1682.62 2173.11 1693.02 2189.77 1692.57C2195.41 1692.41 2201.66 1690.96 2205.33 1689.34C2206.27 1694.14 2207.21 1698.94 2208.15 1703.73Z" />
						<path id="&lt;Compound Path&gt;" class="shp13" d="M2239.12 1622.1C2239.12 1649.49 2239.12 1676.88 2239.12 1704.27C2232.88 1704.72 2226.64 1705.11 2220.39 1705.45C2220.39 1678.06 2220.39 1650.66 2220.39 1623.27C2226.64 1622.93 2232.88 1622.54 2239.12 1622.1Z" />
						<path id="&lt;Compound Path&gt;" class="shp14" d="M2255.26 1703.01C2255.26 1675.62 2255.26 1648.23 2255.26 1620.84C2262.51 1620.22 2269.76 1619.54 2277 1618.78C2282.7 1628.23 2288.39 1637.63 2294.08 1646.99C2298.96 1655.07 2303.83 1664.69 2307.48 1673.48C2307.61 1673.46 2307.73 1673.45 2307.85 1673.43C2306.63 1662.74 2306.26 1651.69 2306.27 1639.38C2306.27 1631.37 2306.27 1623.36 2306.27 1615.36C2311.95 1614.62 2317.63 1613.84 2323.3 1613.01C2323.3 1640.4 2323.3 1667.8 2323.3 1695.19C2316.82 1696.13 2310.33 1697.02 2303.83 1697.85C2297.98 1688.03 2292.13 1678.16 2286.28 1668.26C2281.39 1660.03 2276.03 1649.98 2272 1640.75C2271.88 1640.8 2271.75 1640.86 2271.63 1640.91C2272.12 1651.71 2272.37 1663.27 2272.36 1676.68C2272.36 1684.93 2272.36 1693.18 2272.36 1701.43C2266.67 1702 2260.96 1702.53 2255.26 1703.01Z" />
						<path id="&lt;Compound Path&gt;" class="shp15" d="M2387.89 1649.18C2377.92 1651.21 2367.92 1653.11 2357.9 1654.88C2357.9 1661.38 2357.9 1667.88 2357.9 1674.39C2369.09 1672.41 2380.25 1670.27 2391.39 1667.96C2391.39 1673.04 2391.39 1678.12 2391.39 1683.2C2374.1 1686.79 2356.75 1689.97 2339.35 1692.74C2339.35 1665.35 2339.35 1637.96 2339.35 1610.57C2356.18 1607.88 2372.97 1604.82 2389.7 1601.38C2389.7 1606.46 2389.7 1611.54 2389.7 1616.62C2379.13 1618.79 2368.52 1620.82 2357.9 1622.69C2357.9 1628.38 2357.9 1634.07 2357.9 1639.76C2367.92 1637.99 2377.92 1636.09 2387.89 1634.06C2387.89 1639.1 2387.89 1644.14 2387.89 1649.18Z" />
					</g>
					<path id="&lt;Path&gt;" class="shp16" d="M2362.55 2147.87C2328.82 2087.28 2361.68 2054.65 2337.21 1959.2C2299.26 1811.14 2199.77 1809.94 2176.7 1683.23C2156.27 1571.01 2229.04 1543.01 2202.04 1438.24C2173.7 1328.25 2082.44 1316.28 2049.98 1227.04C2037.42 1192.51 2034.07 1147.5 2053.37 1088.01L1935.02 1088.01L1935.02 1139.32C1935.02 1170.52 1925.31 1200.94 1907.25 1226.36C1867.89 1281.76 1846.75 1348.03 1846.75 1415.98L1846.75 2142.88C1846.75 2201.2 1986.71 2248.48 2159.37 2248.48C2264.08 2248.48 2356.75 2231.09 2413.49 2204.39C2392.88 2189.27 2375.28 2170.71 2362.55 2147.87Z" />
					<g id="&lt;Group&gt;">
						<path id="&lt;Path&gt;" class="shp17" d="M2436.71 1095.32C2436.71 1127.06 2312.54 1152.78 2159.37 1152.78C2006.2 1152.78 1882.03 1127.06 1882.03 1095.32C1882.03 1063.58 2006.2 1037.85 2159.37 1037.85C2312.54 1037.85 2436.71 1063.58 2436.71 1095.32Z" />
						<path id="&lt;Path&gt;" class="shp18" d="M2436.71 1095.32L1882.03 1095.32L1882.03 980.39L2436.71 980.39L2436.71 1095.32Z" />
						<path id="&lt;Path&gt;" class="shp19" d="M2436.71 980.59C2436.71 1018.65 2312.54 1049.5 2159.37 1049.5C2006.2 1049.5 1882.03 1018.65 1882.03 980.59C1882.03 942.53 2006.2 911.68 2159.37 911.68C2312.54 911.68 2436.71 942.53 2436.71 980.59Z" />
						<path id="&lt;Path&gt;" class="shp20" d="M2419.7 965.62C2419.7 995.41 2303.15 1019.56 2159.37 1019.56C2015.59 1019.56 1899.04 995.41 1899.04 965.62C1899.04 935.83 2015.59 911.68 2159.37 911.68C2303.15 911.68 2419.7 935.83 2419.7 965.62Z" />
						<g id="&lt;Group&gt;">
							<path id="&lt;Path&gt;" class="shp21" d="M2296.02 954.49C2296.02 970.12 2234.84 982.8 2159.37 982.8C2083.9 982.8 2022.72 970.12 2022.72 954.49C2022.72 938.85 2083.9 926.17 2159.37 926.17C2234.84 926.17 2296.02 938.85 2296.02 954.49Z" />
							<path id="&lt;Path&gt;" class="shp22" d="M2159.37 934.69C2227.85 934.69 2284.55 945.13 2294.47 958.75C2295.48 957.36 2296.02 955.94 2296.02 954.49C2296.02 938.85 2234.84 926.17 2159.37 926.17C2083.9 926.17 2022.72 938.85 2022.72 954.49C2022.72 955.94 2023.26 957.36 2024.27 958.75C2034.18 945.13 2090.89 934.69 2159.37 934.69Z" />
						</g>
					</g>
				</g>
				<g id="&lt;Group&gt;">
					<path id="&lt;Path&gt;" class="shp5" d="M1793.76 1356.91L1793.76 1305.6L1345.06 1305.6L1345.06 1356.91C1345.06 1388.11 1335.36 1418.53 1317.29 1443.96C1277.94 1499.35 1256.79 1565.62 1256.79 1633.58L1256.79 2360.47C1256.79 2418.79 1396.76 2466.08 1569.41 2466.08C1742.07 2466.08 1882.03 2418.79 1882.03 2360.47L1882.03 1633.58C1882.03 1565.62 1860.89 1499.35 1821.53 1443.96C1803.47 1418.53 1793.76 1388.11 1793.76 1356.91Z" />
					<path id="&lt;Path&gt;" class="shp23" d="M1290.77 1537.67C1280.74 1568.36 1275.57 1600.63 1275.57 1633.58L1275.57 2360.47C1275.57 2375.1 1296.27 2397.73 1354.36 2417.36C1411.53 2436.67 1487.9 2447.3 1569.41 2447.3C1650.93 2447.3 1727.3 2436.67 1784.46 2417.36C1842.56 2397.73 1863.26 2375.1 1863.26 2360.47L1863.26 1633.58C1863.26 1600.63 1858.09 1568.36 1848.05 1537.67L1290.77 1537.67Z" />
					<path id="&lt;Path&gt;" class="shp24" d="M1846.75 1537.67C1846.75 1569.41 1722.58 1595.14 1569.41 1595.14C1416.24 1595.14 1292.08 1569.41 1292.08 1537.67C1292.08 1505.93 1416.24 1480.21 1569.41 1480.21C1722.58 1480.21 1846.75 1505.93 1846.75 1537.67Z" />
					<g id="&lt;Group&gt;">
						<path id="&lt;Path&gt;" class="shp25" d="M1569.41 1747.7C1422.16 1747.7 1297.67 1719.31 1256.79 1680.29L1256.79 1947.85C1297.67 1986.88 1422.16 2015.26 1569.41 2015.26C1716.66 2015.26 1841.16 1986.88 1882.03 1947.85L1882.03 1680.29C1841.16 1719.31 1716.66 1747.7 1569.41 1747.7Z" />
					</g>
					<g id="&lt;Group&gt;" style="opacity: 0.302;mix-blend-mode: multiply">
						<path id="&lt;Compound Path&gt;" class="shp26" d="M1359.95 1905.89C1351.24 1876.9 1342.54 1847.81 1333.85 1818.62C1340.57 1820.01 1347.29 1821.34 1354.02 1822.61C1357.33 1834.82 1360.64 1847.01 1363.95 1859.19C1366.73 1869.44 1369.28 1879.27 1371.22 1889.85C1371.34 1889.87 1371.46 1889.89 1371.58 1889.91C1373.64 1880.39 1376.19 1871.07 1378.98 1862.15C1382.46 1851.02 1385.94 1839.88 1389.42 1828.72C1395.98 1829.74 1402.54 1830.71 1409.11 1831.62C1399.9 1857.74 1390.71 1883.74 1381.53 1909.63C1374.33 1908.45 1367.13 1907.2 1359.95 1905.89Z" />
						<path id="&lt;Compound Path&gt;" fill-rule="evenodd" class="shp27" d="M1430.43 1895.46C1428.48 1902.26 1426.53 1909.05 1424.58 1915.84C1418.16 1915.04 1411.75 1914.18 1405.34 1913.27C1413.7 1887.07 1422.06 1860.77 1430.43 1834.38C1438.56 1835.35 1446.69 1836.24 1454.83 1837.04C1463.34 1865.27 1471.85 1893.4 1480.38 1921.44C1473.69 1920.94 1467.01 1920.37 1460.33 1919.74C1458.21 1912.52 1456.1 1905.28 1453.98 1898.04C1446.12 1897.26 1438.27 1896.4 1430.43 1895.46ZM1451.29 1883.87C1449.58 1877.89 1447.88 1871.9 1446.16 1865.91C1444.7 1860.87 1443.24 1854.62 1442.02 1849.61C1441.93 1849.6 1441.85 1849.59 1441.77 1849.58C1440.55 1854.33 1439.33 1860.41 1437.99 1865.01C1436.36 1870.64 1434.74 1876.26 1433.11 1881.88C1439.17 1882.59 1445.23 1883.26 1451.29 1883.87Z" />
						<path id="&lt;Compound Path&gt;" class="shp28" d="M1548.95 1922.28C1545.52 1923.93 1537.8 1925.63 1527.75 1925.28C1499.21 1924.24 1484.54 1905.23 1484.54 1881.88C1484.54 1853.82 1504.6 1839.79 1529.59 1840.61C1539.27 1840.92 1546.62 1843 1549.93 1844.75C1548.67 1849.65 1547.4 1854.55 1546.13 1859.44C1542.33 1857.79 1537.07 1856.21 1530.45 1856C1515.63 1855.52 1504.12 1863.74 1504.12 1882.03C1504.12 1898.47 1513.91 1909.46 1530.57 1910.01C1536.21 1910.19 1542.46 1909.12 1546.13 1907.72C1547.07 1912.58 1548.01 1917.43 1548.95 1922.28Z" />
						<path id="&lt;Compound Path&gt;" class="shp29" d="M1618.19 1921.32C1614.76 1923.18 1607.04 1925.34 1597 1925.6C1568.44 1926.26 1553.73 1908.15 1553.73 1884.8C1553.73 1856.74 1573.83 1841.5 1598.83 1840.81C1608.51 1840.55 1615.86 1842.18 1619.17 1843.74C1617.9 1848.71 1616.64 1853.68 1615.37 1858.66C1611.58 1857.23 1606.31 1855.97 1599.69 1856.15C1584.87 1856.57 1573.34 1865.47 1573.34 1883.77C1573.34 1900.21 1583.15 1910.61 1599.81 1910.16C1605.45 1910 1611.7 1908.56 1615.37 1906.94C1616.31 1911.73 1617.25 1916.53 1618.19 1921.32Z" />
						<path id="&lt;Compound Path&gt;" class="shp30" d="M1649.16 1839.69C1649.16 1867.08 1649.16 1894.47 1649.16 1921.86C1642.92 1922.31 1636.68 1922.7 1630.44 1923.04C1630.44 1895.65 1630.44 1868.26 1630.44 1840.86C1636.68 1840.52 1642.92 1840.13 1649.16 1839.69Z" />
						<path id="&lt;Compound Path&gt;" class="shp31" d="M1665.3 1920.61C1665.3 1893.21 1665.3 1865.82 1665.3 1838.43C1672.56 1837.81 1679.8 1837.13 1687.05 1836.38C1692.74 1845.82 1698.43 1855.22 1704.12 1864.58C1709 1872.66 1713.87 1882.28 1717.53 1891.07C1717.65 1891.05 1717.77 1891.04 1717.89 1891.02C1716.68 1880.33 1716.31 1869.28 1716.31 1856.97C1716.31 1848.96 1716.31 1840.96 1716.31 1832.95C1721.99 1832.21 1727.67 1831.43 1733.35 1830.6C1733.35 1858 1733.35 1885.39 1733.35 1912.78C1726.86 1913.72 1720.37 1914.61 1713.87 1915.44C1708.03 1905.62 1702.17 1895.76 1696.32 1885.85C1691.44 1877.62 1686.07 1867.58 1682.04 1858.34C1681.92 1858.4 1681.8 1858.45 1681.67 1858.5C1682.16 1869.3 1682.41 1880.86 1682.41 1894.27C1682.41 1902.52 1682.41 1910.77 1682.41 1919.02C1676.71 1919.59 1671.01 1920.12 1665.3 1920.61Z" />
						<path id="&lt;Compound Path&gt;" class="shp32" d="M1797.94 1866.77C1787.96 1868.8 1777.96 1870.7 1767.94 1872.47C1767.94 1878.97 1767.94 1885.47 1767.94 1891.98C1779.13 1890 1790.3 1887.86 1801.44 1885.56C1801.44 1890.64 1801.44 1895.72 1801.44 1900.8C1784.14 1904.38 1766.79 1907.56 1749.39 1910.33C1749.39 1882.94 1749.39 1855.55 1749.39 1828.16C1766.22 1825.47 1783.01 1822.41 1799.75 1818.97C1799.75 1824.05 1799.75 1829.13 1799.75 1834.21C1789.17 1836.38 1778.57 1838.41 1767.94 1840.28C1767.94 1845.97 1767.94 1851.66 1767.94 1857.35C1777.96 1855.58 1787.96 1853.68 1797.94 1851.65C1797.94 1856.69 1797.94 1861.73 1797.94 1866.77Z" />
					</g>
					<path id="&lt;Path&gt;" class="shp16" d="M1772.6 2365.46C1738.86 2304.88 1771.72 2272.24 1747.25 2176.79C1709.3 2028.73 1609.81 2027.53 1586.74 1900.82C1566.31 1788.6 1639.09 1760.6 1612.09 1655.83C1583.74 1545.84 1492.48 1533.87 1460.02 1444.64C1447.46 1410.1 1444.11 1365.09 1463.41 1305.6L1345.06 1305.6L1345.06 1356.91C1345.06 1388.11 1335.36 1418.53 1317.29 1443.96C1277.94 1499.35 1256.79 1565.62 1256.79 1633.58L1256.79 2360.47C1256.79 2418.79 1396.76 2466.08 1569.41 2466.08C1674.12 2466.08 1766.8 2448.68 1823.53 2421.99C1802.92 2406.86 1785.32 2388.3 1772.6 2365.46Z" />
					<g id="&lt;Group&gt;">
						<path id="&lt;Path&gt;" class="shp33" d="M1846.75 1312.91C1846.75 1344.65 1722.58 1370.38 1569.41 1370.38C1416.24 1370.38 1292.08 1344.65 1292.08 1312.91C1292.08 1281.17 1416.24 1255.44 1569.41 1255.44C1722.58 1255.44 1846.75 1281.17 1846.75 1312.91Z" />
						<path id="&lt;Path&gt;" class="shp34" d="M1846.75 1312.91L1292.08 1312.91L1292.08 1197.98L1846.75 1197.98L1846.75 1312.91Z" />
						<path id="&lt;Path&gt;" class="shp35" d="M1846.75 1198.18C1846.75 1236.24 1722.58 1267.09 1569.41 1267.09C1416.24 1267.09 1292.08 1236.24 1292.08 1198.18C1292.08 1160.12 1416.24 1129.27 1569.41 1129.27C1722.58 1129.27 1846.75 1160.12 1846.75 1198.18Z" />
						<path id="&lt;Path&gt;" class="shp20" d="M1829.74 1183.21C1829.74 1213 1713.19 1237.15 1569.41 1237.15C1425.64 1237.15 1309.08 1213 1309.08 1183.21C1309.08 1153.42 1425.64 1129.27 1569.41 1129.27C1713.19 1129.27 1829.74 1153.42 1829.74 1183.21Z" />
						<g id="&lt;Group&gt;">
							<path id="&lt;Path&gt;" class="shp21" d="M1706.06 1172.08C1706.06 1187.72 1644.88 1200.39 1569.41 1200.39C1493.94 1200.39 1432.77 1187.72 1432.77 1172.08C1432.77 1156.44 1493.94 1143.76 1569.41 1143.76C1644.88 1143.76 1706.06 1156.44 1706.06 1172.08Z" />
							<path id="&lt;Path&gt;" class="shp22" d="M1569.41 1152.28C1637.89 1152.28 1694.6 1162.72 1704.51 1176.34C1705.53 1174.95 1706.06 1173.53 1706.06 1172.08C1706.06 1156.44 1644.88 1143.76 1569.41 1143.76C1493.94 1143.76 1432.77 1156.44 1432.77 1172.08C1432.77 1173.53 1433.3 1174.95 1434.31 1176.34C1444.23 1162.72 1500.93 1152.28 1569.41 1152.28Z" />
						</g>
					</g>
				</g>
				<g id="&lt;Group&gt;">
					<path id="&lt;Path&gt;" class="shp5" d="M2752.84 2292.47C2760.77 2372.22 2724.11 2441.16 2670.94 2446.45C2617.78 2451.74 2568.24 2391.38 2560.3 2311.63C2552.36 2231.88 2589.03 2162.94 2642.2 2157.65C2695.36 2152.36 2744.9 2212.72 2752.84 2292.47Z" />
					<path id="&lt;Path&gt;" class="shp22" d="M2739.16 2293.83C2747.1 2373.58 2710.43 2442.52 2657.26 2447.81C2604.1 2453.1 2554.56 2392.74 2546.62 2312.99C2538.69 2233.25 2575.35 2164.31 2628.52 2159.01C2681.68 2153.72 2731.22 2214.08 2739.16 2293.83Z" />
					<path id="&lt;Path&gt;" class="shp5" d="M2655.16 2312.76L2155.76 2362.47C2151.48 2362.89 2147.67 2359.77 2147.24 2355.49L2146.7 2350.06C2146.27 2345.78 2149.4 2341.97 2153.67 2341.54L2653.08 2291.83C2657.35 2291.41 2661.17 2294.53 2661.59 2298.81L2662.13 2304.24C2662.56 2308.52 2659.44 2312.33 2655.16 2312.76Z" />
					<path id="&lt;Path&gt;" class="shp16" d="M2359.04 2331.67C2366.6 2407.66 2331.66 2473.35 2281 2478.4C2230.34 2483.44 2183.14 2425.92 2175.57 2349.93C2168.01 2273.93 2202.95 2208.24 2253.61 2203.2C2304.27 2198.16 2351.47 2255.67 2359.04 2331.67Z" />
					<path id="&lt;Path&gt;" class="shp36" d="M2244.98 2343.02C2252.11 2414.68 2219.17 2476.62 2171.4 2481.38C2123.62 2486.13 2079.11 2431.9 2071.98 2360.24C2064.85 2288.58 2097.79 2226.63 2145.57 2221.88C2193.34 2217.12 2237.85 2271.36 2244.98 2343.02Z" />
					<path id="&lt;Path&gt;" class="shp37" d="M2252.93 2196.4L1415.83 2279.72C1362.66 2285.01 1326 2353.95 1333.94 2433.7C1341.87 2513.45 1391.41 2573.81 1444.58 2568.52L2281.68 2485.2C2334.84 2479.91 2371.51 2410.96 2363.57 2331.22C2355.63 2251.47 2306.1 2191.11 2252.93 2196.4Z" />
					<path id="&lt;Path&gt;" class="shp38" d="M1443.53 2558.06C1421.43 2560.25 1399.02 2548.99 1380.42 2526.33C1360.83 2502.45 1348.04 2469.19 1344.4 2432.66C1340.76 2396.13 1346.75 2361 1361.25 2333.73C1375.02 2307.85 1394.77 2292.38 1416.87 2290.18L2138.87 2218.32C2160.97 2216.12 2183.39 2227.38 2201.98 2250.04C2221.58 2273.92 2234.37 2307.19 2238 2343.71C2241.64 2380.24 2235.66 2415.38 2221.15 2442.65C2207.39 2468.53 2187.64 2483.99 2165.53 2486.19L1443.53 2558.06Z" />
					<path id="&lt;Path&gt;" class="shp16" d="M1526.47 2414.54C1534.41 2494.29 1497.74 2563.23 1444.58 2568.52C1391.41 2573.81 1341.87 2513.45 1333.94 2433.7C1326 2353.95 1362.66 2285.01 1415.83 2279.72C1469 2274.43 1518.53 2334.79 1526.47 2414.54Z" />
					<path id="&lt;Path&gt;" class="shp16" d="M2252.93 2196.4L1458.64 2275.46C1497.29 2296.06 1528.1 2347.53 1535.2 2410.5C1582.04 2400.93 1619.39 2371.06 1699.64 2370.53C1807.15 2369.82 1812.44 2422.96 1912.02 2423.36C2033.13 2423.85 2064.13 2345.39 2178.24 2337.69C2221.34 2334.77 2283.26 2341.49 2361.63 2387.96C2364.76 2370.26 2365.55 2351.07 2363.57 2331.22C2355.63 2251.47 2306.1 2191.11 2252.93 2196.4Z" />
					<path id="&lt;Path&gt;" class="shp5" d="M1418.17 2420.03L884.53 2473.15C881.64 2473.44 879.53 2476.01 879.82 2478.9C880.1 2481.79 882.68 2483.9 885.57 2483.61L1419.21 2430.5C1422.1 2430.21 1424.21 2427.63 1423.92 2424.74C1423.64 2421.85 1421.06 2419.75 1418.17 2420.03Z" />
					<path id="&lt;Path&gt;" class="shp20" d="M1452.01 2421.95C1454.33 2445.22 1443.63 2465.33 1428.12 2466.87C1412.61 2468.42 1398.16 2450.81 1395.84 2427.54C1393.52 2404.27 1404.22 2384.16 1419.73 2382.62C1435.24 2381.07 1449.69 2398.68 1452.01 2421.95Z" />
					<path id="&lt;Path&gt;" class="shp39" d="M1445.9 2422.56C1447.88 2442.49 1438.72 2459.73 1425.42 2461.05C1412.13 2462.38 1399.75 2447.29 1397.77 2427.35C1395.78 2407.41 1404.95 2390.18 1418.24 2388.85C1431.53 2387.53 1443.91 2402.62 1445.9 2422.56Z" />
					<path id="&lt;Path&gt;" class="shp20" d="M1413.04 2445.21L1294.24 2457.04C1287.17 2457.74 1280.87 2452.58 1280.17 2445.51L1279.12 2435.01C1278.42 2427.94 1283.58 2421.64 1290.65 2420.94L1409.44 2409.11C1416.51 2408.41 1422.81 2413.57 1423.52 2420.64L1424.56 2431.14C1425.26 2438.21 1420.11 2444.51 1413.04 2445.21Z" />
					<path id="&lt;Path&gt;" class="shp40" d="M1397.13 2416.84L1303.22 2426.19C1294.57 2427.05 1287.92 2431.26 1288.35 2435.6L1288.35 2435.6C1288.78 2439.93 1296.14 2442.75 1304.78 2441.89L1398.69 2432.54C1407.34 2431.68 1414 2427.47 1413.56 2423.13C1413.13 2418.8 1405.78 2415.98 1397.13 2416.84Z" />
				</g>
			</g>
			<g id="&lt;Group&gt;">
				<path id="&lt;Path&gt;" class="shp41" d="M1466.16 1913.22C1471.79 1891.11 1479.31 1877.13 1488.69 1871.29C1502.76 1862.54 1522.65 1853.18 1527.21 1849.33C1531.77 1845.49 1537.1 1856.98 1523.96 1865.78C1515.2 1871.65 1510.83 1874.58 1510.83 1874.58C1510.55 1877.01 1510.92 1878.89 1511.37 1880.22C1513.45 1886.45 1520.54 1890.72 1529.32 1891.53C1563.02 1898.58 1576.18 1898.93 1581.32 1897.42C1582.08 1897.2 1585.02 1896.25 1586.25 1897.55C1588.24 1899.64 1584.67 1906.26 1583.15 1908.58C1574.03 1922.51 1542.38 1928.56 1518.69 1917.67C1510.03 1913.7 1506.72 1909.42 1500.4 1910.5C1490.37 1912.2 1484.21 1925.43 1480.57 1936.38L1466.16 1913.22Z" />
				<path id="&lt;Path&gt;" class="shp5" d="M1493.34 1923.74C1483.74 1915.21 1474.14 1906.68 1464.55 1898.15C1461.04 1901.7 1409.81 1951.69 1338.2 1936.53C1288.89 1926.1 1260.45 1885.61 1242.23 1859.76C1187.52 1782.13 1220.24 1725.17 1161.33 1672.42C1144.96 1657.77 1112.87 1640.03 1091.89 1645.44C1041.9 1658.33 1013.11 1808.68 1061.5 1926.94C1071.27 1950.81 1125.04 2082.23 1247.03 2096.47C1345.53 2107.97 1449.97 2038.57 1493.34 1923.74Z" />
				<path id="&lt;Path&gt;" class="shp42" d="M1103.08 1789.39C1193.24 1860.6 1183.21 1997.18 1238.63 2004.11C1255.56 2006.22 1254.63 1993.24 1295.01 1980.12C1354.07 1960.92 1381.82 1980.31 1423.36 1965.72C1440.57 1959.68 1462.95 1946.77 1484.99 1916.32C1487.78 1918.8 1490.56 1921.27 1493.34 1923.74C1449.97 2038.57 1345.53 2107.97 1247.03 2096.47C1125.04 2082.23 1071.27 1950.81 1061.5 1926.94C1038.8 1871.45 1033.08 1808.9 1038.58 1756.79C1059.39 1762.87 1082 1772.73 1103.08 1789.39Z" />
				<path id="&lt;Path&gt;" class="shp43" d="M817.9 3182.09C812.64 3186.36 811.67 3197.04 811.04 3204.02C810.76 3207.14 810.62 3208.69 810.96 3209.8C813.51 3217.83 829.08 3218.67 853.51 3221.17C892.11 3225.11 903.6 3228.15 906.62 3222.41C909.45 3217.02 902.6 3208.21 901.83 3207.24C897.68 3202.01 892.59 3200.11 882.75 3196.87C864.53 3190.88 852.23 3187.6 848.5 3186.6C825.24 3180.39 821.35 3179.28 817.9 3182.09Z" />
				<path id="&lt;Path&gt;" class="shp44" d="M840.85 3146.82L844.72 3190.81C843.62 3192.93 830.55 3199.31 820.16 3193.84L810.24 3150.6L840.85 3146.82Z" />
				<path id="&lt;Path&gt;" class="shp45" d="M1155.35 3162.63C1149.05 3169.6 1147.61 3182.41 1153.09 3188.73C1158.48 3194.94 1166.58 3190.28 1189.56 3190.97C1214.17 3191.7 1220.6 3197.52 1237.33 3192.9C1244.08 3191.03 1256.02 3186.5 1255.79 3181.68C1255.63 3178.28 1249.56 3176.53 1229.26 3169.73C1200.46 3160.09 1200.59 3159.56 1194.47 3158.54C1179.1 3156 1163.68 3153.44 1155.35 3162.63Z" />
				<path id="&lt;Path&gt;" class="shp46" d="M1171.12 3122.49L1183.47 3163.55C1182.53 3165.76 1169.98 3173.11 1159.21 3168.45L1140.88 3128.59L1171.12 3122.49Z" />
				<path id="&lt;Path&gt;" class="shp47" d="M1061.43 2223.11C1063.2 2361.12 1072.62 2516.29 1095.22 2684.88C1117.55 2851.5 1148.85 3002.06 1182.99 3134.44C1167.24 3138.68 1151.49 3142.92 1135.74 3147.16C1095.78 3109.9 1045.37 3051.24 1021.04 2968.35C1005.95 2916.91 1010.98 2890.47 1001.4 2827.2C986.15 2726.44 955.27 2673.66 923.35 2592.41C894.67 2519.41 860.76 2412.26 842.58 2269.04C915.53 2253.73 988.48 2238.42 1061.43 2223.11Z" />
				<path id="&lt;Path&gt;" class="shp48" d="M887.94 2223.74C878.3 2399.27 870.37 2578.06 864.36 2760.01C859.85 2896.55 856.54 3031.36 854.34 3164.4C838.25 3166.38 822.16 3168.37 806.07 3170.36C790.52 3141.41 769.88 3097.16 755.73 3040.44C738.55 2971.55 742.53 2930.64 734.99 2859.25C726.54 2779.17 714.26 2761.73 692.51 2660.71C648.36 2455.71 626.29 2353.2 675.53 2289.44C691.52 2268.74 741.64 2216.82 887.94 2223.74Z" />
				<path id="&lt;Path&gt;" class="shp49" d="M696 1644.5C733.68 1633.9 788.9 1621.51 856.53 1617.69C952.98 1612.24 1001.21 1609.51 1035.39 1632.48C1114.32 1685.53 1053.21 1807.98 1085.52 2111.51C1099.26 2240.52 1105.45 2232.17 1074.5 2278.09C1011.62 2371.37 835 2379.02 754.09 2298.14C711.33 2255.39 705.81 2252.98 704.78 2204.2C700.73 2011.67 697.67 1829.87 696 1644.5Z" />
				<path id="&lt;Path&gt;" class="shp5" d="M1111.96 1647.4C1061.81 1621.63 1015.24 1616.91 988.93 1616.23C965.06 1675.19 935.08 1764.07 920.9 1875.26C908.11 1975.61 914.08 2042.01 920.94 2179.88C925.26 2266.98 929.67 2393.18 928.35 2548.65C954.9 2557.17 976.62 2559.17 991.18 2559.5C1042.81 2560.65 1060.05 2542 1112.78 2547.16C1135.78 2549.42 1141.51 2553.85 1149.25 2548.69C1170.82 2534.31 1154.67 2480.97 1143.84 2423.05C1127.1 2333.49 1145.33 2351.93 1128.98 2206.9C1115.43 2086.67 1096.73 2019.27 1114.12 2012.37C1123.46 2008.66 1132.24 1657.83 1111.96 1647.4Z" />
				<path id="&lt;Path&gt;" class="shp50" d="M1061.43 2223.11C1062.11 2132.65 1110.31 2119.86 1105.46 2042.03C1100.57 1963.65 1050.6 1959.35 1052.33 1891.9C1054.43 1809.87 1129.16 1783.97 1126.24 1709.43C1125.26 1684.3 1115.72 1662.13 1103.32 1643.36C1056.53 1621.33 1013.72 1616.87 988.93 1616.23C965.06 1675.19 935.08 1764.07 920.9 1875.26C908.11 1975.61 914.08 2042.01 920.94 2179.88C925.26 2266.98 929.68 2393.18 928.35 2548.65C954.9 2557.17 976.62 2559.17 991.18 2559.5C1042.81 2560.65 1060.05 2542 1112.78 2547.16C1135.78 2549.42 1141.51 2553.85 1149.25 2548.69C1168.09 2536.12 1158.14 2493.82 1148.11 2444.7C1132.26 2424.24 1115.93 2404.56 1098.53 2367.71C1085.38 2339.86 1060.94 2288.1 1061.43 2223.11Z" />
				<path id="&lt;Path&gt;" class="shp5" d="M873.65 1892.13C885.46 1936.98 884.37 1972.67 883.11 2005.61C876.17 2187.07 872.64 2278.33 869.6 2304.17C854.85 2429.63 844.42 2421.82 848 2472.77C849.92 2500.04 854.39 2523.39 839.47 2540.55C821.67 2561.02 796.07 2549.95 733.07 2558.07C675.15 2565.54 673.62 2577.89 611.03 2585.41C585.61 2588.47 516.15 2596.81 508.9 2577.06C505.02 2566.5 519.38 2549.15 533.22 2540.58C555.76 2526.62 574.97 2537.15 582.58 2526.01C591.3 2513.24 567.75 2496.93 566.99 2466.28C566.23 2435.74 588.97 2425.81 603.09 2388.3C616.24 2353.35 610.94 2323.6 608.91 2302.53C599.86 2208.53 641.23 2134.2 649.4 2009.66C662.11 1815.74 579.2 1730.55 635.48 1668.41C665.96 1634.77 716.11 1631.21 747.47 1631.97C780.05 1699.84 808.12 1753.25 827.99 1789.93C849.44 1829.53 863.52 1853.63 873.65 1892.13Z" />
				<g id="&lt;Group&gt;">
					<path id="&lt;Path&gt;" class="shp5" d="M999.97 1842.15C995.34 1826.22 980.73 1810.95 986.45 1792.16C989.83 1781.09 998.71 1773.91 1005.54 1769.63C1050.51 1759.53 1080.77 1717.45 1076.29 1673.28C1074.5 1655.54 1067.24 1639.2 1056.19 1625.94C1028.74 1618.6 1005.03 1616.65 988.93 1616.23C965.06 1675.19 935.08 1764.07 920.9 1875.26C914.87 1922.61 913.04 1962.44 913.48 2005.75C921.27 1980.86 932.21 1962.27 943.81 1948.16C963.46 1924.26 1011.23 1880.94 999.97 1842.15Z" />
				</g>
				<g id="&lt;Group&gt;" style="opacity: 0.639;mix-blend-mode: multiply">
					<path id="&lt;Path&gt;" class="shp51" d="M873.65 1892.13C863.52 1853.63 849.44 1829.53 827.99 1789.93C808.11 1753.25 780.05 1699.84 747.47 1631.97C739.87 1631.78 731.15 1631.87 721.88 1632.56C672.28 1701.06 669.13 1739.36 680.66 1762.09C691.88 1784.24 715.36 1788.54 718.43 1812.46C723.23 1849.85 668.82 1862.63 655.47 1913.19C643.82 1957.33 671.08 2001.41 696.74 2042.9C740.38 2113.48 780.34 2122.2 778.87 2159.99C777.34 2199.3 733.69 2200 715.91 2248.13C688.05 2323.56 774.63 2377.81 748.65 2444.55C728.51 2496.29 667.69 2486.34 630.29 2552.84C624.36 2563.39 620.14 2574.08 616.99 2584.62C673.62 2577.05 677.1 2565.28 733.07 2558.07C796.07 2549.94 821.67 2561.02 839.47 2540.55C854.39 2523.39 849.92 2500.04 848 2472.77C844.42 2421.82 854.85 2429.63 869.6 2304.17C872.64 2278.33 876.17 2187.07 883.11 2005.61C884.37 1972.67 885.46 1936.98 873.65 1892.13Z" />
				</g>
				<path id="&lt;Path&gt;" class="shp5" d="M741.26 1787.43C766.84 1810.17 785.35 1817.85 788.55 1839.53C792.07 1863.43 772.16 1871.42 775.55 1894.68C779.78 1923.78 812.75 1923.84 829.75 1961.03C840.87 1985.38 831.17 1995.04 837.85 2026.55C841.93 2045.76 852.01 2072.52 879.39 2102.23C880.52 2073.36 881.74 2041.25 883.11 2005.61C884.37 1972.67 885.46 1936.98 873.65 1892.13C863.52 1853.63 849.44 1829.53 827.99 1789.93C808.12 1753.25 780.05 1699.84 747.47 1631.97C729.09 1631.52 704.27 1632.61 680.72 1640.32C672.59 1655.16 671.24 1666.95 671.01 1673.28C669.18 1723.36 724.18 1772.25 741.26 1787.43Z" />
				<g id="&lt;Group&gt;">
					<path id="&lt;Path&gt;" class="shp52" d="M863.73 1512.31C863.97 1540.9 860.78 1563.58 857.76 1579.11C854.3 1596.91 851.81 1601.5 848.63 1605.23C843.85 1610.85 836.6 1615.56 795.62 1625.72C773.32 1631.25 770.45 1631.1 769.96 1633.31C767.56 1644.1 828.36 1680.9 891.18 1672.03C929.63 1666.6 964.61 1644.67 962.46 1633.15C960.3 1621.56 921.89 1627.78 910.45 1606.81C902.49 1592.22 911.41 1571.51 921.96 1554.35C911.74 1535.21 873.95 1531.45 863.73 1512.31Z" />
					<g id="&lt;Group&gt;">
						<path id="&lt;Path&gt;" class="shp53" d="M935.09 1523.61C944.16 1511.56 944.72 1490.52 934.27 1477.22C925.27 1465.77 911.11 1464.14 902.64 1463.16C878.07 1460.32 847.08 1470.58 836.3 1493.18C829.92 1506.58 843.73 1534.41 845.9 1539.42C848.35 1545.08 852.79 1547.02 856.9 1551.3C862.59 1557.23 871.51 1566.66 886.06 1582.44C887.19 1577.79 888.91 1572.02 891.64 1565.78C892.69 1563.37 896.92 1553.98 903.31 1546.19C916.11 1530.58 926.49 1535.03 935.09 1523.61Z" />
						<path id="&lt;Path&gt;" class="shp54" d="M865.3 1569.17C876.07 1586.83 892.16 1594.97 913.6 1593.57C942.38 1591.7 946.6 1527.15 928.21 1513.45C922.08 1508.88 909.79 1506.98 899.81 1509.78C893.91 1511.44 891.91 1513.89 882.22 1516.4C873.28 1518.72 870.75 1517.73 868.05 1520C864.68 1522.84 862.21 1529.81 867.84 1548.68C862.35 1543.12 855.76 1540.98 851.09 1543.19C850.34 1543.54 848.37 1544.88 847.25 1546.92C843.23 1554.29 849.96 1563.71 865.3 1569.17Z" />
						<path id="&lt;Path&gt;" class="shp55" d="M866.75 1516.14C868.14 1517.17 863.9 1522.35 863.58 1529.68C862.97 1543.91 877.37 1560.99 892.06 1562.44C900.75 1563.3 903.13 1558.06 917.49 1556.54C926.38 1555.6 933.78 1556.73 938.44 1557.75C942.95 1573.36 938.7 1588.91 928.27 1596.13C917.05 1603.9 902.7 1599.19 896.7 1597.22C892.69 1595.9 879.84 1591.7 873.12 1579.91C866.11 1567.62 872.99 1560.22 864.95 1551.91C860.9 1547.72 855.58 1545.9 850.4 1537.79C848.99 1535.58 848.06 1533.63 847.48 1532.32C854.91 1524.45 864.74 1514.64 866.75 1516.14Z" />
						<path id="&lt;Path&gt;" class="shp56" d="M927.99 1563.54C923.85 1565.7 918.19 1566.58 911.03 1566.18C910.51 1566.15 909.93 1566.3 909.87 1566.57C909.62 1567.59 916.51 1572.16 922.86 1570.38C927.37 1569.11 930.88 1564.84 930.27 1563.75C930.01 1563.3 928.99 1563.36 927.99 1563.54Z" />
					</g>
				</g>
				<path id="&lt;Path&gt;" class="shp5" d="M762.07 1929.54C778.48 1964.39 703.06 2045.56 619.24 2084.1C602.17 2091.96 479.52 2148.35 424.86 2094.13C379.7 2049.32 408.85 1956.67 419.25 1923.59C470.35 1761.16 614.95 1670.12 680.72 1640.32C729.81 1763.05 713.23 1826.15 701.85 1843.23C689.97 1861.07 656.8 1898.54 621.57 1931.55C596.78 1954.76 581.35 1966.06 583.43 1969.68C586.01 1974.19 615.06 1965.68 727.88 1910.76C740.96 1912.88 756.46 1917.64 762.07 1929.54Z" />
				<path id="&lt;Path&gt;" class="shp57" d="M762.07 1929.54C778.48 1964.39 703.06 2045.56 619.24 2084.11C602.17 2091.96 479.52 2148.35 424.86 2094.13C379.7 2049.32 408.85 1956.67 419.25 1923.59C470.35 1761.16 614.96 1670.12 680.72 1640.32C631.36 1668.88 572.16 1714.37 564.15 1778.72C559.52 1815.84 576.03 1826.35 571.25 1863.95C559.09 1959.42 439.23 1996.96 450.5 2029.67C458.71 2053.49 530.06 2056.44 585.45 2039.14C674.47 2011.35 716.84 1932.93 727.88 1910.76C740.96 1912.88 756.46 1917.64 762.07 1929.54Z" />
				<path id="&lt;Path&gt;" class="shp58" d="M1041.1 1725.84L841.39 1744.54C837.21 1744.93 833.69 1747.85 832.53 1751.9L758 2012.13C756.03 2019.02 761.58 2025.74 768.72 2025.11L970.06 2007.35C974.3 2006.97 977.86 2004.01 979 1999.92L1051.88 1738.75C1053.81 1731.85 1048.23 1725.17 1041.1 1725.84Z" />
				<path id="&lt;Path&gt;" class="shp59" d="M733.57 1921.39C779.42 1874.47 811.68 1847.55 830.34 1840.62C858.33 1830.22 833.54 1904.45 817.15 1914.92C800.75 1925.39 794.35 1929.39 781.55 1930.98C773.02 1932.05 768.76 1932.58 768.76 1932.58L751.96 1941.54C737.57 1939.83 731.44 1933.12 733.57 1921.39Z" />
				<path id="&lt;Path&gt;" class="shp60" d="M908.17 1950.93C915.71 1909.79 892.5 1877.89 914.74 1839.33C937.62 1799.67 977.79 1806.36 1006.64 1773.69C1015.82 1763.29 1024.07 1748.55 1028.12 1727.05L1041.1 1725.84C1048.23 1725.17 1053.81 1731.85 1051.88 1738.75L979 1999.92C977.86 2004.01 974.3 2006.97 970.06 2007.35L867.82 2016.37C893.83 1993.02 904.58 1970.55 908.17 1950.93Z" />
			</g>
			<g id="&lt;Group&gt;">
				<path id="&lt;Path&gt;" class="shp61" d="M2502.29 2282.73C2481.35 2054.37 2490.9 1863.54 2530.93 1710.24L2651.9 1751.44C2566.49 2059.88 2523.87 2236.98 2524.02 2282.73L2502.29 2282.73Z" />
				<path id="&lt;Path&gt;" class="shp62" d="M2740.89 3159.67C2742.67 3173.8 2742.96 3183.23 2741.77 3187.96C2739.98 3195.06 2678.38 3200.18 2657.47 3197.72C2636.56 3195.25 2669.93 3173.89 2683.25 3169.88C2692.13 3167.21 2711.34 3163.81 2740.89 3159.67Z" />
				<path id="&lt;Path&gt;" class="shp63" d="M2709.88 3124.33L2716.38 3166.84C2727.41 3171.8 2735.59 3171.83 2740.89 3166.92L2741.77 3122.43L2709.88 3124.33Z" />
				<path id="&lt;Path&gt;" class="shp64" d="M3057.13 3122.43C3048.42 3128.9 3045.22 3136 3047.55 3143.75C3051.03 3155.36 3081.53 3201.9 3103.26 3215.11C3125 3228.32 3118.19 3200.8 3111.86 3183.66C3105.54 3166.52 3089.37 3128.76 3083.07 3122.43C3078.86 3118.21 3070.22 3118.21 3057.13 3122.43Z" />
				<path id="&lt;Path&gt;" class="shp65" d="M3033.62 3075.73C3039.94 3093.35 3046.02 3107.82 3050.77 3118.5C3061.29 3142.13 3067.04 3151 3073.54 3158.68C3079.22 3165.38 3092.66 3179.66 3096.27 3177.28C3099.94 3174.87 3090.11 3157.5 3071.16 3106.64C3069.32 3101.72 3065.51 3091.42 3059.71 3075.73L3033.62 3075.73Z" />
				<path id="&lt;Path&gt;" class="shp66" d="M2580.89 2339.85C2576.38 2384.12 2572.05 2452.82 2578.52 2536.21C2586.95 2644.85 2608.67 2713.59 2635.91 2829.43C2652.56 2900.22 2675 3004.41 2695.3 3134.72C2700.01 3137.41 2713.87 3144.5 2731.71 3141.85C2741.7 3140.37 2749.17 3136.4 2753.58 3133.54C2806.85 2970.78 2791.12 2869.92 2765.41 2807.08C2754.46 2780.29 2741.17 2759.16 2734.07 2717.98C2724.67 2663.5 2736.29 2633.05 2752.86 2506.86C2764.67 2416.92 2762.62 2403.02 2754.77 2389.53C2723.36 2335.6 2627.29 2336.65 2580.89 2339.85Z" />
				<path id="&lt;Path&gt;" class="shp67" d="M2764.23 2358.78C2796.86 2527.29 2828.89 2615.8 2853.12 2665.86C2859.1 2678.2 2879.04 2718.04 2897.89 2775.14C2914.58 2825.68 2921.53 2862.87 2925.1 2879.23C2936.35 2930.89 2964.15 3006.31 3038.96 3105.23C3039.9 3105.78 3052.65 3112.99 3064.85 3106.56C3071.02 3103.31 3074.1 3098.11 3075.32 3095.7C3065.54 3001.12 3054.31 2921.64 3044.57 2860.31C3042.52 2847.44 3033.52 2791.16 3019.39 2716.79C3013.87 2687.69 3005.77 2645.05 2996.07 2601.26C2983.99 2546.72 2965.47 2472.52 2936.92 2383.62C2879.36 2375.34 2821.79 2367.06 2764.23 2358.78Z" />
				<path id="&lt;Path&gt;" class="shp68" d="M2700.36 1689.02C2684.79 1669.2 2652.95 1644.13 2642.66 1596.06C2639.57 1581.59 2628.6 1530.32 2662.09 1497.81C2681.97 1478.51 2714.77 1468.5 2740.73 1478.06C2762.91 1486.23 2763.93 1502.75 2797.71 1541.09C2810.86 1556.01 2832 1580 2857.31 1595.5C2900.68 1622.07 2931.46 1608.53 2977.74 1618.05C3034.61 1629.75 3096.01 1672.36 3120.62 1723.97C3164.3 1815.56 3068.5 1886.04 3115.34 1992.65C3130.68 2027.58 3141.88 2022.09 3180.43 2091.12C3219.03 2160.24 3238.32 2194.8 3228 2231.71C3213.66 2282.93 3149.47 2323.78 3096 2318.69C3043.77 2313.73 3017.42 2267.79 2988.25 2281.37C2967.48 2291.03 2974.25 2317.37 2949.62 2343.78C2917.86 2377.84 2866.22 2377.37 2857.89 2377.29C2780.49 2376.59 2692.78 2271.66 2666.31 2159.74C2618.59 1957.92 2785 1796.75 2700.36 1689.02Z" />
				<path id="&lt;Path&gt;" class="shp69" d="M2765.41 2807.08C2754.46 2780.29 2741.17 2759.16 2734.07 2717.98C2724.67 2663.5 2736.29 2633.05 2752.86 2506.86C2764.67 2416.92 2762.62 2403.02 2754.77 2389.53C2737.7 2360.22 2701.53 2347.22 2664.62 2341.91C2665.11 2343.8 2665.61 2345.7 2666.01 2347.53C2685.38 2435.98 2611.46 2489.94 2644.8 2587.17C2661.24 2635.11 2687.47 2646.09 2693.58 2701.69C2699.3 2753.78 2678.54 2764.63 2682.97 2811.97C2689.6 2882.74 2739.88 2899.86 2752.96 2954.06C2761.46 2989.27 2754.3 3040.77 2692.22 3115.3C2693.25 3121.72 2694.28 3128.16 2695.3 3134.72C2700.01 3137.41 2713.87 3144.5 2731.71 3141.85C2741.7 3140.37 2749.17 3136.4 2753.58 3133.54C2806.85 2970.78 2791.12 2869.92 2765.41 2807.08Z" />
				<path id="&lt;Path&gt;" class="shp70" d="M2553.87 1668.47C2567.1 1654.3 2582.16 1643.27 2599.06 1635.4C2634.04 1619.1 2667.96 1621.72 2709.16 1623.23C2728.43 1623.93 2749.37 1626.25 2771.72 1630.98C2879.63 1653.85 2946.84 1718.6 2972.14 1745.82C2951.42 1759.3 2894.26 1800.46 2865.95 1878.54C2857.14 1902.83 2831.12 1985.87 2868.34 2063.66C2889.78 2108.48 2927.71 2142.13 2956.52 2167.69C2999.73 2206.02 3022.11 2211.91 3036.59 2246.26C3052.37 2283.65 3036.47 2301.89 3056.07 2327.49C3077.1 2354.99 3101.76 2342.21 3137.42 2370.01C3173.95 2398.49 3160.95 2421.93 3194.2 2453.41C3242.5 2499.13 3306.54 2484.28 3309.52 2504.86C3312.09 2522.56 3266.58 2546.57 3227.91 2556.31C3151.33 2575.6 3084.54 2543.23 3064.67 2533.25C3009.68 2505.62 3019.18 2487.74 2977.25 2466.68C2907.05 2431.41 2859.07 2470.65 2699.17 2474.7C2612.58 2476.89 2568.8 2477.38 2544.81 2448.08C2522.9 2421.32 2534.42 2391.97 2547.56 2265.47C2547.56 2265.46 2547.56 2265.46 2547.56 2265.45C2551.79 2223.21 2560.63 2134.75 2560.69 2084.35C2560.86 1924.1 2482.86 1744.53 2553.87 1668.47Z" />
				<g id="&lt;Group&gt;" style="opacity: 0.302;mix-blend-mode: multiply">
					<path id="&lt;Path&gt;" class="shp71" d="M3194.2 2453.41C3160.95 2421.93 3173.95 2398.49 3137.42 2370.01C3101.76 2342.21 3077.1 2354.99 3056.06 2327.49C3036.47 2301.89 3052.37 2283.65 3036.59 2246.26C3022.11 2211.91 2999.73 2206.02 2956.52 2167.69C2927.71 2142.13 2889.78 2108.48 2868.34 2063.66C2831.12 1985.87 2857.14 1902.83 2865.95 1878.54C2894.26 1800.46 2951.42 1759.31 2972.14 1745.82C2970.14 1743.67 2967.79 1741.22 2965.28 1738.64C2828.8 1757.4 2749.23 1836.26 2739.39 1859.61C2716.64 1913.58 2752.65 1933.42 2753.58 2089.09C2754.03 2163.49 2746 2192.88 2770.14 2223.93C2797.75 2259.45 2829.57 2248.46 2869.5 2294.9C2900.18 2330.58 2895.27 2353.21 2923.91 2368.24C2954.72 2384.4 2974.34 2365.56 3009.08 2372.97C3067.12 2385.35 3079.53 2452.27 3117.9 2488.89C3146.92 2516.58 3200.57 2535.94 3306.37 2515.16C3308.82 2511.6 3310 2508.12 3309.53 2504.86C3306.54 2484.28 3242.5 2499.13 3194.2 2453.41Z" />
				</g>
				<path id="&lt;Path&gt;" class="shp72" d="M2780.79 1901.6C2766.28 1932.41 2832.94 2004.16 2907.04 2038.23C2922.14 2045.18 3030.55 2095.03 3078.87 2047.09C3118.79 2007.48 3093.03 1925.58 3083.83 1896.34C3038.66 1752.76 2899.93 1679.72 2841.79 1653.38C2798.41 1761.87 2823.96 1810.21 2834.02 1825.31C2844.52 1841.07 2873.85 1874.2 2904.99 1903.38C2926.89 1923.9 2940.53 1933.89 2938.7 1937.09C2936.42 1941.07 2910.74 1933.55 2811.01 1885C2799.44 1886.87 2785.74 1891.08 2780.79 1901.6Z" />
				<path id="&lt;Path&gt;" class="shp73" d="M2725.88 1617.18C2746.19 1629.77 2793.39 1641.11 2797.01 1645.58C2800.62 1650.04 2697.55 1667.69 2633.41 1635.33C2626.78 1631.65 2636.35 1627.23 2662.13 1622.07C2670.37 1620.42 2679.89 1591.41 2678.78 1574.84L2714.68 1559.75C2708.61 1589.63 2712.34 1608.77 2725.88 1617.18Z" />
				<path id="&lt;Path&gt;" class="shp74" d="M2715.63 1576.24C2704.38 1591.26 2690.13 1595.49 2672.88 1588.94C2649.72 1580.14 2664.41 1520.21 2682.96 1513.6C2689.15 1511.39 2700.45 1512.55 2707.94 1517.37C2713.22 1520.76 2727.18 1538.58 2718.78 1558.24C2724.68 1556.61 2729.84 1558.23 2731.09 1561.16C2732.69 1564.87 2727.64 1569.84 2726.5 1570.96C2722.54 1574.86 2717.81 1575.9 2715.63 1576.24Z" />
				<path id="&lt;Path&gt;" class="shp75" d="M2805.98 1894.4C2765.45 1852.92 2736.93 1829.13 2720.44 1823C2695.7 1813.81 2710.54 1827.24 2720.44 1835.02C2730.34 1842.79 2736.93 1845.35 2731.87 1857.15C2726.8 1868.95 2717.6 1879.42 2732.1 1888.68C2746.59 1897.93 2752.25 1901.47 2763.56 1902.88C2771.1 1903.82 2774.87 1904.29 2774.87 1904.29L2789.72 1912.21C2802.44 1910.7 2807.86 1904.76 2805.98 1894.4Z" />
			</g>
			<g id="&lt;Group&gt;">
				<path id="&lt;Path&gt;" class="shp76" d="M2482.87 3201.06C2502.1 3206.58 2519.06 3212.4 2533.73 3218.52C2555.75 3227.7 2554.9 3213.58 2551.56 3196.74C2549.34 3185.52 2538.1 3183.18 2517.86 3189.71C2485.29 3186.89 2473.63 3190.67 2482.87 3201.06Z" />
				<path id="&lt;Path&gt;" class="shp77" d="M2598.25 2728.62C2597.02 2773.59 2591.41 2812.07 2584.77 2843.48C2577.62 2877.28 2573.46 2883.12 2571.23 2906.49C2566.37 2957.34 2582.76 2964.62 2585.77 3022.1C2589.1 3085.56 2572.22 3136 2565.58 3155.25C2559.78 3172.07 2553.71 3185.65 2549.15 3195.09C2545.24 3198.49 2539.96 3198.73 2534.07 3197.95C2528.84 3197.25 2524.85 3192.85 2524.52 3187.59C2521.16 3133.24 2517.11 3081.65 2513.83 3027C2502.69 2940.4 2491.54 2853.8 2480.4 2767.2C2519.68 2754.34 2558.96 2741.48 2598.25 2728.62Z" />
				<path id="&lt;Path&gt;" class="shp78" d="M2524.49 3187.08C2521.14 3132.92 2517.1 3081.48 2513.83 3027C2502.69 2940.4 2491.54 2853.8 2480.4 2767.2C2519.68 2754.34 2558.96 2741.48 2598.25 2728.62C2598.17 2731.6 2598.02 2734.47 2597.9 2737.39C2542.78 2785.26 2532 2823.17 2532.54 2849.04C2533.19 2880.4 2550.34 2895.95 2546.99 2941.43C2544.59 2973.95 2534.82 2979.68 2534.82 3009.02C2534.83 3046.81 2551.05 3068.05 2558.94 3089.89C2566.58 3110.99 2569.29 3140.88 2554.55 3183.4C2552.61 3187.79 2550.78 3191.71 2549.15 3195.09C2545.35 3198.39 2540.25 3198.72 2534.56 3198.01C2529.04 3197.33 2524.83 3192.64 2524.49 3187.08Z" />
				<path id="&lt;Path&gt;" class="shp79" d="M2401.5 3217.89C2420.73 3223.4 2437.68 3229.22 2452.36 3235.34C2474.37 3244.52 2473.53 3230.4 2470.19 3213.56C2467.96 3202.34 2456.72 3200 2436.48 3206.53C2403.92 3203.71 2392.25 3207.49 2401.5 3217.89Z" />
				<path id="&lt;Path&gt;" class="shp80" d="M2516.87 2745.44C2515.65 2790.41 2510.04 2828.89 2503.39 2860.31C2496.24 2894.1 2492.08 2899.94 2489.85 2923.31C2485 2974.16 2501.39 2981.44 2504.4 3038.92C2507.72 3102.38 2490.84 3152.83 2484.21 3172.07C2478.41 3188.89 2472.34 3202.47 2467.77 3211.91C2463.87 3215.31 2458.58 3215.55 2452.69 3214.77C2447.46 3214.07 2443.47 3209.67 2443.14 3204.41C2439.78 3150.06 2435.74 3098.47 2432.45 3043.82C2421.31 2957.22 2410.16 2870.62 2399.02 2784.02C2438.3 2771.16 2477.59 2758.3 2516.87 2745.44Z" />
				<path id="&lt;Path&gt;" class="shp81" d="M2443.11 3203.9C2439.76 3149.75 2435.72 3098.3 2432.45 3043.82C2421.31 2957.22 2410.16 2870.62 2399.02 2784.02C2438.3 2771.16 2477.59 2758.3 2516.87 2745.44C2516.79 2748.42 2516.64 2751.29 2516.52 2754.21C2461.41 2802.08 2450.62 2839.99 2451.16 2865.86C2451.81 2897.22 2468.96 2912.77 2465.61 2958.25C2463.22 2990.77 2453.44 2996.5 2453.45 3025.84C2453.45 3063.63 2469.67 3084.87 2477.57 3106.71C2485.2 3127.81 2487.92 3157.7 2473.17 3200.22C2471.23 3204.61 2469.4 3208.53 2467.77 3211.91C2463.98 3215.21 2458.88 3215.54 2453.19 3214.83C2447.66 3214.15 2443.46 3209.46 2443.11 3203.9Z" />
				<path id="&lt;Path&gt;" class="shp5" d="M2449.51 2376.66C2432.72 2381.43 2417.92 2389.72 2405.12 2401.53C2377.33 2427.18 2379.88 2460.52 2372.09 2530.2C2362.77 2613.42 2341.33 2690.04 2352.16 2754.27C2354.79 2769.83 2358.59 2783.7 2362.62 2795.56C2369.7 2816.43 2383 2834.14 2400.22 2846.19C2413.13 2855.23 2428.79 2864.39 2447.1 2871.73C2494.48 2890.74 2517.47 2880.76 2580.81 2886.06C2684.42 2894.73 2700.55 2927.91 2746.91 2908.7C2793.77 2889.28 2826.9 2834.82 2816.42 2811.02C2810.15 2796.78 2791.39 2805.19 2763.9 2787.28C2730.37 2765.43 2732.87 2740.37 2704.86 2707.06C2664.12 2658.6 2629.88 2681.24 2594.93 2638.43C2570.42 2608.4 2567.25 2572.73 2561.72 2510.52C2555.84 2444.3 2565.58 2395.73 2539.15 2381.21C2532.79 2377.73 2525.17 2375.87 2516.08 2376.15C2496.42 2376.76 2474.31 2369.62 2449.51 2376.66Z" />
				<path id="&lt;Path&gt;" class="shp82" d="M2452.32 2345.41L2432.28 2391C2452.02 2400.9 2470.92 2400.9 2488.98 2391L2488.98 2345.41L2452.32 2345.41Z" />
				<path id="&lt;Path&gt;" class="shp83" d="M2740.79 2872.8C2726.26 2862.05 2733.45 2832.58 2711.92 2816.4C2691.95 2801.38 2676.96 2820.15 2647.74 2809.79C2610.27 2796.51 2611.46 2757.31 2575.54 2744.02C2549.71 2734.47 2542.31 2752.24 2505.32 2752.23C2468.4 2752.22 2463.78 2565.05 2432.28 2521.52C2418.9 2503.03 2367.11 2652.9 2362.8 2634.85C2353.6 2669.57 2343.52 2703.12 2352.16 2754.27C2355.66 2774.97 2361.23 2792.71 2366.66 2806.68C2371.72 2819.71 2380.06 2830.98 2390.68 2839.18C2405.15 2850.34 2424.02 2862.47 2447.1 2871.73C2494.47 2890.74 2517.47 2880.76 2580.81 2886.06C2684.42 2894.73 2700.55 2927.91 2746.91 2908.7C2776.86 2896.29 2801.13 2869.58 2812.07 2845.69C2771.8 2877.4 2751.34 2880.61 2740.79 2872.8Z" />
				<g id="&lt;Group&gt;">
					<path id="&lt;Path&gt;" class="shp84" d="M2448.25 2255.04C2432.33 2284.92 2423.87 2310.35 2422.87 2331.32C2421.86 2352.29 2433.19 2362.01 2456.86 2360.49L2500.95 2358.93C2511.52 2293.57 2493.95 2258.94 2448.25 2255.04Z" />
					<path id="&lt;Path&gt;" class="shp85" d="M2460 2333.88C2452.56 2359.12 2464.58 2383.56 2474.87 2404.5C2494.9 2445.23 2547.13 2495.78 2599.39 2489.99C2657.73 2483.52 2664.49 2412.55 2718.34 2410.07C2763.51 2407.99 2772.84 2457.29 2831.7 2469.55C2906.28 2485.07 2974.19 2423.2 2982.24 2415.65C3033.73 2367.41 3067.09 2284.12 3039.86 2211.21C3037.08 2203.77 3009.71 2133.18 2958.08 2125.72C2914.49 2119.42 2898.3 2164.59 2829.85 2170.33C2785.12 2174.07 2777.25 2156.02 2746.21 2166.61C2696.85 2183.44 2702.33 2234.03 2662.58 2244.67C2621.37 2255.7 2603.13 2204.65 2526.91 2198.2C2516.38 2197.31 2454.95 2192.12 2437.7 2224.22C2430.76 2237.14 2429.9 2258.1 2438.56 2273.32C2447.51 2289.06 2461.99 2290.48 2465.58 2306C2468.06 2316.73 2462.95 2323.9 2460 2333.88Z" />
				</g>
				<path id="&lt;Path&gt;" class="shp86" d="M2271.84 2680.7C2264.25 2674.32 2256.09 2671.45 2247.38 2672.08C2234.32 2673.04 2229.84 2701.57 2235.17 2708.53C2238.73 2713.17 2253.63 2709.26 2279.88 2696.8L2271.84 2680.7Z" />
				<path id="&lt;Path&gt;" class="shp5" d="M2271.84 2680.7C2325.38 2603.77 2357.2 2540.35 2367.29 2490.45C2382.42 2415.58 2395.11 2399.37 2422.82 2404.77C2450.53 2410.18 2517.87 2612.62 2279.88 2696.8L2271.84 2680.7Z" />
			</g>
		</g>
	</g>
</svg>