<svg version="1.2" baseProfile="tiny-ps" xmlns="http://www.w3.org/2000/svg" viewBox="0 0 3710 3710" width="3710" height="3710">
	<title>Wavy_Bus-36_Single-09-ai</title>
	<defs>
		<linearGradient id="grd1" gradientUnits="userSpaceOnUse"  x1="2871.808" y1="1649.889" x2="737.077" y2="3090.802">
			<stop offset="0" stop-color="#ff9085"  />
			<stop offset="1" stop-color="#fb6fbb"  />
		</linearGradient>
		<clipPath clipPathUnits="userSpaceOnUse" id="cp1">
			<path d="M2018.52 2621.56C2032.29 2728.87 2041.88 2838.64 2055.17 2946.78C2114.71 2963.08 2185.15 2980.81 2212.55 2908.99C2250.64 2809.14 2437.59 2803.14 2522.71 2817.07C2628.06 2834.3 2859.24 2850.39 2839.13 2694.71C2822.39 2565.11 2760.68 2491.89 2911.86 2440.5C3063.03 2389.11 3137.49 2293.49 3097.84 2152.81C3056.11 2004.76 3223.4 1846.39 3108.96 1735.28C2909.54 1541.68 2664.14 1902.94 2638.55 2121.24C2612.96 2339.55 2503.92 2270.73 2357.32 2286.99C2157.18 2309.19 2285.35 2514.26 2199.87 2585.35C2132.85 2641.08 2092.11 2620.92 2018.52 2621.56Z" />
		</clipPath>
		<clipPath clipPathUnits="userSpaceOnUse" id="cp2">
			<path d="M2192.93 2940.71C2115.4 2914.74 2038.27 2886.96 1961.62 2857.37C1960.12 2858.31 1965.01 2680.55 2063.48 2604.5C2257.55 2457.76 2176.3 2280.33 2161.81 2181.22C2135.42 2040.39 2189.75 1884.7 2329.61 1940.73C2466.49 1991.92 2540.11 1704.45 2555.87 1475.66C2554.59 1362.7 2681.38 1248.62 2789.64 1236.75C2900.64 1221.99 2993.12 1309.44 2986.24 1532.91C2989.71 1793.7 2778.52 1912.78 2687.77 2026.96C2598.52 2139.03 2736.48 2267.34 2591.29 2354.8C2468.23 2433.57 2322.6 2479.97 2349.31 2611.38C2377.59 2741.64 2347.86 2838.68 2192.93 2940.71Z" />
		</clipPath>
		<clipPath clipPathUnits="userSpaceOnUse" id="cp3">
			<path d="M1333.13 2196.05C1335.6 2154.59 1385.03 1866.06 1320.14 1790.94C1246.2 1705.37 1171.38 1730.9 1171.22 1625.86C1170.97 1461.69 1057.2 1301.44 850.15 1416.42C645.79 1529.89 778.91 2120.65 936.33 2254.11C1051.18 2411.94 1146.26 2436.33 1129.14 2661.86C1117.15 2819.83 1323.85 2351.92 1333.13 2196.05Z" />
		</clipPath>
		<linearGradient id="grd2" gradientUnits="userSpaceOnUse"  x1="450.448" y1="2492.086" x2="1532.991" y2="3111.289">
			<stop offset="0.004" stop-color="#e38ddd"  />
			<stop offset="1" stop-color="#9571f6"  />
		</linearGradient>
		<clipPath clipPathUnits="userSpaceOnUse" id="cp4">
			<path d="M1320.83 2789.06C1226.64 2851.39 1120.57 2922.38 1036.7 2794.37C966.87 2687.8 925.48 2613.35 778.9 2602.42C632.33 2591.49 510.37 2495.68 542.48 2352.57C576.27 2201.96 428.32 2023.29 538.12 1904.84C729.44 1698.45 899.4 2045.97 959.95 2242.9C1020.5 2439.84 1137.52 2335.78 1265.6 2313.72C1440.46 2283.6 1396.93 2738.69 1320.83 2789.06Z" />
		</clipPath>
		<linearGradient id="grd3" gradientUnits="userSpaceOnUse"  x1="685.685" y1="2455.502" x2="1354.865" y2="1627.66">
			<stop offset="0" stop-color="#ffc444"  />
			<stop offset="0.129" stop-color="#fdb946"  />
			<stop offset="0.167" stop-color="#fdb647"  />
			<stop offset="0.996" stop-color="#f36f56"  />
		</linearGradient>
		<linearGradient id="grd4" gradientUnits="userSpaceOnUse"  x1="621.65" y1="2580.039" x2="845.556" y2="1544.935">
			<stop offset="0.004" stop-color="#6165d7"  />
			<stop offset="1" stop-color="#aa80f9"  />
		</linearGradient>
		<linearGradient id="grd5" gradientUnits="userSpaceOnUse"  x1="2810.644" y1="1529.037" x2="759.521" y2="5887.456">
			<stop offset="0" stop-color="#ffc444"  />
			<stop offset="0.996" stop-color="#f36f56"  />
		</linearGradient>
		<linearGradient id="grd6" gradientUnits="userSpaceOnUse"  x1="1469.833" y1="2485.981" x2="1536.111" y2="4947.717">
			<stop offset="0.004" stop-color="#6165d7"  />
			<stop offset="1" stop-color="#aa80f9"  />
		</linearGradient>
		<linearGradient id="grd7" gradientUnits="userSpaceOnUse"  x1="1461.23" y1="2167.329" x2="1505.587" y2="3814.87">
			<stop offset="0.004" stop-color="#6165d7"  />
			<stop offset="1" stop-color="#aa80f9"  />
		</linearGradient>
		<linearGradient id="grd8" gradientUnits="userSpaceOnUse"  x1="832.452" y1="2587.374" x2="1381.908" y2="2191.016">
			<stop offset="0.004" stop-color="#6165d7"  />
			<stop offset="1" stop-color="#aa80f9"  />
		</linearGradient>
		<linearGradient id="grd9" gradientUnits="userSpaceOnUse"  x1="831.424" y1="2585.948" x2="1380.881" y2="2189.59">
			<stop offset="0.004" stop-color="#6165d7"  />
			<stop offset="1" stop-color="#aa80f9"  />
		</linearGradient>
		<linearGradient id="grd10" gradientUnits="userSpaceOnUse"  x1="1892.111" y1="303.578" x2="2716.922" y2="1798.881">
			<stop offset="0" stop-color="#ffc444"  />
			<stop offset="0.996" stop-color="#f36f56"  />
		</linearGradient>
		<linearGradient id="grd11" gradientUnits="userSpaceOnUse"  x1="1198.504" y1="865.888" x2="1761.113" y2="1885.843">
			<stop offset="0" stop-color="#ffc444"  />
			<stop offset="0.996" stop-color="#f36f56"  />
		</linearGradient>
		<linearGradient id="grd12" gradientUnits="userSpaceOnUse"  x1="2542.586" y1="716.707" x2="3105.195" y2="1736.663">
			<stop offset="0" stop-color="#ffc444"  />
			<stop offset="0.996" stop-color="#f36f56"  />
		</linearGradient>
		<linearGradient id="grd13" gradientUnits="userSpaceOnUse"  x1="876.088" y1="2600.655" x2="1221.539" y2="2370.354">
			<stop offset="0" stop-color="#ffc444"  />
			<stop offset="0.996" stop-color="#f36f56"  />
		</linearGradient>
		<linearGradient id="grd14" gradientUnits="userSpaceOnUse"  x1="1089.178" y1="2604.08" x2="1086.433" y2="2436.624">
			<stop offset="0" stop-color="#aa80f9"  />
			<stop offset="0.996" stop-color="#6165d7"  />
		</linearGradient>
		<linearGradient id="grd15" gradientUnits="userSpaceOnUse"  x1="1117.429" y1="2623.376" x2="1116.402" y2="2459.052">
			<stop offset="0" stop-color="#ab316d"  />
			<stop offset="1" stop-color="#792d3d"  />
		</linearGradient>
		<linearGradient id="grd16" gradientUnits="userSpaceOnUse"  x1="1097.683" y1="2375.462" x2="1123.777" y2="2061.331">
			<stop offset="0" stop-color="#ab316d"  />
			<stop offset="1" stop-color="#792d3d"  />
		</linearGradient>
		<linearGradient id="grd17" gradientUnits="userSpaceOnUse"  x1="1074.67" y1="2362.899" x2="1097.234" y2="2091.255">
			<stop offset="0" stop-color="#ab316d"  />
			<stop offset="1" stop-color="#792d3d"  />
		</linearGradient>
		<linearGradient id="grd18" gradientUnits="userSpaceOnUse"  x1="1280.023" y1="2377.986" x2="1302.588" y2="2106.342">
			<stop offset="0" stop-color="#ab316d"  />
			<stop offset="1" stop-color="#792d3d"  />
		</linearGradient>
		<linearGradient id="grd19" gradientUnits="userSpaceOnUse"  x1="1061.624" y1="2191.087" x2="1130.911" y2="1976.196">
			<stop offset="0" stop-color="#311944"  />
			<stop offset="1" stop-color="#6b3976"  />
		</linearGradient>
		<linearGradient id="grd20" gradientUnits="userSpaceOnUse"  x1="1061.737" y1="2188.939" x2="1132.57" y2="1969.256">
			<stop offset="0" stop-color="#311944"  />
			<stop offset="1" stop-color="#6b3976"  />
		</linearGradient>
		<linearGradient id="grd21" gradientUnits="userSpaceOnUse"  x1="3130.665" y1="2193.964" x2="2941.407" y2="2564.595">
			<stop offset="0" stop-color="#ab316d"  />
			<stop offset="1" stop-color="#792d3d"  />
		</linearGradient>
		<linearGradient id="grd22" gradientUnits="userSpaceOnUse"  x1="3125.786" y1="2184.813" x2="2935.043" y2="2558.353">
			<stop offset="0" stop-color="#ab316d"  />
			<stop offset="1" stop-color="#792d3d"  />
		</linearGradient>
		<linearGradient id="grd23" gradientUnits="userSpaceOnUse"  x1="2231.661" y1="3253.174" x2="2141.255" y2="2597.727">
			<stop offset="0.004" stop-color="#e38ddd"  />
			<stop offset="1" stop-color="#9571f6"  />
		</linearGradient>
		<linearGradient id="grd24" gradientUnits="userSpaceOnUse"  x1="2385.133" y1="2660.772" x2="2371.534" y2="2365.669">
			<stop offset="0" stop-color="#ffc444"  />
			<stop offset="0.996" stop-color="#f36f56"  />
		</linearGradient>
		<linearGradient id="grd25" gradientUnits="userSpaceOnUse"  x1="2402.578" y1="2393.249" x2="2407.827" y2="2192.306">
			<stop offset="0" stop-color="#ffc444"  />
			<stop offset="0.996" stop-color="#f36f56"  />
		</linearGradient>
		<linearGradient id="grd26" gradientUnits="userSpaceOnUse"  x1="2385.127" y1="2359.198" x2="2388.702" y2="2222.321">
			<stop offset="0" stop-color="#ffc444"  />
			<stop offset="0.996" stop-color="#f36f56"  />
		</linearGradient>
		<linearGradient id="grd27" gradientUnits="userSpaceOnUse"  x1="2553.83" y1="2362.431" x2="2557.405" y2="2225.554">
			<stop offset="0" stop-color="#ffc444"  />
			<stop offset="0.996" stop-color="#f36f56"  />
		</linearGradient>
		<linearGradient id="grd28" gradientUnits="userSpaceOnUse"  x1="2793.939" y1="2335.042" x2="2186.511" y2="3530.719">
			<stop offset="0" stop-color="#ff9085"  />
			<stop offset="1" stop-color="#fb6fbb"  />
		</linearGradient>
		<linearGradient id="grd29" gradientUnits="userSpaceOnUse"  x1="1965.811" y1="2574.352" x2="2008.098" y2="2849.22">
			<stop offset="0" stop-color="#ffc444"  />
			<stop offset="0.996" stop-color="#f36f56"  />
		</linearGradient>
		<linearGradient id="grd30" gradientUnits="userSpaceOnUse"  x1="1990.29" y1="2166.93" x2="1980.518" y2="2811.901">
			<stop offset="0" stop-color="#ffc444"  />
			<stop offset="0.996" stop-color="#f36f56"  />
		</linearGradient>
		<linearGradient id="grd31" gradientUnits="userSpaceOnUse"  x1="1706.958" y1="2154.532" x2="1764.864" y2="2741.174">
			<stop offset="0" stop-color="#ffc444"  />
			<stop offset="0.996" stop-color="#f36f56"  />
		</linearGradient>
		<linearGradient id="grd32" gradientUnits="userSpaceOnUse"  x1="2018.932" y1="2198.2" x2="2010.518" y2="2753.52">
			<stop offset="0" stop-color="#ffc444"  />
			<stop offset="0.996" stop-color="#f36f56"  />
		</linearGradient>
		<linearGradient id="grd33" gradientUnits="userSpaceOnUse"  x1="1598.318" y1="1891.781" x2="2042.841" y2="1891.781">
			<stop offset="0" stop-color="#444b8c"  />
			<stop offset="0.996" stop-color="#3e4177"  />
		</linearGradient>
		<linearGradient id="grd34" gradientUnits="userSpaceOnUse"  x1="1926.752" y1="2076.72" x2="1900.15" y2="2306.385">
			<stop offset="0" stop-color="#ffc444"  />
			<stop offset="0.996" stop-color="#f36f56"  />
		</linearGradient>
		<linearGradient id="grd35" gradientUnits="userSpaceOnUse"  x1="1891.32" y1="2413.827" x2="1915.089" y2="2762.047">
			<stop offset="0" stop-color="#444b8c"  />
			<stop offset="0.996" stop-color="#26264f"  />
		</linearGradient>
		<linearGradient id="grd36" gradientUnits="userSpaceOnUse"  x1="1788.578" y1="2968.135" x2="1788.578" y2="2450.785">
			<stop offset="0" stop-color="#444b8c"  />
			<stop offset="0.996" stop-color="#26264f"  />
		</linearGradient>
	</defs>
	<style>
		tspan { white-space:pre }
		.shp0 { fill: #f4f7fa } 
		.shp1 { fill: url(#grd1) } 
		.shp2 { fill: #fcfdfe } 
		.shp3 { fill: #d8dee8 } 
		.shp4 { fill: #beb8f2 } 
		.shp5 { fill: url(#grd2) } 
		.shp6 { fill: url(#grd3) } 
		.shp7 { fill: url(#grd4) } 
		.shp8 { fill: url(#grd5) } 
		.shp9 { fill: url(#grd6) } 
		.shp10 { opacity: 0.4;mix-blend-mode: multiply;fill: url(#grd7) } 
		.shp11 { fill: url(#grd8) } 
		.shp12 { fill: url(#grd9) } 
		.shp13 { fill: #ffffff } 
		.shp14 { fill: url(#grd10) } 
		.shp15 { fill: url(#grd11) } 
		.shp16 { fill: url(#grd12) } 
		.shp17 { fill: url(#grd13) } 
		.shp18 { fill: url(#grd14) } 
		.shp19 { fill: url(#grd15) } 
		.shp20 { fill: url(#grd16) } 
		.shp21 { fill: url(#grd17) } 
		.shp22 { fill: url(#grd18) } 
		.shp23 { fill: url(#grd19) } 
		.shp24 { fill: url(#grd20) } 
		.shp25 { fill: url(#grd21) } 
		.shp26 { opacity: 0.702;mix-blend-mode: multiply;fill: url(#grd22) } 
		.shp27 { fill: url(#grd23) } 
		.shp28 { fill: url(#grd24) } 
		.shp29 { fill: url(#grd25) } 
		.shp30 { fill: url(#grd26) } 
		.shp31 { fill: url(#grd27) } 
		.shp32 { fill: url(#grd28) } 
		.shp33 { fill: url(#grd29) } 
		.shp34 { fill: url(#grd30) } 
		.shp35 { fill: url(#grd31) } 
		.shp36 { fill: url(#grd32) } 
		.shp37 { fill: url(#grd33) } 
		.shp38 { fill: url(#grd34) } 
		.shp39 { fill: url(#grd35) } 
		.shp40 { fill: url(#grd36) } 
	</style>
	<g id="Illustration">
		<g id="&lt;Group&gt;">
			<path id="&lt;Path&gt;" class="shp0" d="M3201.79 1653.9C3126.57 1161.54 2818.17 556.65 2208.87 493.34C1900.47 455.83 1594.26 465.5 1290.25 522.35C1019.6 572.97 782.28 723.64 632.11 940.18C481.94 1156.73 431.78 1420.78 492.66 1672.51C532.2 1836.02 558.91 2005.24 551.58 2173.25C538.82 2465.66 546.16 2738.6 829.94 2912.99C1083.32 3068.69 1402.2 3206.02 1706.42 3230.07C1913.16 3246.42 2145.01 3219.97 2344.27 3166.14C3359.76 2891.83 3277.01 2146.26 3201.79 1653.9Z" />
			<g id="&lt;Group&gt;">
				<g id="&lt;Group&gt;">
					<path id="&lt;Path&gt;" class="shp1" d="M2179.39 2928.45C2164.42 2923.57 2136.17 2899.77 2131.36 2890.53C2099.36 2829.03 2031.96 2717.78 2049.76 2646.69C2052.8 2634.55 2109.82 2633.5 2119.63 2623.68C2155.83 2614.19 2168.97 2613.14 2198.94 2587.21C2287.44 2510.66 2156.23 2310.85 2357.19 2287.21C2504.39 2269.9 2612.76 2339.92 2638.5 2121.32C2664.24 1902.73 2909.5 1541.8 3108.96 1735.29C3223.43 1846.33 3056.08 2004.79 3097.84 2152.82C3137.52 2293.49 3063.03 2389.09 2911.85 2440.5C2760.66 2491.92 2822.46 2565.02 2839.12 2694.73C2859.13 2850.54 2628.38 2833.97 2522.5 2817.23C2437.24 2803.74 2211.04 2826.94 2179.39 2928.45Z" />
					<g id="&lt;Clip Group&gt;" clip-path="url(#cp1)">
						<g id="&lt;Group&gt;" style="opacity: 0.8;mix-blend-mode: soft-light">
							<path id="&lt;Path&gt;" class="shp2" d="M2091.34 2775.28L2090.4 2771.83C2340.22 2703.48 2562.37 2560.44 2732.82 2358.18C2895.01 2165.73 3008.28 1923.7 3060.39 1658.27L3063.89 1658.96C3011.67 1924.98 2898.13 2167.57 2735.55 2360.48C2564.63 2563.3 2341.87 2706.73 2091.34 2775.28Z" />
							<path id="&lt;Path&gt;" class="shp2" d="M2364.49 2663.45L2364.12 2659.91C2511.6 2644.31 2732.49 2687.2 2856.53 2755.51L2854.81 2758.64C2731.32 2690.63 2511.37 2647.93 2364.49 2663.45Z" />
							<path id="&lt;Path&gt;" class="shp2" d="M2188.67 2747.44L2186.81 2744.39C2252.32 2704.42 2295.11 2632.85 2313.98 2531.69C2327.83 2457.5 2328.72 2369.41 2316.65 2269.87L2320.19 2269.44C2332.31 2369.34 2331.4 2457.79 2317.49 2532.34C2298.43 2634.55 2255.08 2706.91 2188.67 2747.44Z" />
							<path id="&lt;Path&gt;" class="shp2" d="M2757.54 2332.23L2755.53 2329.28C2875.22 2247.52 3027.63 2248.36 3134.42 2263.46L3133.92 2266.99C3027.76 2251.98 2876.29 2251.11 2757.54 2332.23Z" />
							<path id="&lt;Path&gt;" class="shp2" d="M2934.8 2051.74L2931.35 2050.83C2949.28 1983.1 2964.48 1841.54 2864.91 1654.38L2868.06 1652.7C2968.21 1840.94 2952.86 1983.51 2934.8 2051.74Z" />
						</g>
					</g>
				</g>
			</g>
			<g id="&lt;Group&gt;">
				<g id="&lt;Clip Group&gt;" clip-path="url(#cp2)">
					<path id="&lt;Path&gt;" class="shp3" d="M2192.93 2940.71C2115.4 2914.74 2038.27 2886.96 1961.62 2857.37C1960.12 2858.31 1965.01 2680.55 2063.48 2604.5C2257.55 2457.76 2176.3 2280.33 2161.81 2181.22C2135.91 2040.58 2187.49 1902.55 2321.98 1924.45C2471.68 1945.84 2542.73 1704.45 2555.87 1475.66C2554.59 1362.7 2681.38 1248.62 2789.64 1236.75C2900.64 1221.99 2993.12 1309.44 2986.24 1532.91C2989.71 1793.7 2778.52 1912.78 2687.77 2026.96C2598.52 2139.03 2736.48 2267.34 2591.29 2354.8C2468.23 2433.57 2322.6 2479.97 2349.31 2611.38C2377.59 2741.64 2347.86 2838.68 2192.93 2940.71Z" />
					<g id="&lt;Group&gt;" style="opacity: 0.8;mix-blend-mode: soft-light">
						<path id="&lt;Path&gt;" class="shp4" d="M2080.92 2931.21C2081.17 2929.67 2222.48 2579.06 2417.19 2248.09C2445.58 2193.97 2475.63 2139.61 2504.69 2087.05C2582.49 1946.32 2662.95 1800.8 2715.6 1651.01C2774.44 1483.61 2792.28 1326.55 2770.13 1170.85L2774.31 1170.26C2796.55 1326.65 2778.65 1484.36 2719.58 1652.41C2666.81 1802.53 2586.27 1948.21 2508.38 2089.09C2479.33 2141.64 2449.29 2195.97 2420.88 2250.14C2234.81 2566.43 2088.77 2919.04 2085.05 2932.05L2080.92 2931.21Z" />
						<path id="&lt;Path&gt;" class="shp4" d="M2652.46 1815.04L2649.87 1811.71C2756.29 1728.98 2888.49 1608 2959.51 1543C3016.83 1490.54 3017.06 1490.62 3019.23 1491.36L3017.85 1495.35L3018.54 1493.36L3019.14 1495.34C3016.35 1496.7 2992.53 1518.51 2962.36 1546.11C2891.29 1611.15 2759.01 1732.21 2652.46 1815.04Z" />
						<path id="&lt;Path&gt;" class="shp4" d="M2702.76 1684.19C2704.63 1568.22 2671.56 1485.73 2643.5 1436.96C2612.8 1383.61 2580.38 1356.29 2575.97 1354.67C2575.95 1354.67 2575.94 1354.66 2575.93 1354.66C2575.94 1354.66 2576.44 1354.83 2577.07 1354.55L2575.38 1350.69C2576.58 1350.16 2577.81 1350.73 2579.65 1351.95C2607.38 1370.41 2710.26 1480.91 2706.98 1684.26L2702.76 1684.19Z" />
						<path id="&lt;Path&gt;" class="shp4" d="M2297.64 2465.66C2328.96 2362.82 2324.71 2245.4 2285 2116.65C2264.28 2049.49 2234.61 1982.02 2196.8 1916.1C2194.05 1911.3 2193.08 1909.6 2192.8 1908.82L2196.77 1907.38C2196.98 1907.93 2198.6 1910.74 2200.47 1914C2238.43 1980.19 2268.22 2047.95 2289.03 2115.41C2329 2244.97 2333.25 2363.23 2301.68 2466.89L2297.64 2465.66Z" />
						<path id="&lt;Path&gt;" class="shp4" d="M2357.28 2362.77L2354.14 2359.95C2477.23 2222.8 2680.32 2248 2682.62 2248.84C2682.62 2248.84 2682.62 2248.84 2682.63 2248.85L2683.82 2251.07L2682.04 2252.85L2681.73 2250.79L2681.21 2252.8C2679.31 2252.4 2479.67 2226.4 2357.28 2362.77Z" />
						<path id="&lt;Path&gt;" class="shp4" d="M2104.86 2874.1C2114.73 2828.69 2112.33 2747.82 2044.87 2620.46C2041.12 2613.37 2041.12 2613.37 2041.47 2612.3L2043.48 2612.96L2045.51 2612.47C2045.7 2612.99 2047.04 2615.54 2048.6 2618.49C2116.65 2746.97 2119 2828.9 2108.98 2875L2104.86 2874.1Z" />
						<path id="&lt;Path&gt;" class="shp4" d="M2144.61 2792.48L2140.83 2790.6C2157.19 2757.51 2209.22 2696.25 2373.82 2657.82C2376.08 2657.3 2377.53 2656.96 2378.06 2656.8L2379.29 2660.84C2378.74 2661.01 2377.19 2661.37 2374.78 2661.94C2211.87 2699.97 2160.65 2760.05 2144.61 2792.48Z" />
					</g>
				</g>
			</g>
			<g id="&lt;Group&gt;">
				<g id="&lt;Group&gt;">
					<g id="&lt;Group&gt;">
						<g id="&lt;Group&gt;">
							<path id="&lt;Path&gt;" class="shp3" d="M1127.56 2650.56C1123.13 2687.2 1115.37 2716.83 1109.38 2752.42C1259.36 2711.42 1411.46 2699.4 1563.6 2658.11C1428.77 2506.05 1319.46 2449.82 1332.61 2214.55C1338.79 2104.14 1383.31 1888.34 1319.86 1795.34C1247.59 1689.38 1170.76 1736.34 1171.01 1627.74C1171.41 1458 1056.93 1302.71 850.13 1416.81C646.03 1529.43 778.48 2119.86 936.64 2255.31C1048.13 2397.53 1150.69 2459.24 1127.56 2650.56Z" />
							<g id="&lt;Clip Group&gt;" clip-path="url(#cp3)">
								<g id="&lt;Group&gt;" style="opacity: 0.8;mix-blend-mode: soft-light">
									<path id="&lt;Path&gt;" class="shp2" d="M1340.64 2685.67C1317.74 2633.06 1290.42 2581.62 1264.01 2531.88L1254.02 2513.06C1232.85 2473.07 1214.62 2436.92 1198.54 2405.03C1189.49 2387.07 1180.93 2370.1 1172.5 2353.72C1147 2304.15 1128.98 2269.36 1119.9 2251.81C1116.72 2245.68 1114.63 2241.65 1113.7 2239.83C1043.16 2102.62 997.77 1890.19 973.39 1776.07C970.75 1763.7 968.39 1752.65 966.31 1743.17C930.53 1580.32 873.8 1415.15 797.69 1252.25L800.36 1251C876.57 1414.09 933.37 1579.47 969.19 1742.54C971.28 1752.02 973.64 1763.08 976.28 1775.45C1000.63 1889.44 1045.96 2101.62 1116.32 2238.48C1117.26 2240.3 1119.34 2244.33 1122.52 2250.46C1131.61 2268 1149.62 2302.79 1175.13 2352.37C1183.56 2368.76 1192.12 2385.73 1201.18 2403.7C1217.25 2435.58 1235.47 2471.71 1256.63 2511.67L1266.61 2530.49C1293.06 2580.29 1320.4 2631.78 1343.35 2684.49L1340.64 2685.67Z" />
									<path id="&lt;Path&gt;" class="shp2" d="M1208.2 2433.02C1165.9 2340.14 1153.63 2213.98 1172.73 2068.2C1188.64 1946.77 1226.31 1815.73 1276.07 1708.68L1278.75 1709.92C1229.1 1816.71 1191.53 1947.44 1175.66 2068.59C1156.63 2213.82 1168.81 2339.42 1210.88 2431.8L1208.2 2433.02Z" />
									<path id="&lt;Path&gt;" class="shp2" d="M980.11 1794.52L977.16 1794.4C980.82 1706.22 995.65 1617.98 1009.99 1532.64C1019.81 1474.24 1029.96 1413.84 1036.45 1353.96L1039.39 1354.27C1032.89 1414.24 1022.73 1474.68 1012.91 1533.13C998.58 1618.38 983.76 1706.52 980.11 1794.52Z" />
									<path id="&lt;Path&gt;" class="shp2" d="M1047.57 2071.86C977.95 1970.74 838.88 1866.93 749.95 1849.7L750.51 1846.8C840.07 1864.16 980.02 1968.54 1050 2070.18L1047.57 2071.86Z" />
								</g>
							</g>
						</g>
						<g id="&lt;Group&gt;">
							<path id="&lt;Path&gt;" class="shp5" d="M960.02 2240.05C1018.69 2420.08 1120.51 2368.11 1253.41 2307.44C1249.74 2483.76 1252.66 2655.57 1256.23 2829.93C1166.69 2869.21 1101.82 2895.68 1037.46 2795.93C964.68 2683.1 926.41 2615.58 779.11 2602.78C631.8 2589.97 510.5 2496.83 542.56 2352.52C576.29 2200.66 428.09 2025.22 538.09 1904.74C729.78 1694.8 898.92 2052.58 960.02 2240.05Z" />
							<g id="&lt;Clip Group&gt;" clip-path="url(#cp4)">
								<g id="&lt;Group&gt;" style="opacity: 0.8;mix-blend-mode: soft-light">
									<path id="&lt;Path&gt;" class="shp2" d="M1218.21 2610.19C1067.56 2557.38 943.51 2509.18 832.48 2411.08C726.23 2317.2 667.19 2209.67 635.05 2051.54C618.39 1969.58 597.19 1912.73 566.74 1835.35L569.49 1834.27C599.99 1911.79 621.24 1968.76 637.94 2050.95C669.94 2208.41 728.71 2315.45 834.44 2408.87C945.06 2506.62 1068.85 2554.7 1219.18 2607.41L1218.21 2610.19Z" />
									<path id="&lt;Path&gt;" class="shp2" d="M1063.92 2859.87L1061.43 2858.28C1089.79 2814.06 1121.57 2777.11 1158.59 2745.3C1177.53 2729.03 1197.49 2717.19 1221.62 2704.41L1223 2707.02C1199.04 2719.7 1179.25 2731.45 1160.51 2747.54C1123.72 2779.16 1092.12 2815.9 1063.92 2859.87Z" />
									<path id="&lt;Path&gt;" class="shp2" d="M522.7 2474.43L521.75 2471.63C654.23 2426.41 790.17 2423.72 904.52 2464.05L903.54 2466.84C789.81 2426.72 654.56 2429.42 522.7 2474.43Z" />
									<path id="&lt;Path&gt;" class="shp2" d="M686.96 2218.15C683.68 2204.29 688.78 2084.93 694.64 1977.85C700.52 1870.33 708.27 1754.67 711.05 1747.21L713.81 1748.24C711.45 1754.58 704.17 1857.65 697.58 1978.01C691.73 2084.89 686.63 2203.92 689.83 2217.47L686.96 2218.15Z" />
								</g>
							</g>
						</g>
					</g>
				</g>
			</g>
			<g id="&lt;Group&gt;">
				<g id="&lt;Group&gt;">
					<path id="&lt;Path&gt;" class="shp6" d="M2826.12 1453.27L2825.43 1444.65C2821.59 1396.67 2779.89 1360.7 2731.86 1363.92C2706.8 1365.6 2683.34 1376.86 2666.35 1395.38L2404.77 1680.48C2368.83 1719.66 2323.44 1748.97 2272.95 1765.63L2248.96 1773.54C2215.03 1784.73 2179.43 1790 2143.71 1789.11L1759.77 1779.54L2077.1 1650.87C2116.44 1634.92 2135.48 1590.17 2119.69 1550.76L2115.42 1540.09C2102.16 1506.98 2067.84 1487.34 2032.56 1492.57C1907.12 1511.16 1619.4 1554.65 1495.85 1580.31C1377.03 1605 1210.76 1828.19 1132.67 1942.03C1104.11 1983.67 1088.71 2032.36 1088.34 2082.85C1087.9 2140.28 1116.67 2194 1164.72 2225.47L1191.94 2243.3C1242.68 2276.54 1303.07 2291.84 1363.51 2286.77L2130.24 2222.51C2228.45 2214.28 2318.55 2164.69 2378.05 2086.11L2806.61 1520.12C2821.1 1500.98 2828.04 1477.19 2826.12 1453.27Z" />
					<path id="&lt;Path&gt;" class="shp7" d="M1434.85 2317.85L1088.9 1912.64C1074.31 1895.55 1048.63 1893.52 1031.54 1908.11L720.44 2173.71C703.35 2188.3 701.32 2213.98 715.91 2231.07L1061.86 2636.29C1076.45 2653.38 1102.14 2655.4 1119.22 2640.81L1430.32 2375.21C1447.41 2360.62 1449.44 2334.94 1434.85 2317.85Z" />
				</g>
				<g id="&lt;Group&gt;">
					<path id="&lt;Path&gt;" class="shp8" d="M2844.71 1430.96L2844.02 1422.35C2840.18 1374.37 2798.48 1338.39 2750.45 1341.61C2725.39 1343.29 2701.93 1354.56 2684.94 1373.07L2423.36 1658.17C2387.42 1697.35 2342.03 1726.66 2291.54 1743.32L2267.55 1751.23C2233.62 1762.43 2198.02 1767.69 2162.3 1766.8L1778.36 1757.23L2095.69 1628.56C2135.03 1612.61 2154.07 1567.86 2138.28 1528.45L2134.01 1517.78C2120.75 1484.68 2086.43 1465.03 2051.15 1470.26C1925.71 1488.85 1637.99 1532.34 1514.44 1558.01C1395.62 1582.69 1229.35 1805.88 1151.25 1919.72C1122.7 1961.36 1107.3 2010.05 1106.93 2060.54C1106.49 2117.97 1135.26 2171.69 1183.31 2203.16L1210.53 2221C1261.27 2254.23 1321.66 2269.53 1382.1 2264.47L2148.83 2200.2C2247.04 2191.97 2337.14 2142.38 2396.64 2063.8L2825.2 1497.81C2839.69 1478.68 2846.63 1454.88 2844.71 1430.96Z" />
					<path id="&lt;Path&gt;" class="shp9" d="M1448.92 2352.92L1137.8 2618.49C1120.74 2633.11 1095.05 2631.06 1080.44 2614L734.52 2208.78C719.91 2191.67 721.95 2165.98 739.02 2151.41L757.98 2135.24L1050.13 1885.8C1067.2 1871.22 1092.89 1873.23 1107.5 1890.34L1143.23 1932.2L1423.9 2260.51L1441.78 2281.01L1441.82 2281.01L1453.42 2295.09C1468.03 2312.15 1465.99 2338.31 1448.92 2352.92Z" />
				</g>
				<path id="&lt;Path&gt;" class="shp10" d="M1448.92 2352.92L1137.8 2618.49C1120.74 2633.11 1095.05 2631.06 1080.44 2614L734.52 2208.78C719.91 2191.67 721.95 2165.98 739.02 2151.41L757.98 2135.24C771.1 2176.62 803.23 2214.76 884.35 2201.08C1049.8 2173.2 1058.98 2270.96 1131.59 2310.29C1219.6 2357.99 1348.13 2291.41 1441.78 2281.01L1441.82 2281.01L1453.42 2295.09C1468.03 2312.15 1465.99 2338.31 1448.92 2352.92Z" />
				<g id="&lt;Group&gt;">
					<path id="&lt;Path&gt;" class="shp11" d="M1360.71 2301.8C1360.71 2326.04 1341.06 2345.68 1316.82 2345.68C1292.59 2345.68 1272.94 2326.04 1272.94 2301.8C1272.94 2277.56 1292.59 2257.92 1316.82 2257.92C1341.06 2257.92 1360.71 2277.56 1360.71 2301.8Z" />
					<path id="&lt;Path&gt;" class="shp12" d="M1194.41 2419.59C1194.41 2443.83 1174.76 2463.48 1150.53 2463.48C1126.29 2463.48 1106.64 2443.83 1106.64 2419.59C1106.64 2395.36 1126.29 2375.71 1150.53 2375.71C1174.76 2375.71 1194.41 2395.36 1194.41 2419.59Z" />
				</g>
			</g>
			<g id="&lt;Group&gt;">
				<g id="&lt;Group&gt;">
					<path id="&lt;Path&gt;" class="shp13" d="M2167.23 912.59C2167.23 1116.01 2002.33 1280.91 1798.91 1280.91C1595.49 1280.91 1430.59 1116.01 1430.59 912.59C1430.59 709.17 1595.49 544.27 1798.91 544.27C2002.33 544.27 2167.23 709.17 2167.23 912.59Z" />
					<path id="&lt;Path&gt;" class="shp14" d="M2126.09 912.59C2126.09 1093.29 1979.6 1239.77 1798.91 1239.77C1618.21 1239.77 1471.73 1093.29 1471.73 912.59C1471.73 731.9 1618.21 585.41 1798.91 585.41C1979.6 585.41 2126.09 731.9 2126.09 912.59Z" />
				</g>
				<g id="&lt;Group&gt;">
					<path id="&lt;Compound Path&gt;" class="shp13" d="M1768.53 1115.86L1768.53 1071.02C1728.67 1069.03 1689.81 1058.07 1668.39 1046.61L1686.32 974.87C1711.23 986.83 1747.09 999.78 1785.95 999.78C1812.36 999.78 1832.3 993.8 1832.3 977.36C1832.3 962.41 1816.84 953.94 1775.48 943.98C1717.21 930.03 1671.37 903.63 1671.37 849.32C1671.37 801 1706.24 764.13 1768.53 753.67L1768.53 709.33L1827.81 709.33L1827.81 750.18C1867.16 751.68 1892.58 759.15 1912.01 767.12L1894.56 836.37C1880.12 830.89 1851.73 817.43 1808.38 817.43C1776.5 817.43 1768.53 827.9 1768.53 837.86C1768.53 850.32 1789.94 860.28 1834.28 872.74C1903.53 891.67 1929.43 919.57 1929.43 968.89C1929.43 1016.22 1894.06 1056.07 1827.81 1066.54L1827.81 1115.86L1768.53 1115.86Z" />
				</g>
			</g>
			<g id="&lt;Group&gt;">
				<g id="&lt;Group&gt;">
					<path id="&lt;Path&gt;" class="shp13" d="M1385.61 1281.61C1385.61 1420.36 1273.13 1532.84 1134.37 1532.84C995.62 1532.84 883.14 1420.36 883.14 1281.61C883.14 1142.85 995.62 1030.37 1134.37 1030.37C1273.13 1030.37 1385.61 1142.85 1385.61 1281.61Z" />
					<path id="&lt;Path&gt;" class="shp15" d="M1357.54 1281.61C1357.54 1404.86 1257.63 1504.78 1134.37 1504.78C1011.12 1504.78 911.2 1404.86 911.2 1281.61C911.2 1158.35 1011.12 1058.44 1134.37 1058.44C1257.63 1058.44 1357.54 1158.35 1357.54 1281.61Z" />
				</g>
				<g id="&lt;Group&gt;">
					<path id="&lt;Compound Path&gt;" class="shp13" d="M1113.65 1420.25L1113.65 1389.67C1086.46 1388.31 1059.95 1380.84 1045.34 1373.02L1057.58 1324.09C1074.56 1332.24 1099.02 1341.08 1125.53 1341.08C1143.55 1341.08 1157.15 1337 1157.15 1325.79C1157.15 1315.59 1146.6 1309.81 1118.39 1303.02C1078.65 1293.5 1047.38 1275.49 1047.38 1238.45C1047.38 1205.49 1071.16 1180.34 1113.65 1173.2L1113.65 1142.96L1154.09 1142.96L1154.09 1170.83C1180.93 1171.85 1198.26 1176.94 1211.52 1182.38L1199.62 1229.61C1189.77 1225.88 1170.4 1216.7 1140.83 1216.7C1119.09 1216.7 1113.65 1223.84 1113.65 1230.63C1113.65 1239.13 1128.26 1245.93 1158.5 1254.42C1205.73 1267.34 1223.4 1286.37 1223.4 1320.01C1223.4 1352.29 1199.27 1379.48 1154.09 1386.61L1154.09 1420.25L1113.65 1420.25Z" />
				</g>
			</g>
			<g id="&lt;Group&gt;">
				<g id="&lt;Group&gt;">
					<path id="&lt;Path&gt;" class="shp13" d="M2729.69 1132.43C2729.69 1271.18 2617.21 1383.66 2478.46 1383.66C2339.7 1383.66 2227.22 1271.18 2227.22 1132.43C2227.22 993.67 2339.7 881.19 2478.46 881.19C2617.21 881.19 2729.69 993.67 2729.69 1132.43Z" />
					<path id="&lt;Path&gt;" class="shp16" d="M2701.63 1132.43C2701.63 1255.68 2601.71 1355.6 2478.46 1355.6C2355.2 1355.6 2255.29 1255.68 2255.29 1132.43C2255.29 1009.17 2355.2 909.26 2478.46 909.26C2601.71 909.26 2701.63 1009.17 2701.63 1132.43Z" />
				</g>
				<g id="&lt;Group&gt;">
					<path id="&lt;Compound Path&gt;" class="shp13" d="M2457.73 1271.07L2457.73 1240.49C2430.55 1239.13 2404.04 1231.65 2389.43 1223.84L2401.66 1174.91C2418.65 1183.06 2443.11 1191.9 2469.62 1191.9C2487.63 1191.9 2501.23 1187.82 2501.23 1176.61C2501.23 1166.41 2490.69 1160.63 2462.48 1153.84C2422.73 1144.32 2391.46 1126.31 2391.46 1089.27C2391.46 1056.31 2415.24 1031.16 2457.73 1024.02L2457.73 993.78L2498.17 993.78L2498.17 1021.65C2525.01 1022.67 2542.35 1027.76 2555.6 1033.2L2543.7 1080.43C2533.85 1076.7 2514.48 1067.52 2484.92 1067.52C2463.17 1067.52 2457.73 1074.66 2457.73 1081.45C2457.73 1089.95 2472.34 1096.75 2502.58 1105.24C2549.82 1118.16 2567.48 1137.19 2567.48 1170.83C2567.48 1203.11 2543.36 1230.3 2498.17 1237.43L2498.17 1271.07L2457.73 1271.07Z" />
				</g>
			</g>
			<g id="&lt;Group&gt;">
				<g id="&lt;Group&gt;">
					<path id="&lt;Path&gt;" class="shp17" d="M826.93 2988.97C795.65 2907.52 839.79 2774.04 867.6 2713.53C948.66 2537.2 1097.58 2531.24 1219.67 2526.35C1339.6 2521.55 1455.37 2516.91 1540.1 2652.17C1595.45 2740.53 1646.35 2902.63 1612.41 2988.97C1576.71 3079.77 1477.58 3009.4 1241.82 3008.16C982.52 3006.79 865.98 3090.67 826.93 2988.97Z" />
					<path id="&lt;Path&gt;" class="shp18" d="M1332.87 2544.9C1332.87 2567.11 1278.67 2593.75 1211.8 2593.75C1144.93 2593.75 1090.72 2567.11 1090.72 2544.9C1090.72 2522.7 1144.93 2532.63 1211.8 2532.63C1278.67 2532.63 1332.87 2522.7 1332.87 2544.9Z" />
					<path id="&lt;Path&gt;" class="shp19" d="M1167.27 2390.03C1148.86 2390.03 1191.36 2519.39 1124.43 2537.15C1117.96 2538.86 1116.9 2547.56 1122.78 2550.75C1140.75 2560.49 1174.4 2572.82 1229.59 2572.82C1265.45 2572.82 1291.67 2559.28 1305.29 2550.14C1309.95 2547.02 1309.49 2540.05 1304.5 2537.48C1283.87 2526.85 1255.22 2493.03 1263.77 2393.34L1167.27 2390.03Z" />
					<path id="&lt;Path&gt;" class="shp20" d="M1111.34 2234.94C1111.62 2236.56 1117.19 2354.64 1144.17 2413.6C1151.92 2430.53 1190.34 2428.5 1215.21 2426.46C1236.81 2424.69 1270.67 2432.57 1280.2 2417.66C1305.76 2377.7 1316.37 2308.22 1312.04 2209.22C1298.94 2176.29 1265.55 2160.27 1211.86 2161.17C1158.16 2162.07 1124.66 2186.66 1111.34 2234.94Z" />
					<path id="&lt;Path&gt;" class="shp21" d="M1130.19 2298.35C1118.96 2285.3 1108.05 2277.9 1097.47 2276.16C1081.59 2273.55 1071.25 2314.67 1092.91 2341.43C1107.34 2359.27 1122.91 2360.79 1139.6 2346L1130.19 2298.35Z" />
					<path id="&lt;Path&gt;" class="shp22" d="M1294.37 2298.35C1305.61 2285.3 1316.52 2277.9 1327.1 2276.16C1342.98 2273.55 1353.32 2314.67 1331.66 2341.43C1317.22 2359.27 1301.66 2360.79 1284.97 2346L1294.37 2298.35Z" />
					<path id="&lt;Path&gt;" class="shp23" d="M1117 2296.88C1119.12 2300.77 1121.55 2304.4 1123.19 2303.97C1130 2302.19 1103.74 2235.84 1127.93 2212.61C1140.44 2200.6 1154.52 2211.54 1205.76 2209.22C1257.35 2206.89 1270.55 2194.54 1286.15 2204C1300.35 2212.61 1313.07 2237.21 1302.53 2310.06C1305.47 2309.38 1308.4 2308.71 1311.33 2308.03C1307.38 2284.17 1311.69 2269.11 1316.62 2259.62C1320.22 2252.7 1326.73 2243.77 1326.22 2230.88C1325.91 2222.89 1323.26 2222.53 1322.82 2215.98C1321.55 2196.8 1343.44 2191.63 1344.49 2172.68C1345.31 2158.09 1332.72 2154.77 1335.02 2139.52C1336.98 2126.55 1346.81 2124.12 1345.25 2114.75C1343.57 2104.64 1330.41 2097.11 1321.16 2094.49C1311.73 2091.81 1308.33 2094.78 1302.8 2090.97C1293.87 2084.81 1298.16 2073.87 1291.71 2069.81C1280.21 2062.58 1257.36 2091.45 1242.59 2084.27C1233.65 2079.91 1237.09 2066.93 1229.18 2063.78C1213.88 2057.69 1186.85 2100.54 1175.98 2094.85C1170.78 2092.13 1175.8 2081.69 1168.5 2074C1159.92 2064.98 1139.34 2065 1129.96 2074.55C1121.22 2083.45 1128.64 2094.08 1119.38 2105.36C1111.07 2115.49 1101.47 2111.33 1092.09 2119.44C1076.15 2133.23 1081.69 2164.44 1083.67 2175.57C1090.49 2213.9 1111.72 2221.66 1106.95 2247.8C1105.73 2254.48 1102.9 2261.92 1104.92 2272.84C1106.91 2283.55 1112.46 2291.62 1117 2296.88Z" />
					<g id="&lt;Group&gt;" style="opacity: 0.302;mix-blend-mode: multiply">
						<path id="&lt;Path&gt;" class="shp24" d="M1313.05 2214.09C1311.16 2195.24 1325.76 2186.47 1323.31 2173.02C1321.34 2162.22 1309.12 2152.51 1297.65 2150.44C1273.17 2146.02 1257.32 2182.06 1232.97 2178.16C1214.15 2175.14 1216.24 2152.4 1194.99 2143.25C1161.32 2128.76 1126.02 2172.94 1103.63 2160.71C1096.9 2157.03 1090.09 2147.57 1089.61 2121.93C1076.77 2136.68 1081.81 2165.06 1083.67 2175.57C1090.49 2213.9 1111.72 2221.66 1106.95 2247.8C1105.73 2254.48 1102.9 2261.92 1104.92 2272.84C1106.91 2283.55 1112.46 2291.62 1117 2296.88C1119.12 2300.77 1121.55 2304.4 1123.19 2303.97C1130 2302.19 1103.74 2235.84 1127.93 2212.61C1140.44 2200.6 1154.52 2211.54 1205.76 2209.22C1257.35 2206.89 1270.55 2194.54 1286.15 2204C1300.35 2212.61 1313.07 2237.21 1302.53 2310.06C1305.47 2309.38 1308.4 2308.71 1311.33 2308.03C1307.38 2284.17 1311.69 2269.11 1316.62 2259.62C1318.11 2256.77 1320.08 2253.57 1321.85 2249.9C1321.48 2243.62 1320.41 2236.73 1318.18 2229.48C1315.56 2220.99 1313.65 2220.15 1313.05 2214.09Z" />
					</g>
				</g>
			</g>
			<g id="&lt;Group&gt;">
				<g id="&lt;Group&gt;">
					<g id="&lt;Group&gt;">
						<path id="&lt;Path&gt;" class="shp25" d="M2376.29 2724.12C2211.84 2697.56 2175.59 2679.15 2158.82 2645.44C2134.47 2596.5 2152.18 2517.27 2193.87 2468.46C2230.45 2425.64 2276.13 2417.21 2274.8 2387.51C2273.7 2363.07 2242.39 2359.95 2219.41 2314.04C2212.71 2300.65 2199.7 2274.66 2205.36 2243.34C2213.65 2197.49 2255.97 2173.39 2259.41 2171.5C2303.71 2147.16 2328.99 2175.14 2362.41 2153.3C2404.26 2125.96 2385.28 2068.58 2424.53 2051.92C2453.11 2039.78 2489.67 2058.97 2499.22 2063.98C2531.07 2080.69 2527.72 2097.66 2554.63 2108.03C2586.22 2120.2 2601.31 2100.85 2638.06 2108.56C2668.43 2114.94 2690.43 2135.9 2708.39 2157.01C2748.78 2204.47 2728.69 2232.7 2758.53 2291.3C2800.56 2373.84 2864.09 2364.34 2875.37 2430.6C2881.26 2465.25 2866.12 2480.96 2877.75 2534.05C2885.6 2569.91 2895.49 2576.34 2897.25 2597.43C2902.29 2658.1 2829.56 2711.18 2816 2720.5C2729.8 2779.74 2610.79 2762 2376.29 2724.12Z" />
						<path id="&lt;Path&gt;" class="shp26" d="M2643.45 2565.58C2532.64 2557.63 2457.85 2657.44 2428.24 2632.62C2400.19 2609.11 2479.45 2529.76 2452.36 2436.94C2425.78 2345.89 2321.7 2326.97 2329.91 2275.68C2339.21 2217.64 2478.84 2202.54 2475.55 2159.72C2473.61 2134.47 2424.2 2129.15 2414.33 2089.06C2411.65 2078.18 2412.54 2067.4 2415.34 2057.31C2388.19 2078.59 2400.53 2128.4 2362.41 2153.3C2328.99 2175.14 2303.71 2147.16 2259.41 2171.5C2255.97 2173.39 2213.65 2197.49 2205.36 2243.34C2199.7 2274.66 2212.71 2300.65 2219.41 2314.04C2242.39 2359.95 2273.7 2363.07 2274.8 2387.51C2276.13 2417.21 2230.45 2425.64 2193.87 2468.46C2152.18 2517.27 2134.47 2596.5 2158.82 2645.44C2175.59 2679.15 2211.84 2697.56 2376.29 2724.12C2610.79 2762 2729.8 2779.74 2816 2720.5C2849.46 2697.5 2888.94 2658.18 2897.42 2623.1C2880.5 2638.05 2863.92 2645.3 2848.46 2648.02C2776.56 2660.67 2743.39 2572.75 2643.45 2565.58Z" />
					</g>
					<path id="&lt;Path&gt;" class="shp27" d="M2193.05 2935.2C2168.39 2874.53 2183.42 2779.9 2186.59 2759.95C2198.95 2682.08 2228.11 2633.91 2238.75 2616.77C2311.77 2499.11 2423.26 2500.21 2507.71 2501.05C2549.59 2501.46 2593.06 2500.65 2646.33 2519.51C2674.49 2529.48 2700.49 2542.77 2724.35 2559.37C2831.66 2634.04 2916.87 2878.55 2829.82 2969.95C2774.56 3027.97 2718.06 2952.71 2474.86 2985.85C2378.09 2999.04 2276.69 3021.85 2216.73 2969.88C2206.83 2961.3 2199.05 2949.98 2193.05 2935.2Z" />
					<path id="&lt;Path&gt;" class="shp28" d="M2463.35 2358.14C2475.23 2443.28 2451.1 2494.29 2390.97 2511.16C2380.58 2514.08 2377.39 2527.26 2385.26 2534.65L2496.46 2639.18C2503.2 2645.51 2513.83 2645.08 2520.03 2638.22L2620.96 2526.72C2627.58 2519.4 2624.68 2507.74 2615.42 2504.33C2583.02 2492.41 2525.05 2457.76 2537.21 2364.3L2463.35 2358.14Z" />
					<path id="&lt;Path&gt;" class="shp29" d="M2408.08 2287.26C2408.1 2288.66 2432.4 2413.26 2494.79 2413.26C2553.9 2413.26 2576.36 2321.5 2583.67 2278.65C2584.45 2271.36 2585.22 2264.07 2586 2256.78C2581.98 2258.1 2571.99 2260.77 2560.06 2257.54C2557.35 2256.8 2540.2 2252.15 2533.83 2238.01C2526.73 2222.25 2539.78 2209.72 2532.34 2195.94C2528.03 2187.96 2519.35 2184.22 2512.73 2182.31C2517.14 2188.77 2525.7 2203.21 2520.86 2216.33C2517.61 2225.14 2508.51 2233.59 2488.2 2238.73C2430.15 2253.44 2407.51 2259.03 2408.08 2287.26Z" />
					<path id="&lt;Path&gt;" class="shp30" d="M2423.33 2302.16C2401.89 2284.03 2390.24 2280.51 2388.37 2291.61C2382.52 2326.3 2410.03 2345.46 2424.95 2335.08C2434.9 2328.17 2434.36 2317.19 2423.33 2302.16Z" />
					<path id="&lt;Path&gt;" class="shp31" d="M2565.1 2302.16C2586.53 2284.03 2598.18 2280.51 2600.05 2291.61C2605.9 2326.3 2578.39 2345.46 2563.47 2335.08C2553.52 2328.17 2554.06 2317.19 2565.1 2302.16Z" />
				</g>
			</g>
			<g id="&lt;Group&gt;">
				<g id="&lt;Group&gt;">
					<g id="&lt;Group&gt;">
						<path id="&lt;Path&gt;" class="shp32" d="M1881.45 3139.33C1496.22 3142.29 1361.18 3193.05 1300 3109.55C1243.69 3032.7 1290.34 2756.82 1357.53 2679.36C1463.75 2556.91 1634.26 2550.9 1867.54 2544.4C2086.91 2538.28 2222.09 2534.52 2328.84 2629.06C2428.63 2717.45 2492.36 3022.41 2430.21 3107.33C2372.55 3186.13 2249.26 3136.49 1881.45 3139.33Z" />
						<path id="&lt;Path&gt;" class="shp33" d="M1772.29 2368.88C1788.82 2487.76 1785.65 2552.88 1762.8 2564.23L1860.37 2670.55L1959.21 2544.61C1934.3 2525.85 1925.13 2467.27 1931.69 2368.88L1772.29 2368.88Z" />
						<path id="&lt;Path&gt;" class="shp34" d="M1714.73 2113.64C1711.21 2118.41 1665.41 2343.11 1823.89 2366.62C1982.36 2390.13 1989.35 2224.05 1987.33 2153.59C1985.31 2083.14 1912.82 2057.55 1871.33 2052.63C1829.85 2047.72 1727.24 2096.71 1714.73 2113.64Z" />
						<path id="&lt;Path&gt;" class="shp35" d="M1705.53 2244.83C1700.25 2220.35 1688.55 2215.74 1670.45 2231.01C1643.31 2253.91 1686.48 2314.69 1722.09 2312.18L1705.53 2244.83Z" />
						<path id="&lt;Path&gt;" class="shp36" d="M1982.45 2219.25C1979.41 2221.3 1973.53 2251.07 1964.81 2308.54C1980.07 2310.33 1993.21 2300.91 2004.25 2280.28C2020.81 2249.33 2028.78 2187.91 1982.45 2219.25Z" />
						<path id="&lt;Compound Path&gt;" fill-rule="evenodd" class="shp37" d="M2034.51 2135.29C2021.55 2166.95 2009.62 2171.84 1998.13 2202.48C1988.93 2227.01 1985.41 2246.94 1985.25 2246.94C1976.95 2290.39 1973.31 2326.22 1971.54 2351.75C1969.06 2387.53 1970.4 2400.91 1959.73 2415.71C1939.99 2443.1 1900.74 2445.37 1869.21 2447.2C1841.71 2448.79 1776.36 2452.57 1747.73 2413.44C1739.42 2402.09 1739.96 2395 1731.07 2359.95C1721.3 2321.42 1710.74 2290.94 1703.36 2271.24C1685.75 2238.51 1668.69 2213.67 1656.25 2196.9C1628.47 2159.48 1610.09 2143.95 1600.23 2108.78C1596.11 2094.11 1590.85 2074.35 1598.62 2053.62C1606.9 2031.54 1621.64 2030.54 1638.31 2007.98C1662.54 1975.17 1646.82 1956.4 1665.3 1930.87C1689.07 1898.01 1747.9 1883.74 1788.15 1901.26C1829.63 1919.32 1830.85 1962.2 1862.22 1962.99C1887.91 1963.63 1896.15 1935.11 1932.18 1934.56C1936.92 1934.49 1963.58 1934.08 1974.49 1950.3C1987.53 1969.7 1963.23 1990.81 1973.57 2013.24C1985.87 2039.95 2028.05 2026.83 2044.74 2054.53C2058.33 2077.09 2044.91 2109.89 2034.51 2135.29ZM1969.88 2248.62C1976.22 2230.32 1983.68 2196.64 1970.66 2158.88C1949.54 2097.63 1892.17 2076.77 1884.95 2074.28C1882.69 2085.43 1877.69 2100.09 1865.27 2109.7C1832.79 2134.86 1787.55 2096.04 1752.14 2118.6C1727.73 2134.14 1722.96 2169.29 1718.83 2199.76C1715.45 2224.69 1717.52 2246.24 1720.46 2262.01C1725.55 2286.32 1749.59 2299.01 1759.99 2303.54C1784.93 2314.41 1801.63 2289.68 1854.45 2292.72C1880.86 2294.24 1894 2298.96 1913.49 2293.7C1939.83 2286.59 1957.98 2266.57 1969.88 2248.62Z" />
						<path id="&lt;Path&gt;" class="shp38" d="M1803.92 2330.83C1824.3 2337.15 1854.96 2341.43 1889.31 2328.42C1892.88 2327.06 1895.92 2330.96 1892.95 2333.08C1880.67 2341.81 1862.74 2351.09 1843.23 2349.64C1827.11 2348.44 1812.3 2342.23 1800.9 2335.75C1797.63 2333.9 1800.21 2329.68 1803.92 2330.83Z" />
					</g>
				</g>
				<g id="&lt;Group&gt;">
					<path id="&lt;Path&gt;" class="shp39" d="M1816.7 2622.96C1828.53 2664.75 1840.38 2686.04 1852.27 2686.83C1864.15 2687.62 1874.45 2688.81 1883.17 2690.4L1903.11 2615.94C1881.55 2628.85 1852.75 2631.19 1816.7 2622.96Z" />
					<path id="&lt;Path&gt;" class="shp40" d="M1846.75 2684.59L1790.58 3062.12L1850.56 3112.42L1932.69 3058.35L1883.17 2690.4L1846.75 2684.59Z" />
				</g>
			</g>
		</g>
	</g>
</svg>